SplineFontDB: 3.0
FontName: Shabnam-Bold
FullName: Shabnam Bold
FamilyName: Shabnam
Weight: Bold
Copyright: Copyright (c) 2003 by Bitstream, Inc. All Rights Reserved.\nDejaVu changes are in public domain\nCopyright (c) 2015 by Saber Rastikerdar. All Rights Reserved.
Version: 0.9.1
ItalicAngle: 0
UnderlinePosition: -100
UnderlineWidth: 100
Ascent: 1536
Descent: 512
InvalidEm: 0
LayerCount: 2
Layer: 0 1 "Back" 1
Layer: 1 1 "Fore" 0
XUID: [1021 502 1027637223 1248604]
UniqueID: 4204128
UseUniqueID: 1
FSType: 0
OS2Version: 1
OS2_WeightWidthSlopeOnly: 0
OS2_UseTypoMetrics: 1
CreationTime: 1431850356
ModificationTime: 1458407348
PfmFamily: 33
TTFWeight: 700
TTFWidth: 5
LineGap: 0
VLineGap: 0
Panose: 2 11 6 3 3 8 4 2 2 4
OS2TypoAscent: 2000
OS2TypoAOffset: 0
OS2TypoDescent: -1000
OS2TypoDOffset: 0
OS2TypoLinegap: 0
OS2WinAscent: 2000
OS2WinAOffset: 0
OS2WinDescent: 1000
OS2WinDOffset: 0
HheadAscent: 2000
HheadAOffset: 0
HheadDescent: -1000
HheadDOffset: 0
OS2SubXSize: 1331
OS2SubYSize: 1433
OS2SubXOff: 0
OS2SubYOff: 286
OS2SupXSize: 1331
OS2SupYSize: 1433
OS2SupXOff: 0
OS2SupYOff: 983
OS2StrikeYSize: 102
OS2StrikeYPos: 530
OS2Vendor: 'PfEd'
OS2CodePages: 600001ff.dfff0000
Lookup: 1 0 0 "'case' Case-Sensitive Forms in Latin lookup 0" { "'case' Case-Sensitive Forms in Latin lookup 0 subtable"  } ['case' ('DFLT' <'dflt' > 'latn' <'CAT ' 'ESP ' 'GAL ' 'dflt' > ) ]
Lookup: 6 1 0 "'ccmp' Glyph Composition/Decomposition lookup 2" { "'ccmp' Glyph Composition/Decomposition lookup 2 subtable"  } ['ccmp' ('arab' <'KUR ' 'SND ' 'URD ' 'dflt' > 'hebr' <'dflt' > 'nko ' <'dflt' > ) ]
Lookup: 6 0 0 "'ccmp' Glyph Composition/Decomposition lookup 3" { "'ccmp' Glyph Composition/Decomposition lookup 3 subtable"  } ['ccmp' ('cyrl' <'MKD ' 'SRB ' 'dflt' > 'grek' <'dflt' > 'latn' <'ISM ' 'KSM ' 'LSM ' 'MOL ' 'NSM ' 'ROM ' 'SKS ' 'SSM ' 'dflt' > ) ]

StartChar: exclam
Encoding: 33 33 1
Width: 915
VWidth: 2431
GlyphClass: 2
Flags: W
LayerCount: 2
Fore
SplineSet
290.919921875 172.381835938 m 128,-1,1
 290.919921875 242.950195312 290.919921875 242.950195312 340.635742188 292.666015625 c 128,-1,2
 390.19921875 342.23046875 390.19921875 342.23046875 461.416992188 342.883789062 c 0,3,4
 533.637695312 342.232421875 533.637695312 342.232421875 583.204101562 292.666015625 c 128,-1,5
 632.919921875 242.950195312 632.919921875 242.950195312 632.919921875 172.381835938 c 128,-1,6
 632.919921875 101.813476562 632.919921875 101.813476562 583.204101562 52.09765625 c 0,7,8
 571.061523438 39.955078125 571.061523438 39.955078125 557.205078125 30.626953125 c 128,-1,9
 543.349609375 21.2998046875 543.349609375 21.2998046875 528.153320312 14.978515625 c 128,-1,10
 512.956054688 8.6572265625 512.956054688 8.6572265625 496.421875 5.3486328125 c 128,-1,11
 479.88671875 2.0400390625 479.88671875 2.0400390625 462.422851562 1.8798828125 c 0,12,13
 390.202148438 2.53125 390.202148438 2.53125 340.635742188 52.09765625 c 128,-1,0
 290.919921875 101.813476562 290.919921875 101.813476562 290.919921875 172.381835938 c 128,-1,1
315.510742188 1525.35449219 m 1,14,-1
 600.2421875 1525.35449219 l 1,15,-1
 576.6953125 486.609375 l 5,16,-1
 340.234375 486.609375 l 5,17,-1
 315.510742188 1525.35449219 l 1,14,-1
EndSplineSet
EndChar

StartChar: parenleft
Encoding: 40 40 2
Width: 891
VWidth: 2431
GlyphClass: 2
Flags: W
GlyphCompositionVertical: 3  uni239D%0,0,44,2632 uni239C%1,44,44,2658 uni239B%0,44,0,2668
LayerCount: 2
Fore
SplineSet
652.288085938 1541.42480469 m 2,0,1
 527.342773438 1321.8125 527.342773438 1321.8125 465.170898438 1103.31738281 c 128,-1,2
 402.999023438 884.822265625 402.999023438 884.822265625 402.999023438 666.709960938 c 0,3,4
 402.999023438 230.133789062 402.999023438 230.133789062 652.342773438 -209.427734375 c 2,5,-1
 686.228515625 -269.1640625 l 1,6,-1
 460.34375 -269.1640625 l 1,7,-1
 448.563476562 -250.576171875 l 2,8,9
 299.823242188 -15.8798828125 299.823242188 -15.8798828125 224.984375 213.51953125 c 128,-1,10
 150.145507812 442.91796875 150.145507812 442.91796875 150.145507812 666.51171875 c 0,11,12
 150.145507812 1112.74707031 150.145507812 1112.74707031 448.575195312 1582.64941406 c 2,13,-1
 460.359375 1601.20507812 l 1,14,-1
 686.299804688 1601.20507812 l 1,15,-1
 652.288085938 1541.42480469 l 2,0,1
EndSplineSet
EndChar

StartChar: parenright
Encoding: 41 41 3
Width: 891
VWidth: 2431
GlyphClass: 2
Flags: W
GlyphCompositionVertical: 3  uni23A0%0,0,44,2632 uni239F%1,44,44,2658 uni239E%0,44,0,2668
LayerCount: 2
Fore
SplineSet
151.022460938 -209.43359375 m 2,0,1
 400.369140625 230.302734375 400.369140625 230.302734375 400.369140625 665.356445312 c 128,-1,2
 400.369140625 1100.43554688 400.369140625 1100.43554688 150.961914062 1541.51660156 c 2,3,-1
 117.211914062 1601.20507812 l 1,4,-1
 343.064453125 1601.20507812 l 1,5,-1
 354.834960938 1582.546875 l 2,6,7
 653.22265625 1109.54882812 653.22265625 1109.54882812 653.22265625 664.948242188 c 128,-1,8
 653.22265625 220.301757812 653.22265625 220.301757812 354.801757812 -250.576171875 c 2,9,-1
 343.021484375 -269.1640625 l 1,10,-1
 117.15234375 -269.1640625 l 1,11,-1
 151.022460938 -209.43359375 l 2,0,1
EndSplineSet
EndChar

StartChar: period
Encoding: 46 46 4
Width: 592
VWidth: 2431
GlyphClass: 2
Flags: W
LayerCount: 2
Fore
SplineSet
126.255859375 169.43359375 m 128,-1,1
 126.255859375 240.001953125 126.255859375 240.001953125 175.971679688 289.717773438 c 128,-1,2
 225.53515625 339.282226562 225.53515625 339.282226562 296.752929688 339.935546875 c 0,3,4
 368.973632812 339.284179688 368.973632812 339.284179688 418.540039062 289.717773438 c 128,-1,5
 468.255859375 240.001953125 468.255859375 240.001953125 468.255859375 169.43359375 c 128,-1,6
 468.255859375 98.865234375 468.255859375 98.865234375 418.540039062 49.1494140625 c 0,7,8
 368.25 0.0029296875 368.25 0.0029296875 297.758789062 -1.068359375 c 0,9,10
 225.538085938 -0.4169921875 225.538085938 -0.4169921875 175.971679688 49.1494140625 c 128,-1,0
 126.255859375 98.865234375 126.255859375 98.865234375 126.255859375 169.43359375 c 128,-1,1
EndSplineSet
EndChar

StartChar: colon
Encoding: 58 58 5
Width: 770
VWidth: 2431
GlyphClass: 2
Flags: W
LayerCount: 2
Fore
SplineSet
218.203125 874.43359375 m 128,-1,1
 218.203125 945.001953125 218.203125 945.001953125 267.918945312 994.717773438 c 128,-1,2
 317.482421875 1044.28222656 317.482421875 1044.28222656 388.700195312 1044.93554688 c 0,3,4
 424.140625 1044.61621094 424.140625 1044.61621094 455.107421875 1031.87304688 c 128,-1,5
 486.07421875 1019.13085938 486.07421875 1019.13085938 510.487304688 994.717773438 c 0,6,7
 560.203125 945.001953125 560.203125 945.001953125 560.203125 874.43359375 c 128,-1,8
 560.203125 803.865234375 560.203125 803.865234375 510.487304688 754.149414062 c 128,-1,9
 460.923828125 704.584960938 460.923828125 704.584960938 389.706054688 703.931640625 c 0,10,11
 372.0390625 704.090820312 372.0390625 704.090820312 355.361328125 707.377929688 c 128,-1,12
 338.682617188 710.665039062 338.682617188 710.665039062 323.35546875 716.965820312 c 128,-1,13
 308.02734375 723.266601562 308.02734375 723.266601562 294.069335938 732.611328125 c 128,-1,14
 280.111328125 741.95703125 280.111328125 741.95703125 267.918945312 754.149414062 c 0,15,0
 218.203125 803.865234375 218.203125 803.865234375 218.203125 874.43359375 c 128,-1,1
218.203125 169.43359375 m 128,-1,17
 218.203125 240.001953125 218.203125 240.001953125 267.918945312 289.717773438 c 128,-1,18
 317.482421875 339.282226562 317.482421875 339.282226562 388.700195312 339.935546875 c 0,19,20
 460.920898438 339.284179688 460.920898438 339.284179688 510.487304688 289.717773438 c 128,-1,21
 560.203125 240.001953125 560.203125 240.001953125 560.203125 169.43359375 c 128,-1,22
 560.203125 98.865234375 560.203125 98.865234375 510.487304688 49.1494140625 c 0,23,24
 460.197265625 0.0029296875 460.197265625 0.0029296875 389.706054688 -1.068359375 c 0,25,26
 317.485351562 -0.4169921875 317.485351562 -0.4169921875 267.918945312 49.1494140625 c 128,-1,16
 218.203125 98.865234375 218.203125 98.865234375 218.203125 169.43359375 c 128,-1,17
EndSplineSet
EndChar

StartChar: afii57388
Encoding: 1548 1548 7
Width: 777
VWidth: 2438
GlyphClass: 2
Flags: W
LayerCount: 2
Fore
SplineSet
592.317382812 143.98046875 m 0,0,1
 571.085742543 -1.06640625 571.085742543 -1.06640625 392.662109375 -1.06640625 c 0,2,3
 323.9609375 -1.06640625 323.9609375 -1.06640625 278.3828125 39.4453125 c 0,4,5
 182.071302683 125.053021293 182.071302683 125.053021293 227.014166966 320.790670802 c 128,-1,6
 271.95703125 516.528320312 271.95703125 516.528320312 472.922851562 710.475585938 c 2,7,-1
 497.147460938 733.853515625 l 1,8,-1
 625.911132812 639.653320312 l 1,9,-1
 594.427734375 606.671875 l 2,10,11
 465.351430751 471.457185021 465.351430751 471.457185021 438.391601562 351.625976562 c 1,12,13
 502.873046875 344.05859375 502.873046875 344.05859375 543.529296875 308.747070312 c 0,14,15
 608.209480114 252.571182298 608.209480114 252.571182298 592.317382812 143.98046875 c 0,0,1
EndSplineSet
EndChar

StartChar: uni0615
Encoding: 1557 1557 8
Width: 11
VWidth: 2553
GlyphClass: 4
Flags: W
AnchorPoint: "Anchor-10" 648 1490.29 mark 0
AnchorPoint: "Anchor-9" 648 1490.29 mark 0
AnchorPoint: "Anchor-1" 648 2306.6 basemark 0
AnchorPoint: "Anchor-1" 648 1490.29 mark 0
LayerCount: 2
Fore
SplineSet
877 1836 m 4,0,1
 850 1907 850 1907 751 1862 c 4,2,3
 670.10967478 1825.05009836 670.10967478 1825.05009836 571 1728 c 6,4,-1
 530.350585938 1688.1953125 l 5,5,-1
 653.0234375 1688.1953125 l 6,6,7
 794.178571429 1688.1953125 794.178571429 1688.1953125 858 1758 c 4,8,9
 892 1795 892 1795 877 1836 c 4,0,1
950.134765625 1816.81933594 m 4,10,11
 950 1613 950 1613 681.908203125 1612.640625 c 6,12,-1
 347.12109375 1612.640625 l 5,13,-1
 347.12109375 1688.1953125 l 5,14,-1
 448.844726562 1688.1953125 l 5,15,-1
 448.844726562 2189.28320312 l 5,16,-1
 525.655273438 2189.28320312 l 5,17,-1
 526 1744 l 5,18,-1
 574.297851562 1800.453125 l 6,19,20
 660 1901 660 1901 736.248046875 1929.74316406 c 4,21,22
 813 1958 813 1958 869 1937 c 4,23,24
 950 1906 950 1906 950.134765625 1816.81933594 c 4,10,11
EndSplineSet
EndChar

StartChar: uni061B
Encoding: 1563 1563 9
Width: 777
VWidth: 2438
GlyphClass: 2
Flags: W
LayerCount: 2
Fore
SplineSet
224.907226562 169.43359375 m 128,-1,1
 224.907226562 240.001953125 224.907226562 240.001953125 274.623046875 289.717773438 c 128,-1,2
 324.186523438 339.282226562 324.186523438 339.282226562 395.404296875 339.935546875 c 0,3,4
 467.625 339.284179688 467.625 339.284179688 517.19140625 289.717773438 c 128,-1,5
 566.907226562 240.001953125 566.907226562 240.001953125 566.907226562 169.43359375 c 128,-1,6
 566.907226562 98.865234375 566.907226562 98.865234375 517.19140625 49.1494140625 c 0,7,8
 466.901367188 0.0029296875 466.901367188 0.0029296875 396.41015625 -1.068359375 c 0,9,10
 324.189453125 -0.4169921875 324.189453125 -0.4169921875 274.623046875 49.1494140625 c 128,-1,0
 224.907226562 98.865234375 224.907226562 98.865234375 224.907226562 169.43359375 c 128,-1,1
577.8125 699.659179688 m 0,11,12
 592.923594996 587.497262266 592.923594996 587.497262266 527.643554688 527.412109375 c 0,13,14
 481 484 481 484 405 484 c 0,15,16
 330.5 484 330.5 484 288.5 508 c 4,17,18
 161.630721088 580.496730807 161.630721088 580.496730807 213.853515625 809.094726562 c 0,19,20
 257.834221487 1001.27560371 257.834221487 1001.27560371 458.987304688 1195.40625 c 2,21,-1
 483.211914062 1218.78515625 l 1,22,-1
 611.974609375 1124.58398438 l 1,23,-1
 580.491210938 1091.60253906 l 2,24,25
 452.488457409 957.518686079 452.488457409 957.518686079 424.455078125 836.552734375 c 1,26,27
 510.683433193 827.325433468 510.683433193 827.325433468 552.262695312 768.173828125 c 0,28,29
 573 739 573 739 577.8125 699.659179688 c 0,11,12
EndSplineSet
EndChar

StartChar: uni061F
Encoding: 1567 1567 10
Width: 1281
VWidth: 2438
GlyphClass: 2
Flags: W
LayerCount: 2
Fore
SplineSet
525.284179688 169.43359375 m 128,-1,1
 525.284179688 240.001953125 525.284179688 240.001953125 575 289.717773438 c 128,-1,2
 624.563476562 339.282226562 624.563476562 339.282226562 695.78125 339.935546875 c 0,3,4
 768.001953125 339.284179688 768.001953125 339.284179688 817.568359375 289.717773438 c 128,-1,5
 867.284179688 240.001953125 867.284179688 240.001953125 867.284179688 169.43359375 c 128,-1,6
 867.284179688 98.865234375 867.284179688 98.865234375 817.568359375 49.1494140625 c 0,7,8
 767.278320312 0.0029296875 767.278320312 0.0029296875 696.787109375 -1.068359375 c 0,9,10
 624.56640625 -0.4169921875 624.56640625 -0.4169921875 575 49.1494140625 c 128,-1,0
 525.284179688 98.865234375 525.284179688 98.865234375 525.284179688 169.43359375 c 128,-1,1
558.525390625 521.380859375 m 2,11,12
 557.828125 610.763671875 557.828125 610.763671875 528.546875 670.448242188 c 128,-1,13
 499.266601562 730.1328125 499.266601562 730.1328125 441.010742188 765.94921875 c 0,14,15
 188.48046875 922.01953125 188.48046875 922.01953125 194.008789062 1160.85742188 c 0,16,17
 197.358398438 1330.5546875 197.358398438 1330.5546875 321.704101562 1438.51953125 c 0,18,19
 539.02734375 1625.16210938 539.02734375 1625.16210938 918.110351562 1522.11230469 c 0,20,21
 991.590820312 1502.21875 991.590820312 1502.21875 1079.41015625 1450.88671875 c 2,22,-1
 1108.82714844 1433.69238281 l 1,23,-1
 1016.25878906 1194.5234375 l 1,24,-1
 975.623046875 1218.57910156 l 2,25,26
 916.659179688 1253.48632812 916.659179688 1253.48632812 855.177734375 1274.13574219 c 128,-1,27
 793.6953125 1294.78613281 793.6953125 1294.78613281 729.11328125 1301.46875 c 0,28,29
 544.651367188 1320.546875 544.651367188 1320.546875 487.654296875 1222.02246094 c 0,30,31
 466.608398438 1185.38671875 466.608398438 1185.38671875 468.92578125 1144.43945312 c 0,32,33
 475.65234375 1041.86035156 475.65234375 1041.86035156 580.791015625 968.872070312 c 0,34,35
 699.998046875 886.221679688 699.998046875 886.221679688 765.313476562 774.188476562 c 128,-1,36
 830.629882812 662.154296875 830.629882812 662.154296875 839.462890625 524.25 c 2,37,-1
 842.188476562 481.693359375 l 1,38,-1
 558.834960938 481.693359375 l 1,39,-1
 558.525390625 521.380859375 l 2,11,12
EndSplineSet
EndChar

StartChar: uni0621
Encoding: 1569 1569 11
Width: 905
VWidth: 2553
GlyphClass: 2
Flags: W
AnchorPoint: "Anchor-7" 511.143 -34.166 basechar 0
AnchorPoint: "Anchor-10" 363.188 1123.55 basechar 0
LayerCount: 2
Fore
SplineSet
372.234375 626.411132812 m 0,0,1
 338 594 338 594 338.30078125 538.846679688 c 0,2,3
 338 489 338 489 369.525390625 448.5234375 c 0,4,5
 424 378 424 378 559.720703125 395.09765625 c 0,6,7
 620 403 620 403 733.797851562 462.440429688 c 1,8,-1
 814 234 l 1,9,-1
 173 0 l 1,10,-1
 106.973632812 207.8359375 l 1,11,-1
 246.541015625 257.044921875 l 1,12,13
 92 346 92 346 92.8662109375 545.029296875 c 0,14,15
 93 742 93 742 251.177734375 841.967773438 c 0,16,17
 356 908 356 908 490.280273438 901.55859375 c 0,18,19
 576 898 576 898 678.30078125 854.096679688 c 1,20,-1
 678.30078125 623.629882812 l 1,21,22
 453 703 453 703 372.234375 626.411132812 c 0,0,1
EndSplineSet
EndChar

StartChar: uni0627
Encoding: 1575 1575 17
Width: 570
VWidth: 2593
GlyphClass: 2
Flags: W
AnchorPoint: "Anchor-10" 279.338 1475.41 basechar 0
AnchorPoint: "Anchor-7" 277.805 -247.859 basechar 0
LayerCount: 2
Fore
SplineSet
157.299804688 1387.72753906 m 1,0,-1
 412.393554688 1387.72753906 l 5,1,-1
 412.393554688 0.6943359375 l 1,2,-1
 157.299804688 0.6943359375 l 1,3,-1
 157.299804688 1387.72753906 l 1,0,-1
EndSplineSet
Substitution2: "'fina' Terminal Forms in Arabic lookup 9 subtable" uniFE8E
EndChar

StartChar: uni062D
Encoding: 1581 1581 23
Width: 1410
VWidth: 2553
GlyphClass: 2
Flags: W
AnchorPoint: "Anchor-10" 596.649 1382.91 basechar 0
AnchorPoint: "Anchor-7" 394.854 -853.488 basechar 0
LayerCount: 2
Fore
SplineSet
1135.88183594 306.041992188 m 1,0,1
 347.974609375 187.561523438 347.974609375 187.561523438 346.598632812 -158.33984375 c 0,2,3
 345.932617188 -325.814453125 345.932617188 -325.814453125 468.067382812 -409.193359375 c 128,-1,4
 590.202148438 -492.571289062 590.202148438 -492.571289062 855.43359375 -492.172851562 c 2,5,-1
 1309.33007812 -491.89453125 l 1,6,-1
 1309.33007812 -755.55859375 l 1,7,-1
 843.388671875 -754.58203125 l 2,8,9
 439.592773438 -753.9765625 439.592773438 -753.9765625 263.681640625 -585.651367188 c 128,-1,10
 87.7705078125 -417.326171875 87.7705078125 -417.326171875 91.1123046875 -175.166015625 c 0,11,12
 97.017578125 383.892578125 97.017578125 383.892578125 923.203125 519.7265625 c 1,13,-1
 758.169921875 596.186523438 l 2,14,15
 603.7109375 667.8828125 603.7109375 667.8828125 504.141601562 592.567382812 c 2,16,-1
 318.6875 452.288085938 l 1,17,-1
 149.193359375 642.698242188 l 1,18,-1
 326.234375 792.055664062 l 2,19,20
 460.375976562 904.974609375 460.375976562 904.974609375 611.848632812 905.236328125 c 0,21,22
 718.086914062 904.977539062 718.086914062 904.977539062 829.854492188 849.268554688 c 2,23,-1
 1150.87402344 689.258789062 l 2,24,25
 1305.91894531 611.765625 1305.91894531 611.765625 1306.26367188 506.504882812 c 2,26,-1
 1306.16992188 327.66015625 l 1,27,-1
 1269.80761719 324.357421875 l 2,28,29
 1192.72949219 317.35546875 1192.72949219 317.35546875 1135.88183594 306.041992188 c 1,0,1
EndSplineSet
Substitution2: "'fina' Terminal Forms in Arabic lookup 9 subtable" uniFEA2
Substitution2: "'medi' Medial Forms in Arabic lookup 11 subtable" uniFEA4
Substitution2: "'init' Initial Forms in Arabic lookup 13 subtable" uniFEA3
EndChar

StartChar: uni062F
Encoding: 1583 1583 25
Width: 1080
VWidth: 2593
GlyphClass: 2
Flags: W
AnchorPoint: "Anchor-10" 373.659 1340.16 basechar 0
AnchorPoint: "Anchor-7" 426.382 -262.53 basechar 0
LayerCount: 2
Fore
SplineSet
527.936523438 -1.0634765625 m 6,0,-1
 91.8994140625 -1.0615234375 l 5,1,-1
 91.8994140625 268.419921875 l 5,2,-1
 135.067382812 268.251953125 l 6,3,4
 507.80078125 266.799804688 507.80078125 266.799804688 597.166015625 274.764648438 c 132,-1,5
 686.532226562 282.728515625 686.532226562 282.728515625 708.065429688 306.092773438 c 132,-1,6
 729.599609375 329.45703125 729.599609375 329.45703125 709.788085938 382.705078125 c 132,-1,7
 689.9765625 435.953125 689.9765625 435.953125 535.916992188 613.930664062 c 6,8,-1
 329.881835938 851.9609375 l 5,9,-1
 501.083984375 1043.03222656 l 5,10,-1
 696.693359375 818.99609375 l 6,11,12
 731.09765625 779.591796875 731.09765625 779.591796875 813.141601562 685.681640625 c 132,-1,13
 895.185546875 591.771484375 895.185546875 591.771484375 900.46875 584.833007812 c 4,14,15
 1025.17773438 409.006835938 1025.17773438 409.006835938 966.930664062 231.090820312 c 4,16,17
 887.2734375 -1.80859375 887.2734375 -1.80859375 527.936523438 -1.0634765625 c 6,0,-1
EndSplineSet
Substitution2: "'fina' Terminal Forms in Arabic lookup 9 subtable" uniFEAA
EndChar

StartChar: uni0631
Encoding: 1585 1585 27
Width: 836
VWidth: 2593
GlyphClass: 2
Flags: W
AnchorPoint: "Anchor-10" 489.527 975.269 basechar 0
AnchorPoint: "Anchor-7" 372.998 -826.627 basechar 0
LayerCount: 2
Fore
SplineSet
163.110351562 -243.440429688 m 6,0,1
 479.382383447 -243.657695748 479.382383447 -243.657695748 479.3828125 22.53125 c 2,2,-1
 479.383789062 628.400390625 l 1,3,-1
 745.180664062 629.913085938 l 1,4,-1
 745.180664062 25.0263671875 l 2,5,6
 744.999948876 -507.15055052 744.999948876 -507.15055052 165.66015625 -510.411132812 c 6,7,-1
 20.9482421875 -511.225585938 l 5,8,-1
 20.953125 -243.342773438 l 5,9,-1
 163.110351562 -243.440429688 l 6,0,1
EndSplineSet
PairPos2: "'kern' Horizontal Kerning lookup 15-1" uniFEFB dx=-100 dy=0 dh=-100 dv=0 dx=0 dy=0 dh=0 dv=0
PairPos2: "'kern' Horizontal Kerning lookup 15-1" uniFEDF dx=-100 dy=0 dh=-100 dv=0 dx=0 dy=0 dh=0 dv=0
PairPos2: "'kern' Horizontal Kerning lookup 15-1" uni062F dx=-100 dy=0 dh=-100 dv=0 dx=0 dy=0 dh=0 dv=0
PairPos2: "'kern' Horizontal Kerning lookup 15-2" uniFB90 dx=-142 dy=0 dh=-142 dv=0 dx=0 dy=0 dh=0 dv=0
PairPos2: "'kern' Horizontal Kerning lookup 15-2" uniFB8E dx=-142 dy=0 dh=-142 dv=0 dx=0 dy=0 dh=0 dv=0
PairPos2: "'kern' Horizontal Kerning lookup 15-2" uni06A9 dx=-142 dy=0 dh=-142 dv=0 dx=0 dy=0 dh=0 dv=0
PairPos2: "'kern' Horizontal Kerning lookup 15-2" uniFEEB dx=-100 dy=0 dh=-100 dv=0 dx=0 dy=0 dh=0 dv=0
PairPos2: "'kern' Horizontal Kerning lookup 15-2" uni0647 dx=-100 dy=0 dh=-100 dv=0 dx=0 dy=0 dh=0 dv=0
PairPos2: "'kern' Horizontal Kerning lookup 15-2" uniFEE7 dx=-100 dy=0 dh=-100 dv=0 dx=0 dy=0 dh=0 dv=0
PairPos2: "'kern' Horizontal Kerning lookup 15-2" uniFEE3 dx=-100 dy=0 dh=-100 dv=0 dx=0 dy=0 dh=0 dv=0
PairPos2: "'kern' Horizontal Kerning lookup 15-2" uni0645 dx=-100 dy=0 dh=-100 dv=0 dx=0 dy=0 dh=0 dv=0
PairPos2: "'kern' Horizontal Kerning lookup 15-2" uniFEDB dx=-100 dy=0 dh=-100 dv=0 dx=0 dy=0 dh=0 dv=0
PairPos2: "'kern' Horizontal Kerning lookup 15-2" uni0643 dx=-100 dy=0 dh=-100 dv=0 dx=0 dy=0 dh=0 dv=0
PairPos2: "'kern' Horizontal Kerning lookup 15-2" uniFED7 dx=-100 dy=0 dh=-100 dv=0 dx=0 dy=0 dh=0 dv=0
PairPos2: "'kern' Horizontal Kerning lookup 15-2" uniFED3 dx=-100 dy=0 dh=-100 dv=0 dx=0 dy=0 dh=0 dv=0
PairPos2: "'kern' Horizontal Kerning lookup 15-2" uni0641 dx=-100 dy=0 dh=-100 dv=0 dx=0 dy=0 dh=0 dv=0
PairPos2: "'kern' Horizontal Kerning lookup 15-2" uniFECF dx=-100 dy=0 dh=-100 dv=0 dx=0 dy=0 dh=0 dv=0
PairPos2: "'kern' Horizontal Kerning lookup 15-2" uniFECB dx=-100 dy=0 dh=-100 dv=0 dx=0 dy=0 dh=0 dv=0
PairPos2: "'kern' Horizontal Kerning lookup 15-2" uniFEC7 dx=-100 dy=0 dh=-100 dv=0 dx=0 dy=0 dh=0 dv=0
PairPos2: "'kern' Horizontal Kerning lookup 15-2" uni0638 dx=-100 dy=0 dh=-100 dv=0 dx=0 dy=0 dh=0 dv=0
PairPos2: "'kern' Horizontal Kerning lookup 15-2" uniFEC3 dx=-100 dy=0 dh=-100 dv=0 dx=0 dy=0 dh=0 dv=0
PairPos2: "'kern' Horizontal Kerning lookup 15-2" uni0637 dx=-100 dy=0 dh=-100 dv=0 dx=0 dy=0 dh=0 dv=0
PairPos2: "'kern' Horizontal Kerning lookup 15-2" uniFEBF dx=-100 dy=0 dh=-100 dv=0 dx=0 dy=0 dh=0 dv=0
PairPos2: "'kern' Horizontal Kerning lookup 15-2" uni0636 dx=-100 dy=0 dh=-100 dv=0 dx=0 dy=0 dh=0 dv=0
PairPos2: "'kern' Horizontal Kerning lookup 15-2" uniFEBB dx=-100 dy=0 dh=-100 dv=0 dx=0 dy=0 dh=0 dv=0
PairPos2: "'kern' Horizontal Kerning lookup 15-2" uni0635 dx=-100 dy=0 dh=-100 dv=0 dx=0 dy=0 dh=0 dv=0
PairPos2: "'kern' Horizontal Kerning lookup 15-2" uniFEB7 dx=-100 dy=0 dh=-100 dv=0 dx=0 dy=0 dh=0 dv=0
PairPos2: "'kern' Horizontal Kerning lookup 15-2" uni0634 dx=-100 dy=0 dh=-100 dv=0 dx=0 dy=0 dh=0 dv=0
PairPos2: "'kern' Horizontal Kerning lookup 15-2" uniFEB3 dx=-100 dy=0 dh=-100 dv=0 dx=0 dy=0 dh=0 dv=0
PairPos2: "'kern' Horizontal Kerning lookup 15-2" uni0633 dx=-100 dy=0 dh=-100 dv=0 dx=0 dy=0 dh=0 dv=0
PairPos2: "'kern' Horizontal Kerning lookup 15-2" uniFEA7 dx=-100 dy=0 dh=-100 dv=0 dx=0 dy=0 dh=0 dv=0
PairPos2: "'kern' Horizontal Kerning lookup 15-2" uniFEA3 dx=-100 dy=0 dh=-100 dv=0 dx=0 dy=0 dh=0 dv=0
PairPos2: "'kern' Horizontal Kerning lookup 15-2" uniFE9F dx=-100 dy=0 dh=-100 dv=0 dx=0 dy=0 dh=0 dv=0
PairPos2: "'kern' Horizontal Kerning lookup 15-2" uniFE9B dx=-100 dy=0 dh=-100 dv=0 dx=0 dy=0 dh=0 dv=0
PairPos2: "'kern' Horizontal Kerning lookup 15-2" uni062B dx=-100 dy=0 dh=-100 dv=0 dx=0 dy=0 dh=0 dv=0
PairPos2: "'kern' Horizontal Kerning lookup 15-2" uniFE97 dx=-100 dy=0 dh=-100 dv=0 dx=0 dy=0 dh=0 dv=0
PairPos2: "'kern' Horizontal Kerning lookup 15-2" uni062A dx=-100 dy=0 dh=-100 dv=0 dx=0 dy=0 dh=0 dv=0
PairPos2: "'kern' Horizontal Kerning lookup 15-2" uni0629 dx=-100 dy=0 dh=-100 dv=0 dx=0 dy=0 dh=0 dv=0
PairPos2: "'kern' Horizontal Kerning lookup 15-2" uniFE91 dx=-47 dy=0 dh=-47 dv=0 dx=0 dy=0 dh=0 dv=0
PairPos2: "'kern' Horizontal Kerning lookup 15-2" uni0628 dx=-100 dy=0 dh=-100 dv=0 dx=0 dy=0 dh=0 dv=0
PairPos2: "'kern' Horizontal Kerning lookup 15-2" uni0627 dx=-100 dy=0 dh=-100 dv=0 dx=0 dy=0 dh=0 dv=0
PairPos2: "'kern' Horizontal Kerning lookup 15-2" uni0622 dx=-100 dy=0 dh=-100 dv=0 dx=0 dy=0 dh=0 dv=0
PairPos2: "'kern' Horizontal Kerning lookup 15-2" uni0621 dx=-100 dy=0 dh=-100 dv=0 dx=0 dy=0 dh=0 dv=0
PairPos2: "'kern' Horizontal Kerning lookup 15-2" uniFB94 dx=-142 dy=0 dh=-142 dv=0 dx=0 dy=0 dh=0 dv=0
PairPos2: "'kern' Horizontal Kerning lookup 15-2" uniFB92 dx=-142 dy=0 dh=-142 dv=0 dx=0 dy=0 dh=0 dv=0
PairPos2: "'kern' Horizontal Kerning lookup 15-2" afii57509 dx=-142 dy=0 dh=-142 dv=0 dx=0 dy=0 dh=0 dv=0
PairPos2: "'kern' Horizontal Kerning lookup 15-2" uniFB7C dx=-100 dy=0 dh=-100 dv=0 dx=0 dy=0 dh=0 dv=0
PairPos2: "'kern' Horizontal Kerning lookup 15-2" afii57506 dx=-100 dy=0 dh=-100 dv=0 dx=0 dy=0 dh=0 dv=0
PairPos2: "'kern' Horizontal Kerning lookup 15-2" afii57440 dx=-94 dy=0 dh=-94 dv=0 dx=0 dy=0 dh=0 dv=0
Substitution2: "'fina' Terminal Forms in Arabic lookup 9 subtable" uniFEAE
EndChar

StartChar: uni0633
Encoding: 1587 1587 29
Width: 2544
VWidth: 2593
GlyphClass: 2
Flags: W
AnchorPoint: "Anchor-10" 588.364 1027.96 basechar 0
AnchorPoint: "Anchor-7" 350.092 -601.765 basechar 0
LayerCount: 2
Fore
SplineSet
1400.04101562 64.7431640625 m 1,0,1
 1373 -434 1373 -434 770.025390625 -452.787109375 c 6,2,-1
 742.23828125 -452.787109375 l 2,3,4
 425 -453 425 -453 258.860351562 -317.3828125 c 0,5,6
 92.2655604172 -182.215463505 92.2655604172 -182.215463505 92.16015625 83.2607421875 c 2,7,-1
 91.984375 525.9921875 l 1,8,-1
 350.91796875 526.041015625 l 1,9,-1
 350.91796875 84.4580078125 l 2,10,11
 351.000150358 -183.490234375 351.000150358 -183.490234375 744.396484375 -183.490234375 c 2,12,-1
 769.2578125 -183.490234375 l 1,13,-1
 796.552734375 -182.91015625 l 2,14,15
 979 -179 979 -179 1062.09960938 -112.548828125 c 0,16,17
 1144.95459193 -46.0364516274 1144.95459193 -46.0364516274 1144.88574219 88.53515625 c 2,18,-1
 1144.55664062 731.787109375 l 1,19,-1
 1414.78808594 732.025390625 l 1,20,-1
 1415.48339844 422.245117188 l 2,21,22
 1416 260 1416 260 1581.92773438 257.5234375 c 0,23,24
 1692.19214431 255.997340658 1692.19214431 255.997340658 1691.69042969 436.658203125 c 2,25,-1
 1690.87011719 732.041992188 l 1,26,-1
 1944.83007812 732.041992188 l 1,27,-1
 1945.58886719 430.748046875 l 2,28,29
 1946 257 1946 257 2073.93164062 258.494140625 c 0,30,31
 2193.39550781 259.964736821 2193.39550781 259.964736821 2193.39550781 451.665039062 c 2,32,-1
 2193.39550781 773.979492188 l 1,33,-1
 2452.15234375 773.979492188 l 1,34,-1
 2452.15234375 457.6328125 l 2,35,36
 2452 82 2452 82 2191.60058594 13.015625 c 0,37,38
 2139 -1 2139 -1 2077.57714844 -1.06640625 c 0,39,40
 1897 -2 1897 -2 1812.453125 126.453125 c 1,41,42
 1734 -3 1734 -3 1583.27148438 -0.9970703125 c 0,43,44
 1457 0 1457 0 1400.04101562 64.7431640625 c 1,0,1
EndSplineSet
Substitution2: "'fina' Terminal Forms in Arabic lookup 9 subtable" uniFEB2
Substitution2: "'medi' Medial Forms in Arabic lookup 11 subtable" uniFEB4
Substitution2: "'init' Initial Forms in Arabic lookup 13 subtable" uniFEB3
EndChar

StartChar: uni0635
Encoding: 1589 1589 31
Width: 2566
VWidth: 2593
GlyphClass: 2
Flags: W
AnchorPoint: "Anchor-10" 662.495 1067.96 basechar 0
AnchorPoint: "Anchor-7" 369.07 -550.58 basechar 0
LayerCount: 2
Fore
SplineSet
2187.26660156 530.83203125 m 0,0,1
 2143 594 2143 594 2056.79296875 593.598632812 c 0,2,3
 1875 594 1875 594 1718.53710938 281.52734375 c 1,4,-1
 2013.19921875 281.52734375 l 2,5,6
 2223 282 2223 282 2223 403.149414062 c 0,7,8
 2223 480 2223 480 2187.26660156 530.83203125 c 0,0,1
1401.75292969 55.2314453125 m 1,9,10
 1384 -434 1384 -434 770.985351562 -452.787109375 c 2,11,-1
 743.1875 -452.787109375 l 2,12,13
 93.283203125 -453.223632812 93.283203125 -453.223632812 93.12109375 83.2646484375 c 2,14,-1
 92.98828125 525.9921875 l 1,15,-1
 351.877929688 526.041015625 l 1,16,-1
 351.877929688 84.44921875 l 2,17,18
 352.083984375 -183.490234375 352.083984375 -183.490234375 745.37890625 -183.490234375 c 2,19,-1
 770.217773438 -183.490234375 l 1,20,-1
 797.514648438 -182.91015625 l 2,21,22
 1146.00097656 -175.443359375 1146.00097656 -175.443359375 1145.84570312 88.5341796875 c 2,23,-1
 1145.47363281 724.797851562 l 1,24,-1
 1406.92675781 724.931640625 l 1,25,-1
 1407.0390625 516.625 l 2,26,27
 1407 371 1407 371 1460.07128906 328.439453125 c 1,28,29
 1699 849 1699 849 2055.5 849 c 0,30,31
 2260 849 2260 849 2378.9140625 692.021484375 c 0,32,33
 2472 568 2472 568 2472.56445312 398.076171875 c 0,34,35
 2473 148 2473 148 2291 41 c 0,36,37
 2222.49707031 0.2958984375 2222.49707031 0.2958984375 1993.26074219 0.1845703125 c 2,38,-1
 1612.32421875 0 l 2,39,40
 1483 0 1483 0 1401.75292969 55.2314453125 c 1,9,10
EndSplineSet
Substitution2: "'fina' Terminal Forms in Arabic lookup 9 subtable" uniFEBA
Substitution2: "'medi' Medial Forms in Arabic lookup 11 subtable" uniFEBC
Substitution2: "'init' Initial Forms in Arabic lookup 13 subtable" uniFEBB
EndChar

StartChar: uni0637
Encoding: 1591 1591 33
Width: 1357
VWidth: 2553
GlyphClass: 2
Flags: W
AnchorPoint: "Anchor-10" 427.723 1502.59 basechar 0
AnchorPoint: "Anchor-7" 695.688 -237.098 basechar 0
LayerCount: 2
Fore
SplineSet
1014.67578125 409 m 0,0,1
 1015 515 1015 515 951.87890625 562.509765625 c 0,2,3
 913 592 913 592 848.120117188 592.0078125 c 0,4,5
 666 592 666 592 510.212890625 281.52734375 c 1,6,-1
 804.875 281.52734375 l 2,7,8
 1015 282 1015 282 1014.67578125 409 c 0,0,1
315.905273438 461.98828125 m 1,9,-1
 315.905273438 1388.64355469 l 1,10,-1
 571 1388.64355469 l 5,11,-1
 571 759.43359375 l 1,12,13
 694 849 694 849 839.17578125 849 c 0,14,15
 1055 849 1055 849 1171.62207031 693.979492188 c 0,16,17
 1264 571 1264 571 1264.53125 388.173828125 c 0,18,19
 1265 205 1265 205 1138.86425781 102.63671875 c 0,20,21
 1013.30371094 0.2470703125 1013.30371094 0.2470703125 784.966796875 0.1845703125 c 2,22,-1
 91.7705078125 -0.005859375 l 1,23,-1
 91.7705078125 269.266601562 l 1,24,-1
 225.125976562 269.045898438 l 1,25,26
 255 345 255 345 315.905273438 461.98828125 c 1,9,-1
EndSplineSet
Substitution2: "'fina' Terminal Forms in Arabic lookup 9 subtable" uniFEC2
Substitution2: "'medi' Medial Forms in Arabic lookup 11 subtable" uniFEC4
Substitution2: "'init' Initial Forms in Arabic lookup 13 subtable" uniFEC3
EndChar

StartChar: uni0639
Encoding: 1593 1593 35
Width: 1342
VWidth: 2553
GlyphClass: 2
Flags: W
AnchorPoint: "Anchor-10" 747.349 1495.99 basechar 0
AnchorPoint: "Anchor-7" 372.438 -831.494 basechar 0
LayerCount: 2
Fore
SplineSet
1248.28515625 -749.077148438 m 1,0,-1
 841.399414062 -748.098632812 l 2,1,2
 483 -747 483 -747 298.000976562 -608.719726562 c 0,3,4
 92 -454 92 -454 92.8046875 -169.63671875 c 0,5,6
 94 191 94 191 459.991210938 373.283203125 c 1,7,8
 404 408 404 408 363.982421875 462.11328125 c 0,9,10
 259 602 259 602 300.704101562 783.711914062 c 0,11,12
 356 1026 356 1026 598.95703125 1081.35351562 c 0,13,14
 842.847812505 1135.96592194 842.847812505 1135.96592194 1076.2421875 1015.95800781 c 2,15,-1
 1105.08789062 1001.12597656 l 1,16,-1
 1042.5 772.18359375 l 1,17,-1
 1001.08984375 788.3515625 l 2,18,19
 766 880 766 880 624.405273438 812.690429688 c 0,20,21
 546 775 546 775 544.997070312 678.547851562 c 0,22,23
 544 563 544 563 660.471679688 511.814453125 c 4,24,25
 701 494 701 494 758.904296875 483.130859375 c 5,26,-1
 1171.87695312 513.380859375 l 1,27,-1
 1171.64355469 252.525390625 l 1,28,-1
 1132.51171875 251.709960938 l 2,29,30
 725 243 725 243 524.618164062 122.72265625 c 0,31,32
 345 15 345 15 346.930664062 -174.397460938 c 0,33,34
 348 -330 348 -330 466 -408.56640625 c 0,35,36
 583.807498384 -486.872045817 583.807498384 -486.872045817 837.659179688 -487.5 c 2,37,-1
 1249.80664062 -488.51953125 l 1,38,-1
 1248.28515625 -749.077148438 l 1,0,-1
EndSplineSet
Substitution2: "'fina' Terminal Forms in Arabic lookup 9 subtable" uniFECA
Substitution2: "'medi' Medial Forms in Arabic lookup 11 subtable" uniFECC
Substitution2: "'init' Initial Forms in Arabic lookup 13 subtable" uniFECB
EndChar

StartChar: afii57440
Encoding: 1600 1600 37
Width: 763
VWidth: 2593
GlyphClass: 2
Flags: W
AnchorPoint: "Anchor-10" 381.758 1531.26 basechar 0
AnchorPoint: "Anchor-7" 381.758 -101.351 basechar 0
LayerCount: 2
Fore
SplineSet
-9.0234375 -0.0966796875 m 5,0,-1
 -9.0234375 269.198242188 l 5,1,-1
 770.598632812 269.198242188 l 1,2,-1
 770.598632812 -0.0966796875 l 1,3,-1
 -9.0234375 -0.0966796875 l 5,0,-1
EndSplineSet
EndChar

StartChar: uni0643
Encoding: 1603 1603 40
Width: 1958
VWidth: 2593
GlyphClass: 2
Flags: W
AnchorPoint: "Anchor-10" 638.194 1591.14 basechar 0
AnchorPoint: "Anchor-7" 468.008 -249.033 basechar 0
LayerCount: 2
Fore
SplineSet
749.515625 813.330078125 m 6,0,1
 811.712890625 805.491210938 811.712890625 805.491210938 873.82421875 805.491210938 c 4,2,3
 930.9453125 805.491210938 930.9453125 805.491210938 979.538085938 824.377929688 c 4,4,5
 1038.05957031 847.123046875 1038.05957031 847.123046875 1038.05957031 871.939453125 c 4,6,7
 1038.05957031 875.459960938 1038.05957031 875.459960938 1036.52734375 878.637695312 c 132,-1,8
 1034.99609375 881.815429688 1034.99609375 881.815429688 1020.95800781 888.348632812 c 132,-1,9
 1006.91992188 894.880859375 1006.91992188 894.880859375 980.92578125 898.993164062 c 4,10,11
 929.416992188 907.142578125 929.416992188 907.142578125 890.890625 925.810546875 c 132,-1,12
 852.365234375 944.478515625 852.365234375 944.478515625 828.447265625 975.76171875 c 4,13,14
 761.083984375 1063.86523438 761.083984375 1063.86523438 791.875 1160.64257812 c 4,15,16
 806.318359375 1206.04101562 806.318359375 1206.04101562 836.881835938 1241.04394531 c 132,-1,17
 867.4453125 1276.046875 867.4453125 1276.046875 912.303710938 1299.65136719 c 132,-1,18
 957.163085938 1323.25585938 957.163085938 1323.25585938 1013.34960938 1337.21582031 c 132,-1,19
 1069.53613281 1351.17578125 1069.53613281 1351.17578125 1138.48144531 1356.29980469 c 6,20,-1
 1210.71484375 1361.66699219 l 5,21,-1
 1210.71484375 1181.28027344 l 5,22,-1
 1148.91796875 1176.25292969 l 6,23,24
 1075.63085938 1170.29199219 1075.63085938 1170.29199219 1030.63378906 1153.76953125 c 132,-1,25
 985.637695312 1137.24707031 985.637695312 1137.24707031 969.873046875 1116.46582031 c 4,26,27
 969.592773438 1110.79589844 969.592773438 1110.79589844 969.592773438 1103.37695312 c 4,28,29
 969.592773438 1092.078125 969.592773438 1092.078125 974.108398438 1086.54882812 c 132,-1,30
 978.624023438 1081.01953125 978.624023438 1081.01953125 995.782226562 1075.49902344 c 4,31,32
 1020.47265625 1067.55566406 1020.47265625 1067.55566406 1068.60058594 1060.4765625 c 4,33,34
 1132.7578125 1051.04003906 1132.7578125 1051.04003906 1175.72753906 1009.41601562 c 4,35,36
 1221.609375 964.971679688 1221.609375 964.971679688 1221.609375 890.932617188 c 4,37,38
 1221.609375 868.862304688 1221.609375 868.862304688 1218.57519531 848.982421875 c 132,-1,39
 1215.54101562 829.102539062 1215.54101562 829.102539062 1208.91601562 810.352539062 c 132,-1,40
 1202.29003906 791.602539062 1202.29003906 791.602539062 1192.16210938 775.510742188 c 4,41,42
 1065.44335938 574.1875 1065.44335938 574.1875 730.719726562 626.505859375 c 6,43,-1
 673.857421875 635.396484375 l 5,44,-1
 673.857421875 822.864257812 l 5,45,-1
 749.515625 813.330078125 l 6,0,1
1412.83398438 268.23046875 m 2,46,47
 1493.17480469 268.23046875 1493.17480469 268.23046875 1531.95507812 319.270507812 c 0,48,49
 1570.41601562 370.5390625 1570.41601562 370.5390625 1570.41601562 490.396484375 c 2,50,-1
 1570.41601562 1387.18847656 l 1,51,-1
 1829.17382812 1387.18847656 l 1,52,-1
 1829.17382812 517.391601562 l 2,53,54
 1829 267 1829 267 1721.89941406 132.80078125 c 0,55,56
 1614.94726562 -1.06640625 1614.94726562 -1.06640625 1405.62988281 -1.06640625 c 2,57,-1
 503.944335938 -1.06640625 l 2,58,59
 302 -1 302 -1 196.840820312 123.497070312 c 0,60,61
 92.150390625 247.821289062 92.150390625 247.821289062 92.1494140625 481.006835938 c 2,62,-1
 92.1484375 733.75 l 1,63,-1
 350.904296875 733.75 l 1,64,-1
 350.904296875 491.5703125 l 2,65,66
 351 371 351 371 389.3984375 319.485351562 c 0,67,68
 427.827148438 268.23046875 427.827148438 268.23046875 508.470703125 268.23046875 c 2,69,-1
 1412.83398438 268.23046875 l 2,46,47
EndSplineSet
Substitution2: "'fina' Terminal Forms in Arabic lookup 9 subtable" uniFEDA
Substitution2: "'medi' Medial Forms in Arabic lookup 11 subtable" uniFEDC
Substitution2: "'init' Initial Forms in Arabic lookup 13 subtable" uniFEDB
EndChar

StartChar: uni0644
Encoding: 1604 1604 41
Width: 1457
VWidth: 2553
GlyphClass: 2
Flags: W
AnchorPoint: "Anchor-10" 510.625 1329.69 basechar 0
AnchorPoint: "Anchor-7" 395.231 -610.937 basechar 0
LayerCount: 2
Fore
SplineSet
349.877929688 84.44921875 m 6,0,1
 349.877929688 -217.528320312 349.877929688 -217.528320312 696.356445312 -217.528320312 c 6,2,-1
 721.217773438 -217.528320312 l 5,3,-1
 748.494140625 -216.948242188 l 6,4,5
 1069.14180663 -209.996925776 1069.14180663 -209.996925776 1072.36914062 77.9697265625 c 6,6,-1
 1073.01757812 135.828125 l 6,7,8
 1072.37695312 136.565888916 1072.37695312 136.565888916 1072.37695312 473.754882812 c 6,9,-1
 1072.37695312 1387.63671875 l 5,10,-1
 1326.29882812 1387.63671875 l 5,11,-1
 1326.29882812 473.743164062 l 5,12,-1
 1325.91210938 140.083984375 l 5,13,-1
 1325.25195312 72.4990234375 l 6,14,15
 1320.00451706 -468.53427156 1320.00451706 -468.53427156 741.654296875 -486.223632812 c 6,16,-1
 721.986328125 -486.825195312 l 5,17,-1
 694.19921875 -486.825195312 l 6,18,19
 91.2921656976 -486.999915332 91.2921656976 -486.999915332 91.12109375 83.2646484375 c 6,20,-1
 90.98828125 525.9921875 l 5,21,-1
 349.877929688 526.041015625 l 5,22,-1
 349.877929688 84.44921875 l 6,0,1
EndSplineSet
Substitution2: "'fina' Terminal Forms in Arabic lookup 9 subtable" uniFEDE
Substitution2: "'medi' Medial Forms in Arabic lookup 11 subtable" uniFEE0
Substitution2: "'init' Initial Forms in Arabic lookup 13 subtable" uniFEDF
EndChar

StartChar: uni0645
Encoding: 1605 1605 42
Width: 1365
VWidth: 2593
GlyphClass: 2
Flags: W
AnchorPoint: "Anchor-10" 676.137 1292.98 basechar 0
AnchorPoint: "Anchor-7" 175.119 -697.918 basechar 0
LayerCount: 2
Fore
SplineSet
990.1875 549.360351562 m 128,-1,1
 956.40234375 579.115234375 956.40234375 579.115234375 874.181640625 579.0625 c 128,-1,2
 791.961914062 579.009765625 791.961914062 579.009765625 757.018554688 574.709960938 c 1,3,4
 751.83203125 536.506835938 751.83203125 536.506835938 751.83203125 418.4921875 c 128,-1,5
 751.83203125 300.478515625 751.83203125 300.478515625 789.698242188 261.684570312 c 128,-1,6
 827.564453125 222.890625 827.564453125 222.890625 899.740234375 222.890625 c 0,7,8
 909.83203125 222.890625 909.83203125 222.890625 920.649414062 223.673828125 c 0,9,10
 1023.97265625 230.961914062 1023.97265625 230.961914062 1023.97265625 451.822265625 c 0,11,0
 1023.97265625 519.60546875 1023.97265625 519.60546875 990.1875 549.360351562 c 128,-1,1
969.3828125 824.5390625 m 1,12,13
 1121.36816406 823.0703125 1121.36816406 823.0703125 1198.48730469 720.3828125 c 128,-1,14
 1275.60644531 617.694335938 1275.60644531 617.694335938 1274.04785156 431.860351562 c 0,15,16
 1273.49023438 144.041992188 1273.49023438 144.041992188 1105.32519531 33.8876953125 c 0,17,18
 1019.01074219 -22.4912109375 1019.01074219 -22.4912109375 870.08203125 -15.72265625 c 128,-1,19
 721.154296875 -8.9541015625 721.154296875 -8.9541015625 624.784179688 82.43359375 c 0,20,21
 491.66015625 205.495117188 491.66015625 205.495117188 499.909179688 466.51953125 c 0,22,23
 501.20703125 511.392578125 501.20703125 511.392578125 502.869140625 544.848632812 c 1,24,25
 346.010742188 495.493164062 346.010742188 495.493164062 346.010742188 201.032226562 c 2,26,-1
 346.010742188 -496.416992188 l 1,27,-1
 91.94921875 -496.416992188 l 1,28,-1
 91.9541015625 199.657226562 l 2,29,30
 92.921875 578.525390625 92.921875 578.525390625 286.840820312 732.041015625 c 0,31,32
 385.000976562 809.75 385.000976562 809.75 532.25 824.525390625 c 1,33,-1
 969.3828125 824.5390625 l 1,12,13
EndSplineSet
Substitution2: "'init' Initial Forms in Arabic lookup 13 subtable" uniFEE3
Substitution2: "'medi' Medial Forms in Arabic lookup 11 subtable" uniFEE4
Substitution2: "'fina' Terminal Forms in Arabic lookup 9 subtable" uniFEE2
EndChar

StartChar: uni0647
Encoding: 1607 1607 44
Width: 959
VWidth: 2330
GlyphClass: 2
Flags: W
AnchorPoint: "Anchor-10" 499.842 1270.09 basechar 0
AnchorPoint: "Anchor-7" 392.011 -218.527 basechar 0
LayerCount: 2
Fore
SplineSet
475.583007812 587.8046875 m 1,0,1
 335.9296875 439.5859375 335.9296875 439.5859375 335.681640625 350.4609375 c 0,2,3
 335.795898438 303.043945312 335.795898438 303.043945312 366.845703125 280.544921875 c 128,-1,4
 397.896484375 258.045898438 397.896484375 258.045898438 480.391601562 258.045898438 c 128,-1,5
 562.88671875 258.045898438 562.88671875 258.045898438 594.954101562 279.856445312 c 128,-1,6
 627.021484375 301.66796875 627.021484375 301.66796875 627.020507812 344.012695312 c 0,7,8
 627.020507812 435.28515625 627.020507812 435.28515625 475.583007812 587.8046875 c 1,0,1
491.127929688 3.7353515625 m 0,9,10
 234 0 234 0 134.581054688 157.268554688 c 0,11,12
 91 226 91 226 91.1376953125 314.641601562 c 0,13,14
 91 516 91 516 303.453125 756.71484375 c 1,15,-1
 266.404296875 790.96875 l 1,16,-1
 424.288085938 965.206054688 l 5,17,18
 868 605 868 605 867.30078125 307.8515625 c 4,19,20
 867 153 867 153 730.96875 59.517578125 c 0,21,22
 654 6 654 6 491.127929688 3.7353515625 c 0,9,10
EndSplineSet
Substitution2: "'fina' Terminal Forms in Arabic lookup 9 subtable" uniFEEA
Substitution2: "'medi' Medial Forms in Arabic lookup 11 subtable" uniFEEC
Substitution2: "'init' Initial Forms in Arabic lookup 13 subtable" uniFEEB
EndChar

StartChar: uni0648
Encoding: 1608 1608 45
Width: 938
VWidth: 2593
GlyphClass: 2
Flags: W
AnchorPoint: "Anchor-10" 393.019 1245.88 basechar 0
AnchorPoint: "Anchor-7" 396.433 -677.366 basechar 0
LayerCount: 2
Fore
SplineSet
593.887695312 320.314453125 m 0,0,1
 594 507 594 507 532.646484375 537.76953125 c 0,2,3
 485 562 485 562 418.616210938 548.306640625 c 0,4,5
 329 530 329 530 332.708007812 386.791015625 c 0,6,7
 334 337 334 337 352 313 c 0,8,9
 403 246 403 246 592.57421875 267.271484375 c 1,10,11
 594 296 594 296 593.887695312 320.314453125 c 0,0,1
845.577148438 28.5380859375 m 2,12,13
 845.577148438 -513.209880508 845.577148438 -513.209880508 247.809570312 -512.362304688 c 6,14,-1
 119.015625 -512.1796875 l 5,15,-1
 118.870117188 -244.166992188 l 5,16,-1
 258.87109375 -244.265625 l 6,17,18
 580 -244 580 -244 579.778320312 -2.2744140625 c 1,19,20
 552 -4 552 -4 465.955078125 -3.6669921875 c 0,21,22
 284 -4 284 -4 187.795898438 98.0546875 c 0,23,24
 92 200 92 200 91.642578125 373.398925781 c 0,25,26
 92 674 92 674 285.307617188 770.797851562 c 0,27,28
 364.374966631 810.186796956 364.374966631 810.186796956 465.609375 810.184570312 c 2,29,-1
 487.809082031 810.184082031 l 2,30,31
 640 810 640 810 742.666730265 692.688307136 c 0,32,33
 847.897553868 573.116407704 847.897553868 573.116407704 846.948242188 353.170898438 c 2,34,-1
 845.577148438 35.5029296875 l 1,35,-1
 845.577148438 28.5380859375 l 2,12,13
EndSplineSet
Substitution2: "'fina' Terminal Forms in Arabic lookup 9 subtable" uniFEEE
EndChar

StartChar: uni0649
Encoding: 1609 1609 46
Width: 1557
VWidth: 2593
GlyphClass: 2
Flags: W
AnchorPoint: "Anchor-10" 485.637 1268.75 basechar 0
AnchorPoint: "Anchor-7" 326.837 -646.501 basechar 0
LayerCount: 2
Fore
SplineSet
1201.77441406 343.370117188 m 2,0,1
 1327.62402344 343.370117188 1327.62402344 343.370117188 1396.87597656 275.122070312 c 128,-1,2
 1466.12792969 206.874023438 1466.12792969 206.874023438 1466.12792969 81.36328125 c 2,3,-1
 1466.12792969 51.939453125 l 2,4,5
 1465.73676009 -275.048467575 1465.73676009 -275.048467575 1244.98339844 -414.490234375 c 0,6,7
 1100.19998084 -506.225556857 1100.19998084 -506.225556857 866.844726562 -508.690429688 c 2,8,-1
 811.088867188 -509.279296875 l 1,9,-1
 731.922851562 -509.279296875 l 2,10,11
 91.6340532282 -508.746940533 91.6340532282 -508.746940533 91.267578125 96.0087890625 c 2,12,-1
 90.9755859375 579 l 1,13,-1
 350.022460938 579 l 1,14,-1
 350.022460938 97.2041015625 l 2,15,16
 350 -76 350 -76 442.491699219 -157.992675781 c 128,-1,17
 534.983398438 -239.985351562 534.983398438 -239.985351562 734.112304688 -239.982421875 c 2,18,-1
 810.844726562 -239.981445312 l 1,19,-1
 874.658203125 -239.396484375 l 2,20,21
 1050 -238 1050 -238 1129.859375 -171.117675781 c 128,-1,22
 1209.71875 -104.235351562 1209.71875 -104.235351562 1209.71875 34.416015625 c 2,23,-1
 1209.71875 46.2236328125 l 2,24,25
 1210 71 1210 71 1203.46777344 77.5341796875 c 128,-1,26
 1196.93554688 84.068359375 1196.93554688 84.068359375 1171.16601562 84.1484375 c 2,27,-1
 979.884765625 84.7412109375 l 2,28,29
 844.133087071 85.2664583432 844.133087071 85.2664583432 792.280273438 179.978515625 c 0,30,31
 766.765625 227.435546875 766.765625 227.435546875 766.765625 291.583007812 c 2,32,-1
 766.765625 357.397460938 l 2,33,34
 767.244351334 691.566394248 767.244351334 691.566394248 974.760742188 810.436523438 c 0,35,36
 1077.6875 869.819335938 1077.6875 869.819335938 1229.50390625 869.901367188 c 2,37,-1
 1464.81152344 870.028320312 l 1,38,-1
 1466.08007812 600.604492188 l 1,39,-1
 1188.2421875 600.604492188 l 2,40,41
 1108 601 1108 601 1068.00537109 546.006835938 c 128,-1,42
 1028.01023384 491.012972894 1028.01023384 491.012972894 1025.12695312 343.370117188 c 1,43,-1
 1201.77441406 343.370117188 l 2,0,1
EndSplineSet
Substitution2: "'fina' Terminal Forms in Arabic lookup 9 subtable" uniFEF0
Substitution2: "'medi' Medial Forms in Arabic lookup 11 subtable" uniFBE9
Substitution2: "'init' Initial Forms in Arabic lookup 13 subtable" uniFBE8
EndChar

StartChar: uni064B
Encoding: 1611 1611 48
Width: 0
VWidth: 2186
GlyphClass: 4
Flags: W
AnchorPoint: "Anchor-10" 547.84 1041.5 mark 0
AnchorPoint: "Anchor-9" 547.84 1041.5 mark 0
AnchorPoint: "Anchor-1" 547.84 1576.5 basemark 0
AnchorPoint: "Anchor-1" 547.84 1041.5 mark 0
LayerCount: 2
Fore
SplineSet
286 993 m 5,0,-1
 286 1120.0703125 l 5,1,-1
 780 1322.0703125 l 5,2,-1
 780 1195 l 5,3,-1
 286 993 l 5,0,-1
286 1252 m 5,4,-1
 286 1379.0703125 l 5,5,-1
 780 1581.0703125 l 5,6,-1
 780 1454 l 5,7,-1
 286 1252 l 5,4,-1
EndSplineSet
EndChar

StartChar: uni064C
Encoding: 1612 1612 49
Width: 0
VWidth: 2186
GlyphClass: 4
Flags: W
AnchorPoint: "Anchor-10" 554.386 1155.44 mark 0
AnchorPoint: "Anchor-9" 554.386 1155.44 mark 0
AnchorPoint: "Anchor-1" 546.386 1810.94 basemark 0
AnchorPoint: "Anchor-1" 554.386 1155.44 mark 0
LayerCount: 2
Fore
SplineSet
567.219 1298.72 m 0,0,1
 608.391 1338.78 608.391 1338.78 631.845 1385.69 c 2,2,-1
 639.364 1400.73 l 1,3,-1
 622.913 1404.22 l 2,4,5
 589.558 1411.29 589.558 1411.29 566.532 1424.31 c 0,6,7
 457.736 1481.73 457.736 1481.73 457.736 1574.47 c 0,8,9
 457.736 1661.08 457.736 1661.08 526.365 1712.8 c 0,10,11
 552.86 1732.67 552.86 1732.67 615.937 1732.67 c 0,12,13
 688.759 1732.67 688.759 1732.67 727.738 1694.66 c 0,14,15
 782.696 1640.71 782.696 1640.71 782.696 1561.63 c 0,16,17
 782.696 1521.9 782.696 1521.9 770.46 1483.15 c 2,18,-1
 765.402 1467.14 l 1,19,-1
 782.175 1466.26 l 2,20,21
 802.247 1465.2 802.247 1465.2 817.806 1465.17 c 0,22,23
 831.205 1464.45 831.205 1464.45 845.826 1464.2 c 1,24,-1
 845.826 1372.44 l 1,25,26
 806.232 1372.69 806.232 1372.69 788.381 1374.48 c 2,27,-1
 723.27 1380.74 l 1,28,-1
 719.537 1371.99 l 2,29,30
 692.652 1308.91 692.652 1308.91 614.12 1227.24 c 1,31,32
 527.043 1139.14 527.043 1139.14 431.896 1139.14 c 0,33,34
 319.02 1139.14 319.02 1139.14 262.205 1295.39 c 0,35,36
 247.89 1334.51 247.89 1334.51 246.994 1442.7 c 1,37,-1
 317.299 1442.7 l 1,38,39
 318.143 1347.11 318.143 1347.11 331.307 1318.59 c 0,40,41
 372.26 1230.84 372.26 1230.84 431.896 1230.84 c 0,42,43
 497.076 1230.84 497.076 1230.84 567.219 1298.72 c 0,0,1
669.292 1482.64 m 1,44,-1
 680.316 1508.36 l 2,45,46
 690.996 1533.28 690.996 1533.28 690.996 1561.63 c 0,47,48
 690.996 1604.15 690.996 1604.15 668.07 1623.02 c 0,49,50
 646.28 1640.97 646.28 1640.97 620.217 1640.97 c 0,51,52
 591.787 1640.97 591.787 1640.97 575.875 1628.63 c 0,53,54
 551.576 1610.34 551.576 1610.34 551.576 1574.47 c 0,55,56
 551.576 1526.08 551.576 1526.08 607.898 1503.55 c 0,57,58
 629.803 1494.79 629.803 1494.79 658.123 1486.08 c 2,59,-1
 669.292 1482.64 l 1,44,-1
EndSplineSet
EndChar

StartChar: uni064D
Encoding: 1613 1613 50
Width: 0
VWidth: 2186
GlyphClass: 4
Flags: W
AnchorPoint: "Anchor-7" 531.84 75.5 mark 0
AnchorPoint: "Anchor-6" 531.84 75.5 mark 0
AnchorPoint: "Anchor-0" 547.84 -439.5 basemark 0
AnchorPoint: "Anchor-0" 531.84 75.5 mark 0
LayerCount: 2
Fore
SplineSet
291 -497 m 5,0,-1
 291 -369.9296875 l 5,1,-1
 785 -167.9296875 l 5,2,-1
 785 -295 l 5,3,-1
 291 -497 l 5,0,-1
291 -238 m 5,4,-1
 291 -110.9296875 l 5,5,-1
 785 91.0703125 l 5,6,-1
 785 -36 l 5,7,-1
 291 -238 l 5,4,-1
EndSplineSet
EndChar

StartChar: uni064E
Encoding: 1614 1614 51
Width: 0
VWidth: 2186
GlyphClass: 4
Flags: W
AnchorPoint: "Anchor-10" 517.84 1279.5 mark 0
AnchorPoint: "Anchor-9" 517.84 1279.5 mark 0
AnchorPoint: "Anchor-1" 517.84 1600.5 basemark 0
AnchorPoint: "Anchor-1" 517.84 1279.5 mark 0
LayerCount: 2
Fore
SplineSet
257 1251 m 5,0,-1
 257 1378.0703125 l 5,1,-1
 751 1580.0703125 l 5,2,-1
 751 1453 l 5,3,-1
 257 1251 l 5,0,-1
EndSplineSet
EndChar

StartChar: uni064F
Encoding: 1615 1615 52
Width: 0
VWidth: 2186
GlyphClass: 4
Flags: W
AnchorPoint: "Anchor-10" 531.84 1205.5 mark 0
AnchorPoint: "Anchor-9" 531.84 1205.5 mark 0
AnchorPoint: "Anchor-1" 547.84 1825 basemark 0
AnchorPoint: "Anchor-1" 531.84 1205.5 mark 0
LayerCount: 2
Fore
SplineSet
594.529 1426.81 m 6,0,1
 586.598 1428.57 586.598 1428.57 567.734 1438.5 c 4,2,3
 459.19 1494.78 459.19 1494.78 459.19 1588.53 c 4,4,5
 459.19 1675.14 459.19 1675.14 527.819 1726.86 c 4,6,7
 554.314 1746.73 554.314 1746.73 617.39 1746.73 c 4,8,9
 690.212 1746.73 690.212 1746.73 729.192 1708.72 c 4,10,11
 784.15 1654.77 784.15 1654.77 784.15 1575.69 c 4,12,13
 784.15 1543.43 784.15 1543.43 769.757 1497.16 c 6,14,-1
 764.821 1481.3 l 5,15,-1
 781.407 1480.32 l 6,16,17
 799.81 1479.24 799.81 1479.24 819.259 1478.7 c 4,18,19
 832.229 1478.34 832.229 1478.34 847.28 1478.21 c 5,20,-1
 847.28 1386.53 l 5,21,22
 817.029 1386.85 817.029 1386.85 789.455 1388.57 c 4,23,24
 757.6 1390.7 757.6 1390.7 727.915 1393.88 c 6,25,-1
 720.312 1394.69 l 5,26,-1
 715.905 1388.44 l 6,27,28
 671.45 1325.37 671.45 1325.37 599.88 1281.81 c 4,29,30
 398.294 1157.85 398.294 1157.85 248.4 1152.36 c 5,31,-1
 248.4 1244.01 l 5,32,33
 408.671 1248.65 408.671 1248.65 554.781 1363.22 c 4,34,35
 580.142 1383.07 580.142 1383.07 601.135 1405.16 c 6,36,-1
 616.962 1421.83 l 5,37,-1
 594.529 1426.81 l 6,0,1
670.746 1496.7 m 5,38,-1
 681.77 1522.42 l 6,39,40
 692.45 1547.34 692.45 1547.34 692.45 1575.69 c 4,41,42
 692.45 1618.21 692.45 1618.21 669.524 1637.08 c 4,43,44
 647.734 1655.03 647.734 1655.03 621.67 1655.03 c 4,45,46
 593.241 1655.03 593.241 1655.03 577.329 1642.69 c 4,47,48
 553.03 1624.4 553.03 1624.4 553.03 1588.53 c 4,49,50
 553.03 1540.14 553.03 1540.14 609.352 1517.61 c 4,51,52
 631.256 1508.85 631.256 1508.85 659.577 1500.14 c 6,53,-1
 670.746 1496.7 l 5,38,-1
EndSplineSet
EndChar

StartChar: uni0650
Encoding: 1616 1616 53
Width: 0
VWidth: 2186
GlyphClass: 4
Flags: W
AnchorPoint: "Anchor-7" 509.84 -12.5 mark 0
AnchorPoint: "Anchor-6" 509.84 -12.5 mark 0
AnchorPoint: "Anchor-0" 556.84 -311.5 basemark 0
AnchorPoint: "Anchor-0" 509.84 -12.5 mark 0
LayerCount: 2
Fore
SplineSet
301 -343 m 1,0,-1
 301 -215.9296875 l 1,1,-1
 795 -13.9296875 l 1,2,-1
 795 -141 l 1,3,-1
 301 -343 l 1,0,-1
EndSplineSet
EndChar

StartChar: uni0651
Encoding: 1617 1617 54
Width: 0
VWidth: 2186
GlyphClass: 4
Flags: W
AnchorPoint: "Anchor-10" 547.84 1316.5 mark 0
AnchorPoint: "Anchor-9" 547.84 1316.5 mark 0
AnchorPoint: "Anchor-1" 535.84 1818.5 basemark 0
AnchorPoint: "Anchor-1" 547.84 1316.5 mark 0
LayerCount: 2
Fore
SplineSet
507.838 1339.09 m 128,-1,1
 469.58 1294.39 469.58 1294.39 378.78 1294.39 c 0,2,3
 301.302 1294.39 301.302 1294.39 261.261 1355.91 c 0,4,5
 227 1408.31 227 1408.31 227 1486.07 c 0,6,7
 227 1527.41 227 1527.41 242.222 1626.56 c 1,8,-1
 320.73 1626.56 l 1,9,10
 310.14 1502.98 310.14 1502.98 310.14 1459.89 c 0,11,12
 310.14 1394.86 310.14 1394.86 398.84 1393.09 c 0,13,14
 497.128 1391.16 497.128 1391.16 506.266 1518.54 c 0,15,16
 508.184 1545.08 508.184 1545.08 508.4 1680.83 c 1,17,-1
 586.06 1680.83 l 1,18,19
 588.34 1645.85 588.34 1645.85 588.34 1597.53 c 0,20,21
 588.34 1452.09 588.34 1452.09 700.84 1452.09 c 4,22,23
 785.54 1452.09 785.54 1452.09 785.54 1599.06 c 4,24,25
 785.54 1708.64 785.54 1708.64 774.521 1770.1 c 5,26,-1
 857.705 1770.1 l 5,27,28
 868.68 1694.87 868.68 1694.87 868.68 1580.87 c 4,29,30
 868.68 1511.69 868.68 1511.69 841.188 1456.65 c 4,31,32
 796.118 1367.27 796.118 1367.27 722.84 1358.99 c 4,33,34
 657.525 1351.76 657.525 1351.76 616.258 1379.33 c 4,35,36
 556.63 1418.62 556.63 1418.62 554.84 1431.09 c 1,37,38
 546.096 1383.79 546.096 1383.79 507.838 1339.09 c 128,-1,1
EndSplineSet
EndChar

StartChar: uni0652
Encoding: 1618 1618 55
Width: 0
VWidth: 2186
GlyphClass: 4
Flags: W
AnchorPoint: "Anchor-10" 565.84 1128.5 mark 0
AnchorPoint: "Anchor-9" 565.84 1128.5 mark 0
AnchorPoint: "Anchor-1" 551.84 1702 basemark 0
AnchorPoint: "Anchor-1" 565.84 1128.5 mark 0
LayerCount: 2
Fore
SplineSet
674.569 1383.62 m 0,0,1
 674.569 1428.15 674.569 1428.15 643.439 1459.28 c 128,-1,2
 612.312 1490.41 612.312 1490.41 567.126 1490.41 c 0,3,4
 521.285 1490.41 521.285 1490.41 490.485 1459.61 c 128,-1,5
 459.685 1428.81 459.685 1428.81 459.685 1383.62 c 0,6,7
 459.685 1337.78 459.685 1337.78 490.485 1306.98 c 128,-1,8
 521.285 1276.18 521.285 1276.18 567.126 1276.18 c 0,9,10
 612.314 1276.18 612.314 1276.18 643.439 1307.31 c 128,-1,11
 674.569 1338.44 674.569 1338.44 674.569 1383.62 c 0,0,1
750.396 1383.73 m 128,-1,13
 750.396 1306.88 750.396 1306.88 697.316 1253.46 c 128,-1,14
 644.259 1200.07 644.259 1200.07 567.436 1200.07 c 128,-1,15
 490.613 1200.07 490.613 1200.07 437.557 1253.46 c 128,-1,16
 384.476 1306.88 384.476 1306.88 384.476 1383.73 c 128,-1,17
 384.476 1460.56 384.476 1460.56 437.537 1513.63 c 128,-1,18
 490.596 1566.69 490.596 1566.69 567.436 1566.69 c 128,-1,19
 644.276 1566.69 644.276 1566.69 697.335 1513.63 c 128,-1,12
 750.396 1460.56 750.396 1460.56 750.396 1383.73 c 128,-1,13
EndSplineSet
EndChar

StartChar: uni0653
Encoding: 1619 1619 56
Width: 11
VWidth: 2553
GlyphClass: 4
Flags: W
AnchorPoint: "Anchor-10" 404.334 1442.64 mark 0
AnchorPoint: "Anchor-9" 404.334 1442.64 mark 0
AnchorPoint: "Anchor-1" 397.691 1800.13 basemark 0
AnchorPoint: "Anchor-1" 404.334 1442.64 mark 0
LayerCount: 2
Fore
SplineSet
305.553710938 1706.04003906 m 2,0,-1
 723.802734375 1706.04003906 l 5,1,-1
 725.71875 1514.54003906 l 5,2,-1
 318.1640625 1514.54003906 l 2,3,4
 238.997691664 1515.00001341 238.997691664 1515.00001341 181.585520627 1440.18278388 c 2,5,-1
 146.698116277 1394.71892331 l 1,6,-1
 18.4784974043 1539.59538251 l 1,7,-1
 38.3289888393 1569.83016219 l 2,8,9
 128 1706 128 1706 305.553710938 1706.04003906 c 2,0,-1
EndSplineSet
EndChar

StartChar: uni0657
Encoding: 1623 1623 59
Width: 11
VWidth: 2553
GlyphClass: 4
Flags: W
AnchorPoint: "Anchor-10" 648 1490.29 mark 0
AnchorPoint: "Anchor-9" 648 1490.29 mark 0
AnchorPoint: "Anchor-1" 648 2306.6 basemark 0
AnchorPoint: "Anchor-1" 648 1490.29 mark 0
LayerCount: 2
Fore
SplineSet
306.93359375 1991.88769531 m 1,0,-1
 450.541015625 1981.86425781 l 1,1,2
 510.180800958 2066.46174183 510.180800958 2066.46174183 592.361328125 2116.48046875 c 0,3,4
 817.018263895 2254.62504563 817.018263895 2254.62504563 989.06640625 2266.37109375 c 1,5,-1
 989.06640625 2179.70019531 l 1,6,7
 801.000944794 2169.33489258 801.000944794 2169.33489258 633.450195312 2037.95410156 c 0,8,9
 603.086914062 2014.18554688 603.086914062 2014.18554688 577.916992188 1987.703125 c 2,10,-1
 546.705078125 1954.84375 l 1,11,-1
 590.9453125 1945.00195312 l 2,12,13
 598.904296875 1943.23632812 598.904296875 1943.23632812 639.939453125 1921.87646484 c 128,-1,14
 680.974609375 1900.51660156 680.974609375 1900.51660156 711.318359375 1858.87304688 c 128,-1,15
 741.662109375 1817.22949219 741.662109375 1817.22949219 741.662109375 1767.10302734 c 128,-1,16
 741.662109375 1716.9765625 741.662109375 1716.9765625 727.368164062 1688.15576172 c 0,17,18
 678.704817741 1590.03613281 678.704817741 1590.03613281 560.003986708 1590.03613281 c 0,19,20
 441.303155674 1590.03613281 441.303155674 1590.03613281 396.317382812 1698.92773438 c 0,21,22
 381.028320312 1735.93894084 381.028320312 1735.93894084 381.028320312 1776.31761495 c 128,-1,23
 381.028320312 1816.69628906 381.028320312 1816.69628906 397.453125 1869.484375 c 2,24,-1
 407.186523438 1900.77050781 l 1,25,-1
 374.467773438 1902.703125 l 2,26,27
 343.974695766 1904.49603037 343.974695766 1904.49603037 306.93359375 1905.08398438 c 1,28,-1
 306.93359375 1991.88769531 l 1,0,-1
497.87890625 1885.78320312 m 1,29,-1
 481.260742188 1847.01367188 l 2,30,31
 467.884765625 1815.82258117 467.884765625 1815.82258117 467.884765625 1770.71402496 c 128,-1,32
 467.884765625 1725.60546875 467.884765625 1725.60546875 497.455566406 1701.24902344 c 128,-1,33
 527.026367188 1676.89257812 527.026367188 1676.89257812 561.344726562 1676.89257812 c 0,34,35
 633.005376407 1678.9500117 633.005376407 1678.9500117 648.71484375 1736.82519531 c 0,36,37
 652.293945312 1750.00585938 652.293945312 1750.00585938 652.293945312 1761.6640625 c 0,38,39
 652.293945312 1838.29363789 652.293945312 1838.29363789 519.913085938 1878.99902344 c 2,40,-1
 497.87890625 1885.78320312 l 1,29,-1
EndSplineSet
EndChar

StartChar: uni065A
Encoding: 1626 1626 60
Width: 1295
VWidth: 2553
GlyphClass: 4
Flags: W
AnchorPoint: "Anchor-10" 648 1490.29 mark 0
AnchorPoint: "Anchor-9" 648 1490.29 mark 0
AnchorPoint: "Anchor-1" 645.488 2055.43 basemark 0
AnchorPoint: "Anchor-1" 648 1490.29 mark 0
LayerCount: 2
Fore
SplineSet
569.607421875 1593.80273438 m 1,0,-1
 355.39453125 1951.92480469 l 1,1,-1
 471.013671875 1951.92480469 l 1,2,-1
 648 1686.44140625 l 1,3,-1
 824.983398438 1951.92480469 l 1,4,-1
 940.604492188 1951.92480469 l 1,5,-1
 726.388671875 1593.80273438 l 1,6,-1
 569.607421875 1593.80273438 l 1,0,-1
EndSplineSet
EndChar

StartChar: afii57392
Encoding: 1632 1632 61
Width: 956
VWidth: 2553
GlyphClass: 2
Flags: W
LayerCount: 2
Fore
SplineSet
393.119140625 627.276367188 m 128,-1,1
 356.836914062 590.780273438 356.836914062 590.780273438 356.836914062 537.032226562 c 128,-1,2
 356.836914062 483.28515625 356.836914062 483.28515625 391.88671875 449.26953125 c 128,-1,3
 426.936523438 415.254882812 426.936523438 415.254882812 478.725585938 415.254882812 c 128,-1,4
 530.515625 415.254882812 530.515625 415.254882812 566.622070312 451.571289062 c 128,-1,5
 602.901367188 488.05859375 602.901367188 488.05859375 602.901367188 539.421875 c 128,-1,6
 602.901367188 590.780273438 602.901367188 590.780273438 566.623046875 627.274414062 c 128,-1,7
 530.517578125 663.590820312 530.517578125 663.590820312 479.869140625 663.590820312 c 128,-1,0
 429.224609375 663.590820312 429.224609375 663.590820312 393.119140625 627.276367188 c 128,-1,1
478 210.834960938 m 0,8,9
 277.583007812 210.834960938 277.583007812 210.834960938 185.1015625 390.94921875 c 0,10,11
 150.337890625 458.654296875 150.337890625 458.654296875 150.337890625 534.272460938 c 0,12,13
 150.337890625 676.41796875 150.337890625 676.41796875 246.422851562 773.069335938 c 128,-1,14
 342.552734375 869.756835938 342.552734375 869.756835938 478 869.756835938 c 128,-1,15
 613.453125 869.756835938 613.453125 869.756835938 709.581054688 773.067382812 c 128,-1,16
 805.662109375 676.413085938 805.662109375 676.413085938 805.662109375 540.294921875 c 128,-1,17
 805.662109375 404.157226562 805.662109375 404.157226562 709.577148438 307.521484375 c 128,-1,18
 613.446289062 210.834960938 613.446289062 210.834960938 478 210.834960938 c 0,8,9
EndSplineSet
EndChar

StartChar: afii57393
Encoding: 1633 1633 62
Width: 744
VWidth: 2553
GlyphClass: 2
Flags: W
LayerCount: 2
Fore
SplineSet
592.889648438 3.9091796875 m 1,0,-1
 328.0078125 3.9091796875 l 1,1,-1
 327.869140625 43.7705078125 l 2,2,3
 324.996491758 784.905115644 324.996491758 784.905115644 182.376953125 1231.03027344 c 6,4,-1
 169.689453125 1270.71777344 l 5,5,-1
 425 1341 l 5,6,-1
 436.615234375 1304.27246094 l 6,7,8
 592.0808329 812.744434548 592.0808329 812.744434548 592.849609375 43.94921875 c 2,9,-1
 592.889648438 3.9091796875 l 1,0,-1
EndSplineSet
EndChar

StartChar: afii57394
Encoding: 1634 1634 63
Width: 1215
VWidth: 2553
GlyphClass: 2
Flags: W
LayerCount: 2
Fore
SplineSet
579.8515625 51.9814453125 m 6,0,-1
 579.927734375 3.9091796875 l 5,1,-1
 315.1875 3.9091796875 l 5,2,-1
 315.076171875 51.7822265625 l 6,3,4
 313.522460938 719.698242188 313.522460938 719.698242188 170.747070312 1228.0390625 c 6,5,-1
 160.14453125 1265.87792969 l 5,6,-1
 411 1341 l 5,7,-1
 420.38671875 1299.11425781 l 6,8,9
 448 1177 448 1177 468.515625 1107.18945312 c 4,10,11
 526 913 526 913 691.37109375 909.7421875 c 4,12,13
 772 908 772 908 813.565429688 950.7109375 c 4,14,15
 884.708984375 1022.70605469 884.708984375 1022.70605469 865.674804688 1298.29785156 c 6,16,-1
 862.721679688 1341.0546875 l 5,17,-1
 1102.22949219 1341.0546875 l 5,18,-1
 1102.921875 1301.75878906 l 6,19,20
 1107 1049 1107 1049 1091.64746094 961.8359375 c 4,21,22
 1063 807 1063 807 961.0390625 727.002929688 c 4,23,24
 858 647 858 647 691.693359375 646.774414062 c 4,25,26
 615 647 615 647 553.077148438 671.508789062 c 5,27,28
 579 481 579 481 579.8515625 51.9814453125 c 6,0,-1
EndSplineSet
EndChar

StartChar: afii57395
Encoding: 1635 1635 64
Width: 1473
VWidth: 2553
GlyphClass: 2
Flags: W
LayerCount: 2
Fore
SplineSet
961.52734375 1033.47460938 m 2,0,1
 961.192382812 904.995117188 961.192382812 904.995117188 1056.65332031 902.62890625 c 0,2,3
 1100 902 1100 902 1121.04199219 933.5234375 c 0,4,5
 1141.82421875 964.735351562 1141.82421875 964.735351562 1141.51757812 1061.75390625 c 2,6,-1
 1140.671875 1329.57421875 l 1,7,-1
 1391.35742188 1329.57421875 l 1,8,-1
 1392.18457031 1290.41894531 l 2,9,10
 1398 1002 1398 1002 1366.92382812 882.364257812 c 0,11,12
 1304 646 1304 646 1085.86523438 645.869140625 c 0,13,14
 941 646 941 646 850.489257812 739.434570312 c 1,15,16
 782 652 782 652 697.989257812 649.819335938 c 0,17,18
 613 648 613 648 559.508789062 663.796875 c 1,19,20
 582 468 582 468 582.517578125 51.9560546875 c 2,21,-1
 582.564453125 3.9091796875 l 1,22,-1
 317.595703125 3.9091796875 l 1,23,-1
 317.75390625 44.0673828125 l 2,24,25
 320.629882812 774.126953125 320.629882812 774.126953125 173.200195312 1223.12988281 c 2,26,-1
 160.65625 1261.43359375 l 1,27,-1
 410 1341 l 1,28,-1
 480.80859375 1074.02246094 l 2,29,30
 526 904 526 904 633.989257812 902.284179688 c 0,31,32
 664 902 664 902 683.538085938 913.25 c 0,33,34
 724.34765625 938.212890625 724.34765625 938.212890625 724.518554688 1043.60839844 c 2,35,-1
 724.983398438 1330.11425781 l 1,36,-1
 962.299804688 1330.11425781 l 1,37,-1
 961.52734375 1033.47460938 l 2,0,1
EndSplineSet
EndChar

StartChar: afii57396
Encoding: 1636 1636 65
Width: 1083
VWidth: 2593
GlyphClass: 2
Flags: W
LayerCount: 2
Fore
SplineSet
152 364 m 0,0,1
 192 499 192 499 369.798828125 664.595703125 c 1,2,3
 254 689 254 689 193.3046875 767.34375 c 0,4,5
 146 828 146 828 173 933 c 4,6,7
 235 1172 235 1172 651.529296875 1323.92382812 c 2,8,-1
 682.919921875 1335.36914062 l 1,9,10
 723 1267 723 1267 731 1128 c 1,11,12
 546 1063 546 1063 444 944 c 0,13,14
 418 914 418 914 446.346514572 890.061440947 c 0,15,16
 506 841 506 841 793.55859375 802.77734375 c 1,17,18
 811 708 811 708 792.228515625 627.569335938 c 1,19,20
 523 493 523 493 446 407 c 0,21,22
 404 361 404 361 464 341 c 0,23,24
 566 308 566 308 892.048828125 337.422851562 c 1,25,-1
 931.124023438 45.087890625 l 1,26,27
 431 12 431 12 221 154 c 0,28,29
 111 229 111 229 152 364 c 0,0,1
EndSplineSet
EndChar

StartChar: afii57397
Encoding: 1637 1637 66
Width: 1300
VWidth: 2593
GlyphClass: 2
Flags: W
LayerCount: 2
Fore
SplineSet
624.606445312 925.423828125 m 1,0,1
 387 677 387 677 360.01953125 483 c 0,2,3
 343 360 343 360 460.01953125 301 c 0,4,5
 531 265 531 265 682.078125 268.615234375 c 0,6,7
 830 272 830 272 883 355 c 0,8,9
 939 444 939 444 890.249023438 581.831054688 c 0,10,11
 821 775 821 775 624.606445312 925.423828125 c 1,0,1
355.684570312 1108.07128906 m 1,12,-1
 509.143554688 1329.6171875 l 1,13,14
 1032 1019 1032 1019 1161 605 c 0,15,16
 1267 265 1267 265 1009.08789062 92.1123046875 c 0,17,18
 869 -2 869 -2 650.545898438 -1.3291015625 c 0,19,20
 363 -1 363 -1 206.890625 150.146484375 c 0,21,22
 79 273 79 273 90 443 c 0,23,24
 108 732 108 732 409.981445312 1077.90722656 c 1,25,-1
 355.684570312 1108.07128906 l 1,12,-1
EndSplineSet
EndChar

StartChar: afii57398
Encoding: 1638 1638 67
Width: 1300
VWidth: 2593
GlyphClass: 2
Flags: W
LayerCount: 2
Fore
SplineSet
124.915039062 1324.45019531 m 2,0,1
 332.924029121 1270.99944995 332.924029121 1270.99944995 548.548828125 1270.87109375 c 0,2,3
 764.975917188 1270.99939292 764.975917188 1270.99939292 1008.328125 1325.84570312 c 2,4,-1
 1062.92382812 1338.15039062 l 1,5,-1
 1063.24023438 1278.453125 l 2,6,7
 1066 674 1066 674 1217.86523438 59.6728515625 c 2,8,-1
 1231.6015625 3.9091796875 l 1,9,-1
 944.885742188 3.9091796875 l 1,10,-1
 937.1953125 39.3720703125 l 2,11,12
 841.18118469 482.122170256 841.18118469 482.122170256 830.276367188 595.141601562 c 0,13,14
 805 876 805 876 801.322265625 1022.92382812 c 1,15,16
 665 992 665 992 503.182617188 992.020507812 c 0,17,18
 405 992 405 992 304.373046875 1006.57519531 c 0,19,20
 206.771563006 1020.313677 206.771563006 1020.313677 101.469726562 1050.09179688 c 2,21,-1
 68.71484375 1059.35449219 l 1,22,-1
 68.71484375 1338.89160156 l 1,23,-1
 124.915039062 1324.45019531 l 2,0,1
EndSplineSet
EndChar

StartChar: afii57399
Encoding: 1639 1639 68
Width: 1250
VWidth: 2553
GlyphClass: 2
Flags: W
LayerCount: 2
Fore
SplineSet
495.514648438 37.5322265625 m 6,0,1
 412.479181303 551.724876467 412.479181303 551.724876467 64.3828125 1209.12207031 c 6,2,-1
 42.328125 1250.7734375 l 5,3,-1
 312.63671875 1341.44824219 l 5,4,-1
 327.487304688 1308.39160156 l 6,5,6
 505 913 505 913 627.841796875 528.400390625 c 5,7,8
 728.972101927 866.562884138 728.972101927 866.562884138 932.668945312 1308.73535156 c 6,9,-1
 947.940429688 1341.88574219 l 5,10,-1
 1207.36035156 1250.0625 l 5,11,-1
 1185.59375 1209.078125 l 6,12,13
 846.334293742 570.629104092 846.334293742 570.629104092 763.487304688 37.7646484375 c 6,14,-1
 758.223632812 3.9091796875 l 5,15,-1
 500.944335938 3.9091796875 l 5,16,-1
 495.514648438 37.5322265625 l 6,0,1
EndSplineSet
EndChar

StartChar: afii57400
Encoding: 1640 1640 69
Width: 1250
VWidth: 2553
GlyphClass: 2
Flags: W
LayerCount: 2
Fore
SplineSet
495.514648438 1308.26269531 m 6,0,1
 500.944335938 1341.88574219 l 5,2,-1
 758.223632812 1341.88574219 l 5,3,-1
 763.487304688 1308.03027344 l 6,4,5
 846.333984375 775.166015625 846.333984375 775.166015625 1185.59375 136.716796875 c 6,6,-1
 1207.36035156 95.732421875 l 5,7,-1
 947.940429688 3.9091796875 l 5,8,-1
 932.668945312 37.0595703125 l 6,9,10
 728.971679688 479.232421875 728.971679688 479.232421875 627.841796875 817.39453125 c 5,11,12
 505 432.794921875 505 432.794921875 327.487304688 37.4033203125 c 6,13,-1
 312.63671875 4.3466796875 l 5,14,-1
 42.328125 95.021484375 l 5,15,-1
 64.3828125 136.672851562 l 6,16,17
 412.479492188 794.0703125 412.479492188 794.0703125 495.514648438 1308.26269531 c 6,0,1
EndSplineSet
EndChar

StartChar: afii57401
Encoding: 1641 1641 70
Width: 1219
VWidth: 2553
GlyphClass: 2
Flags: W
LayerCount: 2
Fore
SplineSet
565.087890625 509.342773438 m 0,0,1
 314 509 314 509 208.239257812 689.760742188 c 0,2,3
 155 781 155 781 155.051757812 901.545898438 c 0,4,5
 155 1090 155 1090 257.540039062 1201.20703125 c 0,6,7
 385 1341 385 1341 600 1341 c 0,8,9
 778 1341 778 1341 880.005859375 1238.4453125 c 0,10,11
 978.139458936 1139.8776182 978.139458936 1139.8776182 999.787109375 942.90625 c 4,12,13
 1018 778 1018 778 1066.16894531 46.51953125 c 2,14,-1
 1068.95605469 3.9091796875 l 1,15,-1
 807.706054688 3.9091796875 l 1,16,-1
 806.594726562 42.765625 l 1,17,18
 791 331 791 331 778.978515625 547.118164062 c 1,19,20
 687 509 687 509 565.087890625 509.342773438 c 0,0,1
400.110351562 922.221679688 m 0,21,22
 400 748 400 748 569.467773438 748.158203125 c 0,23,24
 684 748 684 748 752.881835938 814.395507812 c 1,25,26
 756 1005 756 1005 698.571289062 1059.85351562 c 0,27,28
 661 1096 661 1096 608.796875 1095.76757812 c 0,29,30
 483 1096 483 1096 433.005859375 1023.9453125 c 0,31,32
 400 977 400 977 400.110351562 922.221679688 c 0,21,22
EndSplineSet
EndChar

StartChar: afii57381
Encoding: 1642 1642 71
Width: 1391
VWidth: 2593
GlyphClass: 2
Flags: W
LayerCount: 2
Fore
SplineSet
899.037109375 181.149414062 m 132,-1,1
 899.037109375 253.149414062 899.037109375 253.149414062 950.037109375 304.149414062 c 132,-1,2
 1001.03710938 355.149414062 1001.03710938 355.149414062 1073.03710938 355.149414062 c 132,-1,3
 1145.03710938 355.149414062 1145.03710938 355.149414062 1196.03710938 304.149414062 c 132,-1,4
 1247.03710938 253.149414062 1247.03710938 253.149414062 1247.03710938 181.149414062 c 132,-1,5
 1247.03710938 109.149414062 1247.03710938 109.149414062 1196.03710938 58.1494140625 c 132,-1,6
 1145.03710938 7.1494140625 1145.03710938 7.1494140625 1073.03710938 7.1494140625 c 132,-1,7
 1001.03710938 7.1494140625 1001.03710938 7.1494140625 950.037109375 58.1494140625 c 132,-1,0
 899.037109375 109.149414062 899.037109375 109.149414062 899.037109375 181.149414062 c 132,-1,1
143.966796875 1212.22363281 m 4,8,9
 143.504882812 1284 143.504882812 1284 194.966796875 1335.22363281 c 4,10,11
 245.504882812 1386 245.504882812 1386 317.966796875 1386.22363281 c 4,12,13
 389.504882812 1386 389.504882812 1386 440.966796875 1335.22363281 c 4,14,15
 491.504882812 1284 491.504882812 1284 491.966796875 1212.22363281 c 4,16,17
 491.504882812 1140 491.504882812 1140 440.966796875 1089.22363281 c 4,18,19
 389.504882812 1038 389.504882812 1038 317.966796875 1038.22363281 c 4,20,21
 245.504882812 1038 245.504882812 1038 194.966796875 1089.22363281 c 4,22,23
 143.504882812 1140 143.504882812 1140 143.966796875 1212.22363281 c 4,8,9
927.278320312 1394 m 5,24,-1
 1160.50488281 1394 l 5,25,-1
 444.23046875 8.9091796875 l 5,26,-1
 211.0078125 8.9091796875 l 5,27,-1
 927.278320312 1394 l 5,24,-1
EndSplineSet
EndChar

StartChar: uni066B
Encoding: 1643 1643 72
Width: 717
VWidth: 2593
GlyphClass: 2
Flags: W
LayerCount: 2
Fore
SplineSet
10.623046875 -268.62890625 m 5,0,-1
 476.620117188 647.659179688 l 5,1,-1
 689.349609375 646.075195312 l 5,2,-1
 226.294921875 -271.587890625 l 5,3,-1
 10.623046875 -268.62890625 l 5,0,-1
EndSplineSet
EndChar

StartChar: uni066C
Encoding: 1644 1644 73
Width: 642
VWidth: 2304
GlyphClass: 2
Flags: W
LayerCount: 2
Fore
SplineSet
194.297851562 297.9609375 m 128,-1,1
 245.033203125 332.737304688 245.033203125 332.737304688 322.241210938 330.982421875 c 128,-1,2
 399.450195312 329.227539062 399.450195312 329.227539062 447.999023438 289.93359375 c 128,-1,3
 496.548828125 250.639648438 496.548828125 250.639648438 504.598632812 161.797851562 c 128,-1,4
 512.6484375 72.9560546875 512.6484375 72.9560546875 480.350585938 -35.369140625 c 0,5,6
 419.193359375 -242.866210938 419.193359375 -242.866210938 208.5234375 -338.427734375 c 2,7,-1
 184.407226562 -349.3671875 l 1,8,-1
 74.23046875 -248.004882812 l 1,9,-1
 122.51171875 -221.068359375 l 2,10,11
 270.265625 -138.63671875 270.265625 -138.63671875 303.26953125 -10.6982421875 c 1,12,13
 200.708984375 -3.6884765625 200.708984375 -3.6884765625 160.16015625 54.962890625 c 128,-1,14
 119.611328125 113.61328125 119.611328125 113.61328125 131.587890625 188.3984375 c 128,-1,0
 143.563476562 263.184570312 143.563476562 263.184570312 194.297851562 297.9609375 c 128,-1,1
EndSplineSet
EndChar

StartChar: afii63167
Encoding: 1645 1645 74
Width: 1411
VWidth: 2593
GlyphClass: 2
Flags: W
LayerCount: 2
Fore
SplineSet
70.2958984375 990.817382812 m 1,0,-1
 554.716796875 990.817382812 l 1,1,-1
 705.772460938 1450.71679688 l 1,2,-1
 856.821289062 990.817382812 l 1,3,-1
 1341.24316406 990.817382812 l 1,4,-1
 949.951171875 704.772460938 l 1,5,-1
 1099.7578125 244.548828125 l 1,6,-1
 705.771484375 529.247070312 l 1,7,-1
 311.780273438 244.549804688 l 1,8,-1
 461.586914062 704.772460938 l 1,9,-1
 70.2958984375 990.817382812 l 1,0,-1
EndSplineSet
EndChar

StartChar: uni066E
Encoding: 1646 1646 75
Width: 2012
VWidth: 2593
GlyphClass: 2
Flags: W
AnchorPoint: "Anchor-10" 910.751 1269.53 basechar 0
AnchorPoint: "Anchor-7" 910.751 -174.707 basechar 0
LayerCount: 2
Fore
SplineSet
1920.44042969 487.8203125 m 6,0,1
 1919.89550781 0.9970703125 1919.89550781 0.9970703125 1507.51367188 -0.0966796875 c 6,2,-1
 503.915039062 -0.0966796875 l 6,3,4
 232.506835938 0.044921875 232.506835938 0.044921875 138.155273438 220.198242188 c 4,5,6
 92.150390625 327.543945312 92.150390625 327.543945312 92.1494140625 481.977539062 c 6,7,-1
 92.1484375 733.75 l 5,8,-1
 350.904296875 733.75 l 5,9,-1
 350.904296875 492.540039062 l 6,10,11
 350.90234375 371.709960938 350.90234375 371.709960938 389.3984375 320.455078125 c 132,-1,12
 427.89453125 269.200195312 427.89453125 269.200195312 508.470703125 269.200195312 c 6,13,-1
 1504.0546875 269.200195312 l 6,14,15
 1610.19628906 269.48046875 1610.19628906 269.48046875 1643.60644531 360.841796875 c 4,16,17
 1661.68261719 410.26953125 1661.68261719 410.26953125 1661.68261719 491.366210938 c 6,18,-1
 1661.68261719 733.75 l 5,19,-1
 1920.44042969 733.75 l 5,20,-1
 1920.44042969 487.8203125 l 6,0,1
EndSplineSet
Substitution2: "'init' Initial Forms in Arabic lookup 13 subtable" uni066E.init
Substitution2: "'medi' Medial Forms in Arabic lookup 11 subtable" uni066E.medi
Substitution2: "'fina' Terminal Forms in Arabic lookup 9 subtable" uni066E.fina
EndChar

StartChar: uni066F
Encoding: 1647 1647 76
Width: 1632
VWidth: 2593
GlyphClass: 2
Flags: W
AnchorPoint: "Anchor-10" 424.676 1261.52 basechar 0
AnchorPoint: "Anchor-7" 496.271 -613.467 basechar 0
LayerCount: 2
Fore
SplineSet
1281.2890625 113.170898438 m 5,0,1
 1228.94335938 112.956054688 1228.94335938 112.956054688 1134.87304688 112.983398438 c 4,2,3
 951.462890625 113.037109375 951.462890625 113.037109375 860.126953125 213.889648438 c 132,-1,4
 768.790039062 314.7421875 768.790039062 314.7421875 786.26953125 542.8828125 c 4,5,6
 798.115234375 705.791015625 798.115234375 705.791015625 875.259765625 789.825195312 c 4,7,8
 977.489257812 903.327148438 977.489257812 903.327148438 1167.47558594 899.677734375 c 132,-1,9
 1357.4609375 896.028320312 1357.4609375 896.028320312 1450.75292969 778.098632812 c 132,-1,10
 1544.04492188 660.16796875 1544.04492188 660.16796875 1540.73535156 444.525390625 c 4,11,12
 1539.00683594 330.169921875 1539.00683594 330.169921875 1540.29101562 275.836914062 c 5,13,-1
 1540.29101562 142.71484375 l 5,14,-1
 1539.84375 102.333007812 l 6,15,16
 1536.76464844 -186.678710938 1536.76464844 -186.678710938 1378.00097656 -335.51171875 c 132,-1,17
 1219.23828125 -484.34375 1219.23828125 -484.34375 917.791015625 -482.71484375 c 6,18,-1
 809.424804688 -482.129882812 l 5,19,-1
 782.186523438 -482.129882812 l 6,20,21
 464.823242188 -482.129882812 464.823242188 -482.129882812 298.440429688 -338.862304688 c 132,-1,22
 132.056640625 -195.59375 132.056640625 -195.59375 132.12109375 83.2646484375 c 6,23,-1
 131.98828125 525.9921875 l 5,24,-1
 390.877929688 526.041015625 l 5,25,-1
 390.877929688 84.4638671875 l 6,26,27
 390.932617188 -66.5244140625 390.932617188 -66.5244140625 484.901367188 -139.678710938 c 132,-1,28
 578.87109375 -212.833007812 578.87109375 -212.833007812 784.356445312 -212.833007812 c 6,29,-1
 809.485351562 -212.833007812 l 5,30,-1
 926.165039062 -212.247070312 l 6,31,32
 1168.83984375 -210.85546875 1168.83984375 -210.85546875 1243.13183594 -79.2353515625 c 4,33,34
 1280.24902344 -13.4775390625 1280.24902344 -13.4775390625 1281.08886719 88.8037109375 c 6,35,-1
 1281.2890625 113.170898438 l 5,0,1
1285.90917969 383.408203125 m 5,36,37
 1290 557 1290 557 1262.12890625 601.916992188 c 4,38,39
 1234 648 1234 648 1158.36328125 645.071289062 c 4,40,41
 1020 641 1020 641 1023.86914062 490.895507812 c 4,42,43
 1026 423 1026 423 1067 395 c 4,44,45
 1105 369 1105 369 1285.90917969 383.408203125 c 5,36,37
EndSplineSet
Substitution2: "'init' Initial Forms in Arabic lookup 13 subtable" uni066F.init
Substitution2: "'medi' Medial Forms in Arabic lookup 11 subtable" uni066F.medi
Substitution2: "'fina' Terminal Forms in Arabic lookup 9 subtable" uni066F.fina
EndChar

StartChar: uni0670
Encoding: 1648 1648 77
Width: 11
VWidth: 2553
GlyphClass: 4
Flags: W
AnchorPoint: "Anchor-10" 648 1490.29 mark 0
AnchorPoint: "Anchor-9" 648 1490.29 mark 0
AnchorPoint: "Anchor-1" 648 2306.6 basemark 0
AnchorPoint: "Anchor-1" 648 1490.29 mark 0
LayerCount: 2
Fore
SplineSet
604.571289062 1557.38378906 m 1,0,-1
 604.571289062 2239.51757812 l 1,1,-1
 691.427734375 2239.51757812 l 1,2,-1
 691.427734375 1557.38378906 l 1,3,-1
 604.571289062 1557.38378906 l 1,0,-1
EndSplineSet
EndChar

StartChar: uni0674
Encoding: 1652 1652 78
Width: 759
VWidth: 2553
GlyphClass: 2
Flags: W
LayerCount: 2
Fore
SplineSet
233.605208948 1808.56113516 m 1,0,1
 149 1873 149 1873 149.018554688 1988.01448715 c 128,-1,2
 149 2103 149 2103 267.358042098 2170.08434052 c 0,3,4
 355 2220 355 2220 478.883145419 2195.05461309 c 0,5,6
 519 2187 519 2187 574.309570312 2157.43452713 c 1,7,-1
 574.309570312 2011.07786108 l 1,8,-1
 532.941145494 2028.01772822 l 2,9,10
 453 2061 453 2061 399.767662462 2055.52318754 c 0,11,12
 296 2045 296 2045 290.385835763 1982.78323091 c 0,13,14
 283 1899 283 1899 399.706317022 1865.8610621 c 0,15,16
 434 1856 434 1856 600.682617188 1892.38276666 c 1,17,-1
 600.682617188 1740.89163815 l 1,18,-1
 146.505859375 1638.92840074 l 1,19,-1
 146.505859375 1789.52929688 l 1,20,-1
 233.605208948 1808.56113516 l 1,0,1
EndSplineSet
EndChar

StartChar: uni06A1
Encoding: 1697 1697 82
Width: 2021
VWidth: 2553
GlyphClass: 2
Flags: W
AnchorPoint: "Anchor-10" 575.245 1247.49 basechar 0
AnchorPoint: "Anchor-7" 592.19 -145.02 basechar 0
LayerCount: 2
Fore
SplineSet
1926.39257812 393.82421875 m 2,0,1
 1926.39257812 196.127929688 1926.39257812 196.127929688 1781.91210938 97.17578125 c 128,-1,2
 1637.43261719 -1.775390625 1637.43261719 -1.775390625 1368.38378906 -1.06640625 c 2,3,-1
 1035.16503906 -0.1875 l 1,4,-1
 502.337890625 -0.1875 l 2,5,6
 299.932617188 -0.0849609375 299.932617188 -0.0849609375 195.244140625 124.422851562 c 128,-1,7
 90.556640625 248.930664062 90.556640625 248.930664062 90.5556640625 481.885742188 c 2,8,-1
 90.5546875 733.66015625 l 1,9,-1
 349.311523438 733.66015625 l 1,10,-1
 349.311523438 492.421875 l 2,11,12
 349.168945312 371.584960938 349.168945312 371.584960938 387.651367188 320.346679688 c 128,-1,13
 426.134765625 269.109375 426.134765625 269.109375 506.877929688 269.109375 c 2,14,-1
 1035.20800781 269.109375 l 1,15,-1
 1324.97949219 269.426757812 l 2,16,17
 1624.2843104 269.896986087 1624.2843104 269.896986087 1655.61914062 363.361328125 c 1,18,19
 1629.3359375 363 1629.3359375 363 1589.69809947 363 c 128,-1,20
 1550.06026145 363 1550.06026145 363 1511.85644531 363.967773438 c 0,21,22
 1337.9609375 364.346679688 1337.9609375 364.346679688 1253.99658203 456.937988281 c 128,-1,23
 1170.03222656 549.529296875 1170.03222656 549.529296875 1169.93115234 735.788085938 c 128,-1,24
 1169.83007812 922.046875 1169.83007812 922.046875 1264.5078125 1016.40917969 c 128,-1,25
 1359.18652344 1110.77148438 1359.18652344 1110.77148438 1536.56152344 1110.5 c 0,26,27
 1771.90499037 1110.13919275 1771.90499037 1110.13919275 1867.3671875 968.728515625 c 0,28,29
 1915.19238281 897.883789062 1915.19238281 897.883789062 1921.07958984 815.401855469 c 128,-1,30
 1926.96679688 732.919921875 1926.96679688 732.919921875 1926.89453125 706.969726562 c 2,31,-1
 1926.39257812 526.396484375 l 1,32,-1
 1926.39257812 393.82421875 l 2,0,1
1672.28222656 634.538085938 m 1,33,34
 1674 684 1674 684 1664.77815402 770.969236629 c 0,35,36
 1656 856 1656 856 1543.39208984 855.719726562 c 0,37,38
 1474 855 1474 855 1443.58007812 827.698242188 c 4,39,40
 1410 797 1410 797 1410.48339844 739.725585938 c 0,41,42
 1411 630 1411 630 1517.71728516 629.564453125 c 0,43,44
 1607 629 1607 629 1672.28222656 634.538085938 c 1,33,34
EndSplineSet
Substitution2: "'init' Initial Forms in Arabic lookup 13 subtable" uni06A1.init
Substitution2: "'medi' Medial Forms in Arabic lookup 11 subtable" uni06A1.medi
Substitution2: "'fina' Terminal Forms in Arabic lookup 9 subtable" uni06A1.fina
EndChar

StartChar: uni06A9
Encoding: 1705 1705 83
Width: 1916
VWidth: 2593
GlyphClass: 2
Flags: W
AnchorPoint: "Anchor-10" 500.222 1445.6 basechar 0
AnchorPoint: "Anchor-7" 480.269 -275.044 basechar 0
LayerCount: 2
Fore
SplineSet
349.814453125 491.571289062 m 2,0,1
 349.814453125 319.080078125 349.814453125 319.080078125 435.251953125 282.31640625 c 0,2,3
 465.552734375 269.194335938 465.552734375 269.194335938 507.374023438 269.200195312 c 2,4,-1
 1331.23925781 269.32421875 l 2,5,6
 1426 269 1426 269 1462.5 293 c 128,-1,7
 1499 317 1499 317 1498.93652344 360.73828125 c 128,-1,8
 1498.87207031 404.477539062 1498.87207031 404.477539062 1401.88085938 515.05859375 c 2,9,-1
 1131.109375 823.768554688 l 2,10,11
 1120 837 1120 837 1097.52148438 861.619140625 c 128,-1,12
 1075.04394531 886.23828125 1075.04394531 886.23828125 1045.02148438 927.619140625 c 128,-1,13
 1015 969 1015 969 1020 1038.5 c 128,-1,14
 1025 1108 1025 1108 1061.88964844 1160.84277344 c 128,-1,15
 1098.77929688 1213.68554688 1098.77929688 1213.68554688 1163.8203125 1237.45507812 c 2,16,-1
 1864.82421875 1493.64160156 l 1,17,-1
 1864.82421875 1223.37011719 l 1,18,-1
 1284.41113281 1026.53808594 l 1,19,-1
 1577.21386719 696.110351562 l 2,20,21
 1759 491 1759 491 1740 322 c 128,-1,22
 1721 153 1721 153 1582.02929688 60.53515625 c 0,23,24
 1491.01855469 0.0126953125 1491.01855469 0.0126953125 1379.75488281 0 c 2,25,-1
 514.591796875 -0.0966796875 l 2,26,27
 307 0 307 0 198.948242188 124.19921875 c 0,28,29
 91.05859375 248.932617188 91.05859375 248.932617188 91.0576171875 481.977539062 c 2,30,-1
 91.056640625 735.930664062 l 1,31,-1
 349.814453125 734.479492188 l 1,32,-1
 349.814453125 491.571289062 l 2,0,1
EndSplineSet
Substitution2: "'init' Initial Forms in Arabic lookup 13 subtable" uniFB90
Substitution2: "'medi' Medial Forms in Arabic lookup 11 subtable" uniFB91
Substitution2: "'fina' Terminal Forms in Arabic lookup 9 subtable" uniFB8F
EndChar

StartChar: afii57514
Encoding: 1722 1722 85
Width: 1503
VWidth: 2593
GlyphClass: 2
Flags: W
AnchorPoint: "Anchor-10" 628.158 965.159 basechar 0
AnchorPoint: "Anchor-7" 732.132 -666.307 basechar 0
LayerCount: 2
Fore
SplineSet
91.986328125 525.9921875 m 1,0,-1
 350.877929688 526.041015625 l 1,1,-1
 350.877929688 144.602539062 l 2,2,3
 350.93359375 -32.9892578125 350.93359375 -32.9892578125 450.51953125 -118.076171875 c 128,-1,4
 550.10546875 -203.163085938 550.10546875 -203.163085938 764.842773438 -203.163085938 c 2,5,-1
 806.240234375 -203.163085938 l 1,6,-1
 847.706054688 -202.576171875 l 2,7,8
 1024.48535156 -199.99609375 1024.48535156 -199.99609375 1107.2265625 -115.149414062 c 128,-1,9
 1189.96777344 -30.302734375 1189.96777344 -30.302734375 1189.84277344 148.668945312 c 2,10,-1
 1189.46679688 684.797851562 l 1,11,-1
 1450.94726562 684.931640625 l 1,12,-1
 1450.94726562 139.314453125 l 2,13,14
 1450.97460938 -155.450195312 1450.97460938 -155.450195312 1295.3515625 -311.016601562 c 128,-1,15
 1139.72753906 -466.583984375 1139.72753906 -466.583984375 840.2734375 -471.868164062 c 2,16,-1
 806.711914062 -472.459960938 l 1,17,-1
 762.642578125 -472.459960938 l 2,18,19
 306.280273438 -472.126953125 306.280273438 -472.126953125 158.223632812 -175.733398438 c 0,20,21
 92.3955078125 -42.77734375 92.3955078125 -42.77734375 92.12109375 143.403320312 c 2,22,-1
 91.986328125 525.9921875 l 1,0,-1
EndSplineSet
Substitution2: "'init' Initial Forms in Arabic lookup 13 subtable" uni06BA.init
Substitution2: "'medi' Medial Forms in Arabic lookup 11 subtable" uni06BA.medi
Substitution2: "'fina' Terminal Forms in Arabic lookup 9 subtable" uniFB9F
EndChar

StartChar: uni06F4
Encoding: 1780 1780 92
Width: 1307
VWidth: 2553
GlyphClass: 2
Flags: W
LayerCount: 2
Fore
SplineSet
1105.23339844 1073.47070312 m 2,0,1
 990.117399908 1101.99993323 990.117399908 1101.99993323 902.42578125 1102.04980469 c 0,2,3
 802 1102 802 1102 740.935546875 1040.296875 c 0,4,5
 683 982 683 982 694.0062571 880.481473081 c 0,6,7
 705 778 705 778 893.134765625 776.724609375 c 0,8,9
 1055 776 1055 776 1202.65234375 812.336914062 c 1,10,-1
 1206.34082031 574.291992188 l 1,11,-1
 1175.68261719 566.521484375 l 2,12,13
 886 493 886 493 570.065429688 580.994140625 c 1,14,15
 578.499641025 555.511741478 578.499641025 555.511741478 581.034179688 44.1064453125 c 2,16,-1
 581.233398438 3.9091796875 l 1,17,-1
 322.19921875 3.9091796875 l 1,18,-1
 322.0546875 43.7646484375 l 2,19,20
 318.996764904 801.801957355 318.996764904 801.801957355 182.91796875 1230.18554688 c 2,21,-1
 170.438476562 1269.47167969 l 1,22,-1
 421.115234375 1340.88574219 l 1,23,-1
 431.666015625 1301.69335938 l 2,24,25
 486 1099 486 1099 494 964 c 5,26,27
 533 1354 533 1354 933.975585938 1340.41894531 c 0,28,29
 1041 1337 1041 1337 1154.85546875 1286.82714844 c 1,30,-1
 1154.85546875 1061.17285156 l 1,31,-1
 1105.23339844 1073.47070312 l 2,0,1
EndSplineSet
EndChar

StartChar: uni06F5
Encoding: 1781 1781 93
Width: 1285
VWidth: 2553
GlyphClass: 2
Flags: W
LayerCount: 2
Fore
SplineSet
443.7734375 271.575195312 m 0,0,1
 481 275 481 275 509.528320312 314.416992188 c 0,2,3
 538.5859375 355.834960938 538.5859375 355.834960938 548.610351562 462.265625 c 2,4,-1
 552.024414062 498.513671875 l 1,5,-1
 739.655273438 498.513671875 l 1,6,-1
 741.278320312 460.208007812 l 2,7,8
 748.588867188 279.172851562 748.588867188 279.172851562 858.455078125 267.561523438 c 0,9,10
 930 260 930 260 955.47265625 303.93359375 c 0,11,12
 972.479492188 335.875976562 972.479492188 335.875976562 961.330078125 385.228515625 c 0,13,14
 925 550 925 550 641.078125 879.336914062 c 1,15,16
 414 616 414 616 358 485 c 0,17,18
 304 359 304 359 357.005859375 296.56640625 c 0,19,20
 383 266 383 266 443.7734375 271.575195312 c 0,0,1
1101.22070312 85.2958984375 m 0,21,22
 1018 0 1018 0 866.528320312 0.005859375 c 128,-1,23
 715 0 715 0 639.469726562 116.004882812 c 1,24,25
 562 0 562 0 403.509765625 -0.1083984375 c 0,26,27
 245 0 245 0 162.350585938 90.681640625 c 0,28,29
 80 182 80 182 80.068359375 348.860351562 c 0,30,31
 80 592 80 592 474.8671875 1058.359375 c 1,32,33
 474 1059 474 1059 448.7890625 1085.95117188 c 2,34,-1
 423.772460938 1112.24707031 l 1,35,-1
 601.094726562 1317.18554688 l 1,36,37
 1168 768 1168 768 1204.93261719 395.642578125 c 0,38,39
 1223 211 1223 211 1101.22070312 85.2958984375 c 0,21,22
EndSplineSet
EndChar

StartChar: uni06F6
Encoding: 1782 1782 94
Width: 1087
VWidth: 2553
GlyphClass: 2
Flags: W
LayerCount: 2
Fore
SplineSet
705.010742188 1065.19726562 m 2,0,1
 623.115940197 1107.00024676 623.115940197 1107.00024676 556.46875 1106.85839844 c 0,2,3
 490 1107 490 1107 450.245117188 1088.70410156 c 0,4,5
 354 1045 354 1045 353.745117188 929.982421875 c 0,6,7
 354 871 354 871 388.740234375 834.08203125 c 0,8,9
 430 792 430 792 504.702148438 783.494140625 c 0,10,11
 534 780 534 780 562.981445312 780.474609375 c 0,12,13
 600.138069881 781.001959575 600.138069881 781.001959575 634.547851562 805.26171875 c 2,14,-1
 714.556640625 861.669921875 l 2,15,16
 715 862 715 862 794.458007812 918.401367188 c 2,17,-1
 830.513671875 944.090820312 l 1,18,-1
 962.294921875 712.740234375 l 1,19,-1
 927.341796875 692.99609375 l 2,20,21
 776 608 776 608 401.814453125 -13.654296875 c 1,22,-1
 176.961914062 95.8515625 l 1,23,24
 323 374 323 374 462.100585938 550.829101562 c 1,25,26
 260 579 260 579 173.00390625 702.876953125 c 0,27,28
 129 765 129 765 119.668945312 823.32421875 c 0,29,30
 111 882 111 882 110.515625 927.428710938 c 0,31,32
 111 1101 111 1101 216.668945312 1217.32421875 c 0,33,34
 330 1341 330 1341 520 1341 c 0,35,36
 660.456494328 1341 660.456494328 1341 744.689453125 1290.74902344 c 2,37,-1
 764.342773438 1279.02441406 l 1,38,-1
 762.778320312 1035.70996094 l 1,39,-1
 705.010742188 1065.19726562 l 2,0,1
EndSplineSet
EndChar

StartChar: uniFB8F
Encoding: 64399 64399 109
Width: 2079
VWidth: 2593
GlyphClass: 2
Flags: W
AnchorPoint: "Anchor-7" 484.692 -250.794 basechar 0
AnchorPoint: "Anchor-10" 516.382 1412.92 basechar 0
LayerCount: 2
Fore
SplineSet
1721.60742188 182.334960938 m 1,0,1
 1627.01269531 0.0244140625 1627.01269531 0.0244140625 1403.19042969 0 c 2,2,-1
 514.774414062 -0.0966796875 l 2,3,4
 229.780273438 0 229.780273438 0 135.204101562 228.581054688 c 0,5,6
 91.228515625 334.451171875 91.228515625 334.451171875 91.2275390625 481.977539062 c 2,7,-1
 91.2265625 736.66015625 l 1,8,-1
 349.984375 736.66015625 l 1,9,-1
 349.984375 492.541015625 l 2,10,11
 350 372 350 372 388.486328125 320.516601562 c 128,-1,12
 426.859375 269.188476562 426.859375 269.188476562 507.559570312 269.200195312 c 2,13,-1
 1354.67578125 269.32421875 l 2,14,15
 1449 269 1449 269 1485.54980469 293.025390625 c 128,-1,16
 1522 317 1522 317 1522.46972656 363.123046875 c 0,17,18
 1523 378 1523 378 1498.07421875 419.020507812 c 0,19,20
 1474.79394531 458.6484375 1474.79394531 458.6484375 1425.35839844 515.010742188 c 2,21,-1
 1154.54492188 823.768554688 l 2,22,23
 1067 924 1067 924 1053.1953125 957.912109375 c 0,24,25
 1040 992 1040 992 1044.0546875 1050.4765625 c 0,26,27
 1049 1109 1049 1109 1085.37597656 1161.91503906 c 0,28,29
 1121.70117188 1214.56738281 1121.70117188 1214.56738281 1187.38769531 1238.47363281 c 2,30,-1
 1888.26074219 1493.5546875 l 1,31,-1
 1888.26074219 1223.37011719 l 1,32,-1
 1307.96289062 1026.57714844 l 1,33,-1
 1871.6640625 392.643554688 l 2,34,35
 1981.20800781 269.766601562 1981.20800781 269.766601562 2064.04882812 269.766601562 c 2,36,-1
 2091.73828125 269.766601562 l 5,37,-1
 2091.73828125 0.5859375 l 5,38,-1
 2071.12792969 0.5859375 l 2,39,40
 1876 1 1876 1 1721.60742188 182.334960938 c 1,0,1
EndSplineSet
EndChar

StartChar: uniFB9F
Encoding: 64415 64415 117
Width: 1651
VWidth: 2593
GlyphClass: 2
Flags: W
AnchorPoint: "Anchor-10" 363.402 839.573 basechar 0
AnchorPoint: "Anchor-7" 323.474 -662.176 basechar 0
LayerCount: 2
Fore
SplineSet
1573.19433594 -0.48046875 m 6,0,1
 1485 -0 1485 -0 1402.65722656 43.474609375 c 1,2,3
 1379.00027659 -450.99421883 1379.00027659 -450.99421883 790.182617188 -456.348632812 c 2,4,-1
 725.103515625 -456.940429688 l 1,5,-1
 674.106445312 -456.940429688 l 2,6,7
 92.2831661048 -456.999971022 92.2831661048 -456.999971022 92.12109375 83.2646484375 c 2,8,-1
 91.98828125 525.9921875 l 1,9,-1
 350.877929688 526.041015625 l 1,10,-1
 350.877929688 84.46484375 l 2,11,12
 350.999843235 -187.650094392 350.999843235 -187.650094392 676.271484375 -187.643554688 c 2,13,-1
 724.84375 -187.642578125 l 1,14,-1
 798.071289062 -187.0546875 l 2,15,16
 1147.33261428 -183.997088137 1147.33261428 -183.997088137 1147.16210938 88.5322265625 c 2,17,-1
 1146.7890625 684.797851562 l 1,18,-1
 1408.26757812 684.931640625 l 1,19,-1
 1408.26757812 459.271484375 l 2,20,21
 1408 358 1408 358 1452.52050781 313.3515625 c 0,22,23
 1497.30066946 268.700195311 1497.30066946 268.700195311 1597.40722656 268.700195312 c 2,24,-1
 1664.953125 268.700195312 l 1,25,-1
 1664.953125 -0.48046875 l 1,26,-1
 1573.19433594 -0.48046875 l 6,0,1
EndSplineSet
EndChar

StartChar: uniFBE8
Encoding: 64488 64488 120
Width: 718
VWidth: 2593
GlyphClass: 2
Flags: W
AnchorPoint: "Anchor-10" 379.938 1261.35 basechar 0
AnchorPoint: "Anchor-7" 417.497 -101.32 basechar 0
LayerCount: 2
Fore
SplineSet
626.322265625 451.46875 m 2,0,1
 626.322265625 234.38671875 626.322265625 234.38671875 528.633789062 117.16015625 c 128,-1,2
 430.944335938 -0.06640625 430.944335938 -0.06640625 242.688476562 -0.06640625 c 2,3,-1
 -12.53515625 -0.06640625 l 5,4,-1
 -12.53515625 269.23046875 l 1,5,-1
 227.540039062 269.23046875 l 2,6,7
 299 269 299 269 333.283203125 308.252929688 c 128,-1,8
 367.56640625 347.505859375 367.56640625 347.505859375 367.56640625 445.623046875 c 2,9,-1
 367.56640625 772.689453125 l 1,10,-1
 626.322265625 772.689453125 l 1,11,-1
 626.322265625 451.46875 l 2,0,1
EndSplineSet
EndChar

StartChar: uniFBE9
Encoding: 64489 64489 121
Width: 877
VWidth: 2593
GlyphClass: 2
Flags: W
AnchorPoint: "Anchor-10" 369.939 1167.45 basechar 0
AnchorPoint: "Anchor-7" 348.812 -106.016 basechar 0
LayerCount: 2
Fore
SplineSet
791.33203125 -0.06640625 m 6,0,1
 615.06640625 -0.06640625 615.06640625 -0.06640625 503.862304688 111.366210938 c 5,2,3
 394.935546875 -0.06640625 394.935546875 -0.06640625 216.1484375 -0.06640625 c 6,4,-1
 -8.55859375 -0.06640625 l 5,5,-1
 -8.55859375 269.23046875 l 5,6,-1
 161.158203125 269.23046875 l 6,7,8
 275 269 275 269 323.8359375 309.366210938 c 132,-1,9
 372.671875 349.728515625 372.671875 349.728515625 372.671875 438.358398438 c 6,10,-1
 372.671875 732.372070312 l 5,11,-1
 637.15625 732.372070312 l 5,12,-1
 637.15625 438.336914062 l 6,13,14
 637 351 637 351 688.43359375 310.053710938 c 132,-1,15
 739.7109375 269.23046875 739.7109375 269.23046875 860.405273438 269.23046875 c 6,16,-1
 886.2265625 269.23046875 l 5,17,-1
 886.2265625 -0.06640625 l 5,18,-1
 791.33203125 -0.06640625 l 6,0,1
EndSplineSet
EndChar

StartChar: uniFE73
Encoding: 65139 65139 129
Width: 683
VWidth: 2553
GlyphClass: 2
Flags: W
AnchorPoint: "Anchor-10" 252.404 1490.29 basechar 0
AnchorPoint: "Anchor-7" 252.404 -142.32 basechar 0
LayerCount: 2
Fore
SplineSet
342.298828125 400.2109375 m 2,0,1
 342.298828125 320.515620792 342.298828125 320.515620792 408.206542969 254.607908052 c 128,-1,2
 474.114257812 188.700195312 474.114257812 188.700195312 609.067382812 188.700195312 c 2,3,-1
 677.61328125 188.700195312 l 1,4,-1
 677.61328125 8.9091796875 l 1,5,-1
 539.997070312 8.9091796875 l 2,6,7
 372.288085938 8.9091796875 372.288085938 8.9091796875 267.398925781 113.798339844 c 128,-1,8
 162.509765625 218.6875 162.509765625 218.6875 162.509765625 385.141601562 c 2,9,-1
 162.509765625 413.498046875 l 1,10,-1
 342.298828125 413.498046875 l 1,11,-1
 342.298828125 400.2109375 l 2,0,1
EndSplineSet
EndChar

StartChar: uniFE8E
Encoding: 65166 65166 155
Width: 591
VWidth: 2593
GlyphClass: 2
Flags: W
AnchorPoint: "Anchor-10" 290.923 1533.04 basechar 0
AnchorPoint: "Anchor-7" 305.009 -252.554 basechar 0
LayerCount: 2
Fore
SplineSet
416.448242188 466.135742188 m 6,0,1
 416.448242188 359.294921875 416.448242188 359.294921875 454.194335938 313.68359375 c 4,2,3
 491.809570312 268.23046875 491.809570312 268.23046875 574.014648438 268.23046875 c 6,4,-1
 601.901367188 268.23046875 l 5,5,-1
 601.901367188 -1.06640625 l 5,6,-1
 581.221679688 -1.06640625 l 6,7,8
 375 -1 375 -1 266.665039062 117.015625 c 4,9,10
 157.69140625 236.337890625 157.69140625 236.337890625 157.69140625 457.182617188 c 6,11,-1
 157.69140625 1387.18847656 l 5,12,-1
 416.448242188 1387.18847656 l 5,13,-1
 416.448242188 466.135742188 l 6,0,1
EndSplineSet
EndChar

StartChar: uniFEA2
Encoding: 65186 65186 175
Width: 1410
VWidth: 2553
GlyphClass: 2
Flags: W
AnchorPoint: "Anchor-10" 718.761 1501.94 basechar 0
AnchorPoint: "Anchor-7" 522.334 -853.653 basechar 0
LayerCount: 2
Fore
SplineSet
1402.73242188 -0.48046875 m 2,0,1
 1006.11717558 -0.48046875 1006.11717558 -0.48046875 942.77734375 259.239257812 c 1,2,3
 348 157 348 157 346.6875 -157.938476562 c 0,4,5
 346 -326 346 -326 468.08203125 -408.947265625 c 0,6,7
 590.49224379 -492.335325409 590.49224379 -492.335325409 855.451171875 -492.172851562 c 2,8,-1
 1309.33007812 -491.89453125 l 1,9,-1
 1309.33007812 -755.55859375 l 1,10,-1
 843.388671875 -754.58203125 l 2,11,12
 439 -754 439 -754 263.681640625 -585.651367188 c 0,13,14
 88 -417 88 -417 91.1123046875 -175.166015625 c 0,15,16
 97 384 97 384 923.203125 519.7265625 c 1,17,-1
 758.169921875 596.186523438 l 2,18,19
 603.917156789 668.038588973 603.917156789 668.038588973 504.141601562 592.567382812 c 2,20,-1
 318.6875 452.288085938 l 1,21,-1
 149.193359375 642.698242188 l 1,22,-1
 326.234375 792.055664062 l 2,23,24
 460 905 460 905 611.848632812 905.236328125 c 0,25,26
 718.043495564 904.999903164 718.043495564 904.999903164 829.854492188 849.268554688 c 2,27,-1
 1150.87402344 689.258789062 l 2,28,29
 1306.31888892 611.841180873 1306.31888892 611.841180873 1306.26367188 506.504882812 c 2,30,-1
 1306.16992188 327.66015625 l 1,31,-1
 1269.80761719 324.357421875 l 2,32,33
 1211 319 1211 319 1172.2890625 312.53515625 c 1,34,35
 1205.7198567 268.698242188 1205.7198567 268.698242188 1364.16308594 268.698242188 c 2,36,-1
 1422.23925781 268.698242188 l 1,37,-1
 1422.23925781 -0.48046875 l 1,38,-1
 1402.73242188 -0.48046875 l 2,0,1
EndSplineSet
EndChar

StartChar: uniFEA3
Encoding: 65187 65187 176
Width: 1333
VWidth: 2553
GlyphClass: 2
Flags: W
LayerCount: 2
Fore
SplineSet
996.604492188 224.133789062 m 2,0,-1
 834.58984375 133.125 l 2,1,2
 598.110169533 0.0619904848879 598.110169533 0.0619904848879 322.0078125 0 c 2,3,-1
 -8.55859375 -0.07421875 l 1,4,-1
 -8.55859375 269.190429688 l 1,5,-1
 319.955078125 269.603515625 l 2,6,7
 525.460175546 270.000889817 525.460175546 270.000889817 686.943359375 351.692382812 c 2,8,-1
 856.943359375 437.692382812 l 2,9,10
 881 450 881 450 900.114257812 459.764648438 c 1,11,-1
 644.5546875 592.506835938 l 2,12,13
 574 629 574 629 509.889472968 629.218876397 c 0,14,15
 446.204814694 629.000701666 446.204814694 629.000701666 392.130859375 588.098632812 c 2,16,-1
 206.676757812 447.819335938 l 1,17,-1
 37.1826171875 638.229492188 l 1,18,-1
 214.225585938 787.588867188 l 2,19,20
 352 904 352 904 500.899689071 903.976142028 c 0,21,22
 607.200240063 904.000045026 607.200240063 904.000045026 718.866210938 844.271484375 c 2,23,-1
 1062.87207031 660.267578125 l 2,24,25
 1219 577 1219 577 1219.21679688 466.421875 c 4,26,27
 1219 349 1219 349 996.604492188 224.133789062 c 2,0,-1
EndSplineSet
EndChar

StartChar: uniFEA4
Encoding: 65188 65188 177
Width: 1319
VWidth: 2553
GlyphClass: 2
Flags: W
AnchorPoint: "Anchor-10" 454.527 1259.29 basechar 0
AnchorPoint: "Anchor-7" 494.433 -251.487 basechar 0
LayerCount: 2
Fore
SplineSet
907.530273438 172.828125 m 1,0,-1
 833.270507812 131.948242188 l 2,1,2
 594.110351562 0.0615234375 594.110351562 0.0615234375 322.0078125 0 c 2,3,-1
 -8.55859375 -0.07421875 l 1,4,-1
 -8.55859375 269.190429688 l 1,5,-1
 319.927734375 269.603515625 l 2,6,7
 528.934570312 270 528.934570312 270 685.77734375 350.608398438 c 2,8,-1
 898.749023438 460.063476562 l 1,9,-1
 644.37890625 593.598632812 l 2,10,11
 579 628 579 628 511.33203125 627.993164062 c 128,-1,12
 443.559570312 628 443.559570312 628 392.130859375 589.098632812 c 2,13,-1
 206.676757812 448.819335938 l 1,14,-1
 37.1826171875 639.229492188 l 1,15,-1
 214.190429688 788.559570312 l 2,16,17
 349 902 349 902 499.813476562 901.767578125 c 0,18,19
 613.689453125 901.999023438 613.689453125 901.999023438 718.98828125 845.206054688 c 2,20,-1
 1062.015625 660.19140625 l 2,21,22
 1216 577 1216 577 1215.95117188 484.078125 c 128,-1,23
 1216 391 1216 391 1107.07324219 301.231445312 c 1,24,25
 1157.25195312 269.473632812 1157.25195312 269.473632812 1233.20800781 269.09765625 c 2,26,-1
 1329.17773438 268.622070312 l 1,27,-1
 1329.17871094 0 l 1,28,-1
 1236.07324219 0 l 2,29,30
 1028 0 1028 0 907.530273438 172.828125 c 1,0,-1
EndSplineSet
EndChar

StartChar: uniFEAA
Encoding: 65194 65194 183
Width: 1255
VWidth: 2593
GlyphClass: 2
Flags: W
AnchorPoint: "Anchor-10" 443.389 1356.77 basechar 0
AnchorPoint: "Anchor-7" 374.739 -246.099 basechar 0
LayerCount: 2
Fore
SplineSet
916.71484375 130.831054688 m 1,0,1
 813 14 813 14 604.107421875 -1.0712890625 c 1,2,-1
 91.8994140625 -1.060546875 l 1,3,-1
 91.8994140625 268.313476562 l 1,4,-1
 399.760742188 268.223632812 l 2,5,6
 624 268 624 268 668.5 286.5 c 128,-1,7
 713 305 713 305 720 326.5 c 0,8,9
 735 374 735 374 646.512695312 478.795898438 c 0,10,11
 621 509 621 509 617.768554688 513.137695312 c 2,12,-1
 325.15625 853.671875 l 1,13,-1
 513.791015625 1040.78808594 l 1,14,-1
 993.178710938 450.32421875 l 2,15,16
 1137.261214 272.677936636 1137.261214 272.677936636 1242.96191406 269.055664062 c 2,17,-1
 1265.18945312 268.293945312 l 1,18,-1
 1265.18945312 -0.48046875 l 1,19,-1
 1237.19335938 -0.48046875 l 1,20,21
 1064 1 1064 1 916.71484375 130.831054688 c 1,0,1
EndSplineSet
EndChar

StartChar: uniFEAE
Encoding: 65198 65198 187
Width: 922
VWidth: 2593
GlyphClass: 2
Flags: W
AnchorPoint: "Anchor-10" 429.643 988.634 basechar 0
AnchorPoint: "Anchor-7" 313.358 -717.397 basechar 0
LayerCount: 2
Fore
SplineSet
746.383789062 22.69921875 m 2,0,1
 746.383789062 -512.701390664 746.383789062 -512.701390664 164.333984375 -512.412109375 c 6,2,-1
 20.896484375 -512.340820312 l 5,3,-1
 20.9013671875 -244.16796875 l 5,4,-1
 159.612304688 -244.265625 l 6,5,6
 480.584960938 -244.000343027 480.584960938 -244.000343027 480.584960938 21.5498046875 c 2,7,-1
 480.584960938 628.3984375 l 1,8,-1
 745.209960938 629.913085938 l 1,9,-1
 745.209960938 385.975585938 l 2,10,11
 745 327 745 327 783.848618289 297.615234375 c 128,-1,12
 822.695319987 268.23046875 822.695319987 268.23046875 911.923828125 268.23046875 c 2,13,-1
 934.022460938 268.23046875 l 1,14,-1
 934.022460938 -1.06640625 l 1,15,-1
 910.895507812 -1.06640625 l 2,16,17
 816 -1 816 -1 746.383789062 36.7158203125 c 1,18,-1
 746.383789062 22.69921875 l 2,0,1
EndSplineSet
PairPos2: "'kern' Horizontal Kerning lookup 15-1" uniFEFB dx=-100 dy=0 dh=-100 dv=0 dx=0 dy=0 dh=0 dv=0
PairPos2: "'kern' Horizontal Kerning lookup 15-1" uniFEDF dx=-100 dy=0 dh=-100 dv=0 dx=0 dy=0 dh=0 dv=0
PairPos2: "'kern' Horizontal Kerning lookup 15-1" uni062F dx=-100 dy=0 dh=-100 dv=0 dx=0 dy=0 dh=0 dv=0
PairPos2: "'kern' Horizontal Kerning lookup 15-2" uniFB90 dx=-142 dy=0 dh=-142 dv=0 dx=0 dy=0 dh=0 dv=0
PairPos2: "'kern' Horizontal Kerning lookup 15-2" uniFB8E dx=-142 dy=0 dh=-142 dv=0 dx=0 dy=0 dh=0 dv=0
PairPos2: "'kern' Horizontal Kerning lookup 15-2" uni06A9 dx=-142 dy=0 dh=-142 dv=0 dx=0 dy=0 dh=0 dv=0
PairPos2: "'kern' Horizontal Kerning lookup 15-2" uniFEEB dx=-100 dy=0 dh=-100 dv=0 dx=0 dy=0 dh=0 dv=0
PairPos2: "'kern' Horizontal Kerning lookup 15-2" uni0647 dx=-100 dy=0 dh=-100 dv=0 dx=0 dy=0 dh=0 dv=0
PairPos2: "'kern' Horizontal Kerning lookup 15-2" uniFEE7 dx=-100 dy=0 dh=-100 dv=0 dx=0 dy=0 dh=0 dv=0
PairPos2: "'kern' Horizontal Kerning lookup 15-2" uniFEE3 dx=-100 dy=0 dh=-100 dv=0 dx=0 dy=0 dh=0 dv=0
PairPos2: "'kern' Horizontal Kerning lookup 15-2" uni0645 dx=-100 dy=0 dh=-100 dv=0 dx=0 dy=0 dh=0 dv=0
PairPos2: "'kern' Horizontal Kerning lookup 15-2" uniFEDB dx=-142 dy=0 dh=-142 dv=0 dx=0 dy=0 dh=0 dv=0
PairPos2: "'kern' Horizontal Kerning lookup 15-2" uni0643 dx=-100 dy=0 dh=-100 dv=0 dx=0 dy=0 dh=0 dv=0
PairPos2: "'kern' Horizontal Kerning lookup 15-2" uniFED7 dx=-100 dy=0 dh=-100 dv=0 dx=0 dy=0 dh=0 dv=0
PairPos2: "'kern' Horizontal Kerning lookup 15-2" uniFED3 dx=-100 dy=0 dh=-100 dv=0 dx=0 dy=0 dh=0 dv=0
PairPos2: "'kern' Horizontal Kerning lookup 15-2" uni0641 dx=-100 dy=0 dh=-100 dv=0 dx=0 dy=0 dh=0 dv=0
PairPos2: "'kern' Horizontal Kerning lookup 15-2" uniFECF dx=-100 dy=0 dh=-100 dv=0 dx=0 dy=0 dh=0 dv=0
PairPos2: "'kern' Horizontal Kerning lookup 15-2" uniFECB dx=-100 dy=0 dh=-100 dv=0 dx=0 dy=0 dh=0 dv=0
PairPos2: "'kern' Horizontal Kerning lookup 15-2" uniFEC7 dx=-100 dy=0 dh=-100 dv=0 dx=0 dy=0 dh=0 dv=0
PairPos2: "'kern' Horizontal Kerning lookup 15-2" uni0638 dx=-100 dy=0 dh=-100 dv=0 dx=0 dy=0 dh=0 dv=0
PairPos2: "'kern' Horizontal Kerning lookup 15-2" uniFEC3 dx=-100 dy=0 dh=-100 dv=0 dx=0 dy=0 dh=0 dv=0
PairPos2: "'kern' Horizontal Kerning lookup 15-2" uni0637 dx=-100 dy=0 dh=-100 dv=0 dx=0 dy=0 dh=0 dv=0
PairPos2: "'kern' Horizontal Kerning lookup 15-2" uniFEBF dx=-100 dy=0 dh=-100 dv=0 dx=0 dy=0 dh=0 dv=0
PairPos2: "'kern' Horizontal Kerning lookup 15-2" uni0636 dx=-100 dy=0 dh=-100 dv=0 dx=0 dy=0 dh=0 dv=0
PairPos2: "'kern' Horizontal Kerning lookup 15-2" uniFEBB dx=-100 dy=0 dh=-100 dv=0 dx=0 dy=0 dh=0 dv=0
PairPos2: "'kern' Horizontal Kerning lookup 15-2" uni0635 dx=-100 dy=0 dh=-100 dv=0 dx=0 dy=0 dh=0 dv=0
PairPos2: "'kern' Horizontal Kerning lookup 15-2" uniFEB7 dx=-100 dy=0 dh=-100 dv=0 dx=0 dy=0 dh=0 dv=0
PairPos2: "'kern' Horizontal Kerning lookup 15-2" uni0634 dx=-100 dy=0 dh=-100 dv=0 dx=0 dy=0 dh=0 dv=0
PairPos2: "'kern' Horizontal Kerning lookup 15-2" uniFEB3 dx=-100 dy=0 dh=-100 dv=0 dx=0 dy=0 dh=0 dv=0
PairPos2: "'kern' Horizontal Kerning lookup 15-2" uni0633 dx=-100 dy=0 dh=-100 dv=0 dx=0 dy=0 dh=0 dv=0
PairPos2: "'kern' Horizontal Kerning lookup 15-2" uniFEA7 dx=-100 dy=0 dh=-100 dv=0 dx=0 dy=0 dh=0 dv=0
PairPos2: "'kern' Horizontal Kerning lookup 15-2" uniFEA3 dx=-100 dy=0 dh=-100 dv=0 dx=0 dy=0 dh=0 dv=0
PairPos2: "'kern' Horizontal Kerning lookup 15-2" uniFE9F dx=-100 dy=0 dh=-100 dv=0 dx=0 dy=0 dh=0 dv=0
PairPos2: "'kern' Horizontal Kerning lookup 15-2" uniFE9B dx=-100 dy=0 dh=-100 dv=0 dx=0 dy=0 dh=0 dv=0
PairPos2: "'kern' Horizontal Kerning lookup 15-2" uni062B dx=-100 dy=0 dh=-100 dv=0 dx=0 dy=0 dh=0 dv=0
PairPos2: "'kern' Horizontal Kerning lookup 15-2" uniFE97 dx=-100 dy=0 dh=-100 dv=0 dx=0 dy=0 dh=0 dv=0
PairPos2: "'kern' Horizontal Kerning lookup 15-2" uni062A dx=-100 dy=0 dh=-100 dv=0 dx=0 dy=0 dh=0 dv=0
PairPos2: "'kern' Horizontal Kerning lookup 15-2" uni0629 dx=-100 dy=0 dh=-100 dv=0 dx=0 dy=0 dh=0 dv=0
PairPos2: "'kern' Horizontal Kerning lookup 15-2" uniFE91 dx=-47 dy=0 dh=-47 dv=0 dx=0 dy=0 dh=0 dv=0
PairPos2: "'kern' Horizontal Kerning lookup 15-2" uni0628 dx=-100 dy=0 dh=-100 dv=0 dx=0 dy=0 dh=0 dv=0
PairPos2: "'kern' Horizontal Kerning lookup 15-2" uni0627 dx=-100 dy=0 dh=-100 dv=0 dx=0 dy=0 dh=0 dv=0
PairPos2: "'kern' Horizontal Kerning lookup 15-2" uni0622 dx=-100 dy=0 dh=-100 dv=0 dx=0 dy=0 dh=0 dv=0
PairPos2: "'kern' Horizontal Kerning lookup 15-2" uni0621 dx=-100 dy=0 dh=-100 dv=0 dx=0 dy=0 dh=0 dv=0
PairPos2: "'kern' Horizontal Kerning lookup 15-2" uniFB94 dx=-142 dy=0 dh=-142 dv=0 dx=0 dy=0 dh=0 dv=0
PairPos2: "'kern' Horizontal Kerning lookup 15-2" uniFB92 dx=-142 dy=0 dh=-142 dv=0 dx=0 dy=0 dh=0 dv=0
PairPos2: "'kern' Horizontal Kerning lookup 15-2" afii57509 dx=-142 dy=0 dh=-142 dv=0 dx=0 dy=0 dh=0 dv=0
PairPos2: "'kern' Horizontal Kerning lookup 15-2" uniFB7C dx=-100 dy=0 dh=-100 dv=0 dx=0 dy=0 dh=0 dv=0
PairPos2: "'kern' Horizontal Kerning lookup 15-2" afii57506 dx=-100 dy=0 dh=-100 dv=0 dx=0 dy=0 dh=0 dv=0
PairPos2: "'kern' Horizontal Kerning lookup 15-2" afii57440 dx=-100 dy=0 dh=-100 dv=0 dx=0 dy=0 dh=0 dv=0
EndChar

StartChar: uniFEB2
Encoding: 65202 65202 191
Width: 2687
VWidth: 2593
GlyphClass: 2
Flags: W
AnchorPoint: "Anchor-10" 725.089 1069.03 basechar 0
AnchorPoint: "Anchor-7" 302.557 -585.885 basechar 0
LayerCount: 2
Fore
SplineSet
1587.94433594 -1.029296875 m 0,0,1
 1470 0 1470 0 1400.04101562 64.7431640625 c 1,2,3
 1374 -434 1374 -434 770.025390625 -452.787109375 c 1,4,-1
 742.23828125 -452.787109375 l 1,5,-1
 741.243164062 -452.787109375 l 2,6,7
 425 -453 425 -453 258.44921875 -317.458984375 c 0,8,9
 92.2561959845 -182.20849631 92.2561959845 -182.20849631 92.16015625 83.2763671875 c 2,10,-1
 92 526 l 1,11,-1
 350.91796875 526.033203125 l 1,12,-1
 350.91796875 84.4580078125 l 2,13,14
 351.000150358 -183.490234375 351.000150358 -183.490234375 744.396484375 -183.490234375 c 2,15,-1
 769.2578125 -183.490234375 l 1,16,-1
 796.552734375 -182.91015625 l 2,17,18
 1145.02087379 -175.999586046 1145.02087379 -175.999586046 1144.88574219 88.53515625 c 2,19,-1
 1144.55664062 732.787109375 l 1,20,-1
 1414.78808594 733.025390625 l 1,21,-1
 1415.48339844 423.245117188 l 2,22,23
 1416 258 1416 258 1572.28613281 257.494140625 c 0,24,25
 1692.18936198 256.999218374 1692.18936198 256.999218374 1691.69042969 436.658203125 c 2,26,-1
 1690.87011719 732.041992188 l 5,27,-1
 1944.83007812 732.041992188 l 5,28,-1
 1945.58886719 430.748046875 l 2,29,30
 1946 259 1946 259 2073.625 258.493164062 c 0,31,32
 2193.39550781 257.978222549 2193.39550781 257.978222549 2193.39550781 451.665039062 c 2,33,-1
 2193.39550781 733.979492188 l 1,34,-1
 2452.15234375 733.979492188 l 1,35,-1
 2452.15234375 457.622070312 l 2,36,37
 2452 358 2452 358 2497.56835938 313.142578125 c 0,38,39
 2543.30855966 268.700195312 2543.30855966 268.700195312 2646.48144531 268.700195312 c 2,40,-1
 2697.71191406 268.700195312 l 1,41,-1
 2697.71191406 -0.48046875 l 1,42,-1
 2612.89160156 -0.48046875 l 2,43,44
 2425 -0 2425 -0 2327.30761719 115.874023438 c 1,45,46
 2217 -1 2217 -1 2077.3984375 -1.06640625 c 0,47,48
 1897 -1 1897 -1 1812.56152344 126.634765625 c 1,49,50
 1734 -2 1734 -2 1587.94433594 -1.029296875 c 0,0,1
EndSplineSet
EndChar

StartChar: uniFEB3
Encoding: 65203 65203 192
Width: 1614
VWidth: 2593
GlyphClass: 2
Flags: W
AnchorPoint: "Anchor-10" 744.679 1153.53 basechar 0
AnchorPoint: "Anchor-7" 904.307 -287.179 basechar 0
LayerCount: 2
Fore
SplineSet
361.203125 121.516601562 m 1,0,1
 242.935931734 -1.06640625 242.935931734 -1.06640625 88.82421875 -1.06640625 c 2,2,-1
 -12.9033203125 -1.06640625 l 1,3,-1
 -12.9033203125 268.23046875 l 1,4,-1
 19.732421875 268.23046875 l 2,5,6
 166 268 166 268 206.762695312 343.747070312 c 0,7,8
 227.267935696 381.493217343 227.267935696 381.493217343 227.376953125 442.033203125 c 2,9,-1
 227.895507812 729.999023438 l 1,10,-1
 485.653320312 729.999023438 l 1,11,-1
 486.34765625 437.569335938 l 2,12,13
 487 267 487 267 637.422851562 268.5 c 0,14,15
 754.660920034 269.99567416 754.660920034 269.99567416 754.215820312 432.587890625 c 2,16,-1
 753.3984375 731.172851562 l 1,17,-1
 1011.6171875 731.172851562 l 1,18,-1
 1012.37695312 434.125 l 2,19,20
 1013 269 1013 269 1145.99755859 268.450195312 c 0,21,22
 1263.484375 267.99813625 1263.484375 267.99813625 1263.484375 432.9921875 c 2,23,-1
 1263.484375 771.362304688 l 5,24,-1
 1522.2421875 771.362304688 l 5,25,-1
 1522.2421875 431.955078125 l 1,26,27
 1521 -0 1521 -0 1152.78076172 -0.67626953125 c 0,28,29
 965 -1 965 -1 878.701171875 125.662109375 c 1,30,31
 800 -1 800 -1 626.067382812 -0.96875 c 128,-1,32
 452 -1 452 -1 361.203125 121.516601562 c 1,0,1
EndSplineSet
EndChar

StartChar: uniFEB4
Encoding: 65204 65204 193
Width: 1771
VWidth: 2588
GlyphClass: 2
Flags: W
AnchorPoint: "Anchor-10" 850.65 1147.67 basechar 0
AnchorPoint: "Anchor-7" 862.824 -247.272 basechar 0
LayerCount: 2
Fore
SplineSet
383.348632812 121.838867188 m 1,0,1
 293.95169845 -1.06640625 293.95169845 -1.06640625 89.7490234375 -1.06640625 c 2,2,-1
 -10.236328125 -1.06640625 l 1,3,-1
 -10.236328125 268.227539062 l 1,4,-1
 47.953125 268.229492188 l 1,5,6
 200 269 200 269 230.829101562 334.176757812 c 0,7,8
 249.25314377 375.568719783 249.25314377 375.568719783 248.880859375 415.547851562 c 2,9,-1
 245.946289062 730.6875 l 5,10,-1
 514.5546875 730.6875 l 5,11,-1
 514.108398438 424.13671875 l 2,12,13
 514 269 514 269 638.241210938 268.974609375 c 0,14,15
 776.313384928 269.000057761 776.313384928 269.000057761 776.149414062 424.692382812 c 2,16,-1
 775.827148438 730.6875 l 5,17,-1
 1030.74902344 730.6875 l 5,18,-1
 1032.34472656 426.975585938 l 2,19,20
 1033 341 1033 341 1065.56152344 304.9609375 c 128,-1,21
 1098 269 1098 269 1163.16954264 269.068721192 c 0,22,23
 1282.70856056 269.000167137 1282.70856056 269.000167137 1283.10644531 420.3125 c 2,24,-1
 1283.92285156 730.78515625 l 1,25,-1
 1527.04199219 730.78515625 l 1,26,-1
 1527.01757812 457.540039062 l 2,27,28
 1527 353 1527 353 1598.83398438 298.635742188 c 0,29,30
 1637.62185249 269.286132812 1637.62185249 269.286132812 1719.37304688 269.286132812 c 2,31,-1
 1780.8046875 269.286132812 l 1,32,-1
 1780.8046875 -1.06640625 l 1,33,-1
 1666.80078125 -1.06640625 l 2,34,35
 1506 -1 1506 -1 1415.60253906 117.942382812 c 1,36,37
 1342 -1 1342 -1 1168.42669759 -0.0191152045766 c 128,-1,38
 995 1 995 1 903.119140625 128.510742188 c 1,39,40
 825 3 825 3 651.163860753 2.99514021664 c 0,41,42
 478 3 478 3 383.348632812 121.838867188 c 1,0,1
EndSplineSet
EndChar

StartChar: uniFEBA
Encoding: 65210 65210 199
Width: 2632
VWidth: 2553
GlyphClass: 2
Flags: W
AnchorPoint: "Anchor-10" 733.398 1186.4 basechar 0
AnchorPoint: "Anchor-7" 351.946 -652.786 basechar 0
LayerCount: 2
Fore
SplineSet
2221.17480469 402.668945312 m 0,0,1
 2221.17480469 479.51953125 2221.17480469 479.51953125 2181.17480469 536.51953125 c 128,-1,2
 2141.17480469 593.51953125 2141.17480469 593.51953125 2054.96777344 593.118164062 c 0,3,4
 1873.17480469 593.51953125 1873.17480469 593.51953125 1716.71191406 281.046875 c 1,5,-1
 2011.37402344 281.046875 l 2,6,7
 2221.17480469 281.51953125 2221.17480469 281.51953125 2221.17480469 402.668945312 c 0,0,1
1399.76757812 56.0400390625 m 1,8,9
 1382.08789062 -434.061523438 1382.08789062 -434.061523438 768.985351562 -452.787109375 c 6,10,-1
 741.201171875 -452.787109375 l 2,11,12
 91.2829492902 -453.223304159 91.2829492902 -453.223304159 91.12109375 83.2646484375 c 2,13,-1
 90.98828125 525.9921875 l 1,14,-1
 349.877929688 526.041015625 l 1,15,-1
 349.877929688 84.46484375 l 2,16,17
 350.243541013 -183.490234375 350.243541013 -183.490234375 743.356445312 -183.490234375 c 2,18,-1
 768.217773438 -183.490234375 l 1,19,-1
 795.532226562 -182.91015625 l 2,20,21
 1144.00084282 -175.442718509 1144.00084282 -175.442718509 1143.84570312 88.5341796875 c 2,22,-1
 1143.47363281 724.797851562 l 1,23,-1
 1404.92675781 724.931640625 l 1,24,-1
 1405.0390625 516.595703125 l 2,25,26
 1405 371 1405 371 1458.23535156 328.073242188 c 1,27,28
 1696 848 1696 848 2027.58300781 848.51953125 c 0,29,30
 2257 849 2257 849 2377.07324219 690.561523438 c 0,31,32
 2495.61132812 532.0859375 2495.61132812 532.0859375 2465.46679688 323.465820312 c 1,33,34
 2527.75195312 268.219726562 2527.75195312 268.219726562 2621.29296875 268.219726562 c 2,35,-1
 2647.67382812 268.219726562 l 1,36,-1
 2647.67382812 -0.9609375 l 1,37,-1
 2610.17675781 -0.9609375 l 2,38,39
 2453 -1 2453 -1 2338.75292969 97.3427734375 c 1,40,41
 2215.76757812 -0.18359375 2215.76757812 -0.18359375 1991.46582031 -0.2958984375 c 2,42,-1
 1621.44824219 -0.48046875 l 2,43,44
 1464 -1 1464 -1 1399.76757812 56.0400390625 c 1,8,9
EndSplineSet
EndChar

StartChar: uniFEBB
Encoding: 65211 65211 200
Width: 1664
VWidth: 2553
GlyphClass: 2
Flags: W
AnchorPoint: "Anchor-10" 630.109 1330.04 basechar 0
AnchorPoint: "Anchor-7" 630.109 -186.146 basechar 0
LayerCount: 2
Fore
SplineSet
1321 403.149414062 m 4,0,1
 1321 480 1321 480 1281 537 c 132,-1,2
 1241 594 1241 594 1154.79296875 593.598632812 c 4,3,4
 973 594 973 594 816.537109375 281.52734375 c 5,5,-1
 1111.19921875 281.52734375 l 6,6,7
 1321 282 1321 282 1321 403.149414062 c 4,0,1
552.995117188 317.272460938 m 1,8,9
 793 849 793 849 1127.5 849 c 0,10,11
 1358 849 1358 849 1476.9140625 692.021484375 c 0,12,13
 1570 568 1570 568 1570.49971093 386.690676668 c 0,14,15
 1571 205 1571 205 1444.83154297 102.639648438 c 0,16,17
 1319.36173717 0.295065727567 1319.36173717 0.295065727567 1091.29101562 0.1845703125 c 2,18,-1
 710.32421875 0 l 2,19,20
 479 -0 479 -0 370.763671875 106.540039062 c 1,21,22
 271.910376972 -0.0966796875 271.910376972 -0.0966796875 58.154296875 -0.0966796875 c 2,23,-1
 -15.9033203125 -0.0966796875 l 1,24,-1
 -15.9033203125 269.200195312 l 1,25,-1
 51.291015625 269.200195312 l 2,26,27
 227.774414062 269.000255568 227.774414062 269.000255568 227.774414062 437.534179688 c 2,28,-1
 227.774414062 733.1796875 l 1,29,-1
 484.576171875 733.1796875 l 1,30,-1
 485.828125 444.223632812 l 2,31,32
 486 331 486 331 552.995117188 317.272460938 c 1,8,9
EndSplineSet
EndChar

StartChar: uniFEBC
Encoding: 65212 65212 201
Width: 1734
VWidth: 2553
GlyphClass: 2
Flags: W
AnchorPoint: "Anchor-10" 689.854 1292.04 basechar 0
AnchorPoint: "Anchor-7" 719.196 -263.704 basechar 0
LayerCount: 2
Fore
SplineSet
1321 403.149414062 m 0,0,1
 1321 480 1321 480 1281 537 c 128,-1,2
 1241 594 1241 594 1154.79296875 593.598632812 c 0,3,4
 973 594 973 594 816.537109375 281.52734375 c 1,5,-1
 1111.19921875 281.52734375 l 2,6,7
 1321 282 1321 282 1321 403.149414062 c 0,0,1
1565.38574219 323.974609375 m 1,8,9
 1628.3414676 268.700195312 1628.3414676 268.700195312 1721.11816406 268.700195312 c 2,10,-1
 1748.49902344 268.700195312 l 1,11,-1
 1748.49902344 -0.48046875 l 1,12,-1
 1709.93261719 -0.48046875 l 2,13,14
 1627 -0 1627 -0 1438.55175781 97.806640625 c 1,15,16
 1315.37437151 0.29636179047 1315.37437151 0.29636179047 1091.29101562 0.1845703125 c 2,17,-1
 721.32421875 0 l 2,18,19
 480 -0 480 -0 370.637695312 106.404296875 c 1,20,21
 271.910377101 -0.0966796875 271.910377101 -0.0966796875 58.154296875 -0.0966796875 c 2,22,-1
 -14.9033203125 -0.0966796875 l 1,23,-1
 -14.9033203125 269.200195312 l 1,24,-1
 51.291015625 269.200195312 l 2,25,26
 146 269 146 269 186.850585938 308.499023438 c 0,27,28
 227.774414062 347.783450991 227.774414062 347.783450991 227.774414062 437.534179688 c 2,29,-1
 227.774414062 733.1796875 l 1,30,-1
 484.576171875 733.1796875 l 1,31,-1
 485.828125 444.223632812 l 2,32,33
 486 331 486 331 552.995117188 317.272460938 c 1,34,35
 793 849 793 849 1127.5 849 c 0,36,37
 1357 849 1357 849 1476.90136719 691.0390625 c 0,38,39
 1597 532 1597 532 1565.38574219 323.974609375 c 1,8,9
EndSplineSet
EndChar

StartChar: uniFEC2
Encoding: 65218 65218 207
Width: 1427
VWidth: 2553
GlyphClass: 2
Flags: W
AnchorPoint: "Anchor-7" 608.078 -244.734 basechar 0
AnchorPoint: "Anchor-10" 447.545 1486.1 basechar 0
LayerCount: 2
Fore
SplineSet
979.08984375 530.83203125 m 0,0,1
 934.823242188 594 934.823242188 594 848.616210938 593.598632812 c 0,2,3
 666.823242188 594 666.823242188 594 510.360351562 281.52734375 c 1,4,-1
 805.022460938 281.52734375 l 2,5,6
 1014.82324219 282 1014.82324219 282 1014.82324219 403.149414062 c 0,7,8
 1014.82324219 480 1014.82324219 480 979.08984375 530.83203125 c 0,0,1
1404.49316406 0 m 2,9,10
 1247 0 1247 0 1132.94238281 98.373046875 c 1,11,12
 1007.31445312 0.24609375 1007.31445312 0.24609375 784.966796875 0.1845703125 c 2,13,-1
 91.7705078125 -0.005859375 l 1,14,-1
 91.7705078125 269.266601562 l 1,15,-1
 225.125976562 269.045898438 l 1,16,17
 255 345 255 345 315.905273438 461.98828125 c 1,18,-1
 315.905273438 1388.64355469 l 1,19,-1
 571 1388.64355469 l 5,20,-1
 571 759.396484375 l 1,21,22
 695 849 695 849 840.17578125 849 c 0,23,24
 1058 849 1058 849 1172.03515625 695.454101562 c 128,-1,25
 1286 542 1286 542 1259.15625 325.108398438 c 1,26,27
 1322.79394531 269.180664062 1322.79394531 269.180664062 1415.61914062 269.180664062 c 2,28,-1
 1441 269.180664062 l 1,29,-1
 1441 0 l 1,30,-1
 1404.49316406 0 l 2,9,10
EndSplineSet
EndChar

StartChar: uniFEC3
Encoding: 65219 65219 208
Width: 1181
VWidth: 2553
GlyphClass: 2
Flags: W
AnchorPoint: "Anchor-10" 250.277 1477.82 basechar 0
AnchorPoint: "Anchor-7" 348.078 -262.734 basechar 0
LayerCount: 2
Fore
SplineSet
838.514648438 409.154296875 m 0,0,1
 838.838867188 515.154296875 838.838867188 515.154296875 775.717773438 562.6640625 c 0,2,3
 736.838867188 592.154296875 736.838867188 592.154296875 671.958984375 592.162109375 c 0,4,5
 489.838867188 592.154296875 489.838867188 592.154296875 334.051757812 281.681640625 c 1,6,-1
 628.713867188 281.681640625 l 2,7,8
 838.838867188 282.154296875 838.838867188 282.154296875 838.514648438 409.154296875 c 0,0,1
139.744140625 462.142578125 m 1,9,-1
 139.744140625 1388.79785156 l 1,10,-1
 394.838867188 1388.79785156 l 5,11,-1
 394.838867188 759.587890625 l 1,12,13
 518 849 518 849 663.014648438 849.154296875 c 0,14,15
 879 849 879 849 995.4609375 694.133789062 c 0,16,17
 1088 571 1088 571 1088.37011719 388.328125 c 0,18,19
 1089 205 1089 205 962.703125 102.791015625 c 0,20,21
 837.499722312 0.408637128156 837.499722312 0.408637128156 608.805664062 0.3388671875 c 2,22,-1
 -15.390625 0.1484375 l 1,23,-1
 -15.390625 269.420898438 l 1,24,-1
 48.96484375 269.200195312 l 1,25,26
 79 345 79 345 139.744140625 462.142578125 c 1,9,-1
EndSplineSet
EndChar

StartChar: uniFEC4
Encoding: 65220 65220 209
Width: 1255
VWidth: 2553
GlyphClass: 2
Flags: W
AnchorPoint: "Anchor-10" 260.783 1478.53 basechar 0
AnchorPoint: "Anchor-7" 490.837 -254.314 basechar 0
LayerCount: 2
Fore
SplineSet
808.928710938 530.986328125 m 0,0,1
 764.662109375 594.154296875 764.662109375 594.154296875 678.455078125 593.752929688 c 0,2,3
 496.662109375 594.154296875 496.662109375 594.154296875 340.19921875 281.681640625 c 1,4,-1
 634.861328125 281.681640625 l 2,5,6
 844.662109375 282.154296875 844.662109375 282.154296875 844.662109375 403.303710938 c 0,7,8
 844.662109375 480.154296875 844.662109375 480.154296875 808.928710938 530.986328125 c 0,0,1
1234.33203125 0.154296875 m 2,9,10
 1076.8211299 0.154296875 1076.8211299 0.154296875 962.78125 98.52734375 c 1,11,12
 843.495977682 0.407971727962 843.495977682 0.407971727962 614.805664062 0.3388671875 c 2,13,-1
 -15.390625 0.1484375 l 1,14,-1
 -15.390625 269.420898438 l 1,15,-1
 54.96484375 269.200195312 l 1,16,17
 85 345 85 345 145.744140625 462.142578125 c 1,18,-1
 145.744140625 1388.79785156 l 1,19,-1
 400.838867188 1388.79785156 l 5,20,-1
 400.838867188 759.55078125 l 1,21,22
 525 849 525 849 670.014648438 849.154296875 c 0,23,24
 888 849 888 849 1001.87402344 695.608398438 c 0,25,26
 1116 542 1116 542 1088.99511719 325.262695312 c 1,27,28
 1152.61894581 269.334960938 1152.61894581 269.334960938 1245.45800781 269.334960938 c 2,29,-1
 1270.83886719 269.334960938 l 1,30,-1
 1270.83886719 0.154296875 l 1,31,-1
 1234.33203125 0.154296875 l 2,9,10
EndSplineSet
EndChar

StartChar: uniFECA
Encoding: 65226 65226 215
Width: 1319
VWidth: 2553
GlyphClass: 2
Flags: W
AnchorPoint: "Anchor-10" 595.282 1388.27 basechar 0
AnchorPoint: "Anchor-7" 246.935 -751.024 basechar 0
LayerCount: 2
Fore
SplineSet
700.749023438 434.969726562 m 1,0,1
 783 466 783 466 848.028320312 514.865234375 c 0,2,3
 945 587 945 587 849.465820312 618.4375 c 0,4,5
 811 631 811 631 703.522460938 631.232421875 c 0,6,7
 601 632 601 632 552 615 c 0,8,9
 535 609 535 609 529.549804688 594.556640625 c 0,10,11
 518 569 518 569 700.749023438 434.969726562 c 1,0,1
444.025390625 323.728515625 m 1,12,13
 151 548 151 548 295.110351562 744.34375 c 0,14,15
 336 800 336 800 420.693359375 839.842773438 c 0,16,17
 505 880 505 880 707.1328125 880.323242188 c 0,18,19
 980 880 980 880 1087.35351562 780.502929688 c 0,20,21
 1176 698 1176 698 1165.99902344 565.435546875 c 0,22,23
 1154 409 1154 409 940.928710938 288.203125 c 1,24,25
 1078.10877165 268.700195312 1078.10877165 268.700195312 1141.4453125 268.700195312 c 2,26,-1
 1334.79492188 268.700195312 l 5,27,-1
 1334.79492188 -0.48046875 l 5,28,-1
 1170.17675781 -0.48046875 l 2,29,30
 964 -0 964 -0 686.293945312 148.307617188 c 1,31,32
 351 41 351 41 347.681640625 -158.447265625 c 0,33,34
 344.98138371 -345.288130669 344.98138371 -345.288130669 467.182617188 -409.0859375 c 0,35,36
 627.702348499 -492.364381936 627.702348499 -492.364381936 856.442382812 -492.172851562 c 2,37,-1
 1199.33007812 -491.885742188 l 1,38,-1
 1199.33007812 -755.587890625 l 1,39,-1
 844.310546875 -754.58203125 l 2,40,41
 440 -753 440 -753 264.349609375 -585.401367188 c 0,42,43
 89 -418 89 -418 92.1142578125 -175.044921875 c 0,44,45
 98 173 98 173 444.025390625 323.728515625 c 1,12,13
EndSplineSet
EndChar

StartChar: uniFECB
Encoding: 65227 65227 216
Width: 1102
VWidth: 2553
GlyphClass: 2
Flags: W
AnchorPoint: "Anchor-10" 394.602 1461.91 basechar 0
AnchorPoint: "Anchor-7" 545.228 -222.038 basechar 0
LayerCount: 2
Fore
SplineSet
588.620117188 691.75 m 0,0,1
 375 692 375 692 374.927246094 502.446777344 c 0,2,3
 375 427 375 427 451 367 c 4,4,5
 516 315 516 315 584.107463967 310.814933249 c 0,6,7
 655 307 655 307 729.243164062 323.235351562 c 2,8,-1
 1012 385.086914062 l 1,9,-1
 1012 114.805664062 l 1,10,-1
 982.961914062 106.53125 l 2,11,12
 604.653154334 -1.09867858793 604.653154334 -1.09867858793 374.755859375 -1.0859375 c 2,13,-1
 -12.9033203125 -1.064453125 l 1,14,-1
 -12.9033203125 268.219726562 l 1,15,-1
 215.075195312 268.28515625 l 1,16,17
 127 381 127 381 127.352539062 523.286132812 c 0,18,19
 127 711 127 711 248.569824219 835.619628906 c 0,20,21
 370 960 370 960 590.145293105 959.985642149 c 128,-1,22
 810.113423688 960.000007407 810.113423688 960.000007407 944.114257812 794.138671875 c 2,23,-1
 960.93359375 773.3203125 l 1,24,-1
 848.520507812 567.448242188 l 1,25,-1
 810.762695312 604.25 l 2,26,27
 721 692 721 692 588.620117188 691.75 c 0,0,1
EndSplineSet
EndChar

StartChar: uniFECC
Encoding: 65228 65228 217
Width: 1104
VWidth: 2553
GlyphClass: 2
Flags: W
AnchorPoint: "Anchor-10" 505.677 1248.6 basechar 0
AnchorPoint: "Anchor-7" 456.382 -223.212 basechar 0
LayerCount: 2
Fore
SplineSet
730.83984375 550.009765625 m 1,0,1
 730 601 730 601 575.214927107 602.055136925 c 0,2,3
 448 603 448 603 400 587 c 0,4,5
 356.642003784 572.547334595 356.642003784 572.547334595 367.037109375 549.80078125 c 0,6,7
 376 529 376 529 439.69921875 478.737304688 c 0,8,9
 505.114595459 430.034489395 505.114595459 430.034489395 557.590820312 404.930664062 c 1,10,11
 591 426 591 426 657.024809005 476.577448022 c 128,-1,12
 723 527 723 527 730.83984375 550.009765625 c 1,0,1
998.551757812 -0.48046875 m 2,13,14
 761.909119985 -0.48046875 761.909119985 -0.48046875 556.649414062 107.999023438 c 1,15,16
 411.911874209 -1.06640625 411.911874209 -1.06640625 94.9580078125 -1.06640625 c 2,17,-1
 -15.73046875 -1.06640625 l 5,18,-1
 -15.73046875 268.23046875 l 5,19,-1
 25.35546875 268.23046875 l 2,20,21
 291 268 291 268 315.87890625 279.903320312 c 1,22,23
 74 429 74 429 82.1474058981 579.691166146 c 0,24,25
 90 731 90 731 243.270507812 804.020507812 c 0,26,27
 340 850 340 850 513.732421875 850.069335938 c 0,28,29
 688 850 688 850 785.2734375 828.1953125 c 0,30,31
 1038 771 1038 771 1000.63378906 532.307617188 c 0,32,33
 983 417 983 417 782.674804688 277.368164062 c 1,34,35
 942.38658838 265.972416164 942.38658838 265.972416164 1074.9375 268.228515625 c 2,36,-1
 1119.6328125 268.989257812 l 1,37,-1
 1119.6328125 -0.48046875 l 1,38,-1
 998.551757812 -0.48046875 l 2,13,14
EndSplineSet
EndChar

StartChar: uniFEDA
Encoding: 65242 65242 231
Width: 2039
VWidth: 2593
GlyphClass: 2
Flags: W
AnchorPoint: "Anchor-10" 637.624 1559.46 basechar 0
AnchorPoint: "Anchor-7" 544.902 -273.681 basechar 0
LayerCount: 2
Fore
SplineSet
739.555664062 813.330078125 m 2,0,1
 801.751953125 805.491210938 801.751953125 805.491210938 854.663574219 805.491210938 c 0,2,3
 972.395459264 805.491210938 972.395459264 805.491210938 1009.99609375 843.94921875 c 0,4,5
 1032.58045964 867.051351145 1032.58045964 867.051351145 1026.30821533 879.140654944 c 128,-1,6
 1020.03597102 891.229958743 1020.03597102 891.229958743 970.965820312 898.994140625 c 0,7,8
 864.276367188 915.874023438 864.276367188 915.874023438 818.487304688 975.76171875 c 0,9,10
 751.124023438 1063.86523438 751.124023438 1063.86523438 780.751953125 1156.98876953 c 0,11,12
 837.277821329 1334.65520558 837.277821329 1334.65520558 1128.52148438 1356.29980469 c 2,13,-1
 1200.75488281 1361.66699219 l 1,14,-1
 1200.75488281 1181.28027344 l 1,15,-1
 1138.95703125 1176.25292969 l 2,16,17
 996.47608063 1164.66383351 996.47608063 1164.66383351 959.913085938 1116.46582031 c 0,18,19
 959.6328125 1110.79492188 959.6328125 1110.79492188 959.6328125 1101.79204858 c 128,-1,20
 959.6328125 1092.78917528 959.6328125 1092.78917528 966.754045515 1082.97152926 c 128,-1,21
 973.87527853 1073.15388325 973.87527853 1073.15388325 1026.77650645 1065.04276194 c 128,-1,22
 1079.67773438 1056.93164062 1079.67773438 1056.93164062 1098.51855469 1050.29199219 c 0,23,24
 1211.64941406 1010.41588584 1211.64941406 1010.41588584 1211.64941406 891.016601562 c 0,25,26
 1211.64941406 822.29520767 1211.64941406 822.29520767 1182.203125 775.510742188 c 0,27,28
 1055.48339844 574.1875 1055.48339844 574.1875 720.762695312 626.504882812 c 2,29,-1
 663.897460938 635.393554688 l 1,30,-1
 663.897460938 822.864257812 l 1,31,-1
 739.555664062 813.330078125 l 2,0,1
1690.03515625 106.500976562 m 1,32,33
 1579.43979662 -1.06640625 1579.43979662 -1.06640625 1395.66992188 -1.06640625 c 2,34,-1
 493.983398438 -1.06640625 l 2,35,36
 306 -1 306 -1 199.5 108 c 128,-1,37
 93 217 93 217 85.740234375 415.0546875 c 0,38,39
 84.8274920346 438.415111516 84.8274920346 438.415111516 83.4137460173 458.207555758 c 128,-1,40
 82 478 82 478 82.2666015625 478.444335938 c 2,41,-1
 82.1953125 479.626953125 l 1,42,-1
 82.1875 735.689453125 l 1,43,-1
 340.944335938 735.689453125 l 1,44,-1
 340.944335938 491.5703125 l 2,45,46
 341 371 341 371 379.413691702 319.615234375 c 128,-1,47
 417.827383404 268.23046875 417.827383404 268.23046875 498.510742188 268.23046875 c 2,48,-1
 1402.7578125 268.23046875 l 2,49,50
 1487 268 1487 268 1523.72802735 313.802541416 c 128,-1,51
 1560.45605469 359.605082832 1560.45605469 359.605082832 1560.45605469 456.446289062 c 2,52,-1
 1560.45605469 1387.18847656 l 1,53,-1
 1819.21289062 1387.18847656 l 1,54,-1
 1819.21289062 431.0625 l 2,55,56
 1819.21289062 344.754629901 1819.21289062 344.754629901 1860.5234375 306.416992188 c 128,-1,57
 1901.87980558 268.111328125 1901.87980558 268.111328125 1998.14257812 268.111328125 c 2,58,-1
 2049.734375 268.111328125 l 1,59,-1
 2049.734375 -1.06640625 l 1,60,-1
 1987.75488281 -1.06640625 l 2,61,62
 1802 -1 1802 -1 1690.03515625 106.500976562 c 1,32,33
EndSplineSet
EndChar

StartChar: uniFEDB
Encoding: 65243 65243 232
Width: 928
VWidth: 2593
GlyphClass: 2
Flags: W
AnchorPoint: "Anchor-10" 296.18 1506.67 basechar 0
AnchorPoint: "Anchor-7" 421.179 -234.565 basechar 0
LayerCount: 2
Fore
SplineSet
342.8984375 269.227539062 m 2,0,1
 512.806893134 268.252923377 512.806893134 268.252923377 510.708984375 362.985351562 c 4,2,3
 510 395 510 395 486.238593179 427.093751698 c 128,-1,4
 462.477186358 459.187503397 462.477186358 459.187503397 413.575195312 514.94140625 c 2,5,-1
 142.794921875 823.662109375 l 1,6,7
 75.2325572933 902.679394871 75.2325572933 902.679394871 61.4970703125 921.615234375 c 0,8,9
 26 969 26 969 32 1041.5 c 0,10,11
 44.2391186737 1189.38935064 44.2391186737 1189.38935064 175.544921875 1237.37597656 c 2,12,-1
 876.5 1493.54492188 l 1,13,-1
 876.5 1223.2734375 l 1,14,-1
 296.086914062 1026.44140625 l 1,15,-1
 588.904296875 695.997070312 l 2,16,17
 847.959992744 404.539032325 847.959992744 404.539032325 701.119140625 168.75 c 0,18,19
 596.367524406 0.253637217732 596.367524406 0.253637217732 391.446289062 -0.0966796875 c 2,20,-1
 -13.310546875 -0.0966796875 l 1,21,-1
 -13.310546875 269.197265625 l 1,22,-1
 342.8984375 269.227539062 l 2,0,1
EndSplineSet
EndChar

StartChar: uniFEDC
Encoding: 65244 65244 233
Width: 1066
VWidth: 2593
GlyphClass: 2
Flags: W
AnchorPoint: "Anchor-10" 293.27 1441.68 basechar 0
AnchorPoint: "Anchor-7" 307.814 -291.873 basechar 0
LayerCount: 2
Fore
SplineSet
339.98828125 268.2578125 m 1,0,1
 508.853467258 267.196273089 508.853467258 267.196273089 507.799804688 362.015625 c 0,2,3
 509.38250738 401.421061873 509.38250738 401.421061873 410.665039062 513.970703125 c 2,4,-1
 139.884765625 822.692382812 l 2,5,6
 85 885 85 885 54 927 c 128,-1,7
 23 969 23 969 29 1041 c 0,8,9
 41.3840185907 1189.60822309 41.3840185907 1189.60822309 172.689453125 1237.39648438 c 2,10,-1
 873.58984375 1492.48730469 l 1,11,-1
 873.58984375 1222.30371094 l 1,12,-1
 293.086914062 1025.44140625 l 1,13,-1
 840.421875 406.079101562 l 2,14,15
 962.265902618 268.700195311 962.265902618 268.700195311 1046.55273438 268.700195312 c 2,16,-1
 1077.06835938 268.700195312 l 1,17,-1
 1077.06835938 -0.48046875 l 1,18,-1
 1056.40332031 -0.48046875 l 2,19,20
 861 -0 861 -0 706.728515625 181.495117188 c 1,21,22
 610.442762375 -1.06640625 610.442762375 -1.06640625 388.515625 -1.06640625 c 2,23,-1
 -13.310546875 -1.06640625 l 1,24,-1
 -13.310546875 268.227539062 l 1,25,-1
 339.98828125 268.2578125 l 1,0,1
EndSplineSet
EndChar

StartChar: uniFEDE
Encoding: 65246 65246 235
Width: 1557
VWidth: 2593
GlyphClass: 2
Flags: W
AnchorPoint: "Anchor-10" 531.754 1141.62 basechar 0
AnchorPoint: "Anchor-7" 329.91 -637.293 basechar 0
LayerCount: 2
Fore
SplineSet
1325.6640625 39.3896484375 m 1,0,1
 1293.02167489 -485.651367188 1293.02167489 -485.651367188 724.985351562 -485.651367188 c 2,2,-1
 697.2109375 -485.651367188 l 2,3,4
 92.2918656856 -485.99983187 92.2918656856 -485.99983187 92.12109375 83.2646484375 c 2,5,-1
 91.98828125 525.9921875 l 1,6,-1
 350.877929688 526.041015625 l 1,7,-1
 350.877929688 84.44921875 l 2,8,9
 351.000144028 -216.354492188 351.000144028 -216.354492188 699.356445312 -216.354492188 c 2,10,-1
 724.217773438 -216.354492188 l 1,11,-1
 751.538085938 -215.7734375 l 2,12,13
 962 -211 962 -211 1035.86523438 -78.8828125 c 0,14,15
 1072.95526595 -13.0793651128 1072.95526595 -13.0793651128 1074.36914062 88.9697265625 c 2,16,-1
 1075.03710938 137.181640625 l 1,17,18
 1075 426 1075 426 1074.37695312 473.494140625 c 2,19,-1
 1074.37695312 1386.63671875 l 1,20,-1
 1328.29882812 1386.63671875 l 1,21,-1
 1328.29882812 473.741210938 l 1,22,23
 1325 269 1325 269 1507.24902344 268.700195312 c 2,24,-1
 1572.79492188 268.700195312 l 1,25,-1
 1572.79492188 -0.48046875 l 1,26,-1
 1523.79394531 -0.48046875 l 2,27,28
 1399 1 1399 1 1325.6640625 39.3896484375 c 1,0,1
EndSplineSet
EndChar

StartChar: uniFEDF
Encoding: 65247 65247 236
Width: 630
VWidth: 2553
GlyphClass: 2
Flags: W
AnchorPoint: "Anchor-10" 336.682 1491.64 basechar 0
AnchorPoint: "Anchor-7" 181.01 -202.415 basechar 0
LayerCount: 2
Fore
SplineSet
96.9697265625 269.200195312 m 2,0,1
 173.172314501 269.200195312 173.172314501 269.200195312 207.063803579 308.575391178 c 128,-1,2
 240.95703125 347.950082026 240.95703125 347.950082026 240.95703125 442.866210938 c 2,3,-1
 240.95703125 1387.15820312 l 1,4,-1
 499.71484375 1387.15820312 l 1,5,-1
 499.71484375 434.967773438 l 2,6,7
 500 224 500 224 391.453205109 111.951660156 c 128,-1,8
 282.906341523 -0.0966796875 282.906341523 -0.0966796875 76.173828125 -0.0966796875 c 2,9,-1
 -12.876953125 -0.0966796875 l 1,10,-1
 -12.876953125 269.200195312 l 1,11,-1
 96.9697265625 269.200195312 l 2,0,1
EndSplineSet
EndChar

StartChar: uniFEE0
Encoding: 65248 65248 237
Width: 773
VWidth: 2593
GlyphClass: 2
Flags: W
AnchorPoint: "Anchor-10" 415.225 1519.2 basechar 0
AnchorPoint: "Anchor-7" 291.065 -252.554 basechar 0
LayerCount: 2
Fore
SplineSet
574.02734375 504.258789062 m 2,0,1
 574.02734375 376.964091131 574.02734375 376.964091131 615.426316585 322.597360247 c 128,-1,2
 656.824507361 268.23046875 656.824507361 268.23046875 743.973632812 268.23046875 c 2,3,-1
 790.518554688 268.23046875 l 1,4,-1
 790.518554688 -1.06640625 l 1,5,-1
 734.044921875 -1.06640625 l 2,6,7
 571 -1 571 -1 446.168945312 113.23046875 c 1,8,9
 317.925490816 -1.06640625 317.925490816 -1.06640625 99.7177734375 -1.06640625 c 2,10,-1
 -14.900390625 -1.06640625 l 5,11,-1
 -14.900390625 268.23046875 l 5,12,-1
 87.8544921875 268.23046875 l 2,13,14
 209 268 209 268 263.95703125 324.504882812 c 128,-1,15
 318.931640625 380.929837162 318.931640625 380.929837162 318.931640625 505.43359375 c 2,16,-1
 318.931640625 1387.72753906 l 1,17,-1
 574.02734375 1387.72753906 l 1,18,-1
 574.02734375 504.258789062 l 2,0,1
EndSplineSet
EndChar

StartChar: uniFEE2
Encoding: 65250 65250 239
Width: 1401
VWidth: 2593
GlyphClass: 2
Flags: W
AnchorPoint: "Anchor-10" 630.565 1194.03 basechar 0
LayerCount: 2
Fore
SplineSet
962.65234375 565.506835938 m 0,0,1
 930 579 930 579 860.828125 579.05859375 c 0,2,3
 792 579 792 579 757.018554688 574.709960938 c 1,4,5
 752 537 752 537 752.33203125 418.4921875 c 0,6,7
 753 307 753 307 797.698242188 261.684570312 c 4,8,9
 836 223 836 223 899.740234375 222.890625 c 0,10,11
 910 223 910 223 920.649414062 223.673828125 c 0,12,13
 1024 231 1024 231 1023.97265625 451.822265625 c 0,14,15
 1024 540 1024 540 962.65234375 565.506835938 c 0,0,1
1271 346 m 0,16,17
 1268 267 1268 267 1362.3671875 267.079101562 c 2,18,-1
 1413.01464844 267.079101562 l 1,19,-1
 1413.01464844 -1.06640625 l 1,20,-1
 1371.15429688 -1.06640625 l 2,21,22
 1230 -1 1230 -1 1155.96582031 78.009765625 c 1,23,24
 1065 -25 1065 -25 870.946289062 -15.9609375 c 0,25,26
 720 -9 720 -9 624.473632812 82.7294921875 c 0,27,28
 494 207 494 207 499.90234375 466.270507812 c 0,29,30
 501 511 501 511 502.65625 544.856445312 c 1,31,32
 346.010742188 496.002929688 346.010742188 496.002929688 346.010742188 201.032226562 c 2,33,-1
 346.010742188 -496.416992188 l 1,34,-1
 91.94921875 -496.416992188 l 1,35,-1
 91.94921875 196.595703125 l 2,36,37
 92 481 92 481 202.1328125 641.694335938 c 0,38,39
 312 802 312 802 532.245117188 824.525390625 c 1,40,-1
 969.400390625 824.5390625 l 2,41,42
 1104 825 1104 825 1188.53515625 735.045898438 c 0,43,44
 1284 633 1284 633 1272.5 393.5 c 0,45,46
 1272 383 1272 383 1271 346 c 0,16,17
EndSplineSet
EndChar

StartChar: uniFEE3
Encoding: 65251 65251 240
Width: 977
VWidth: 2553
GlyphClass: 2
Flags: W
AnchorPoint: "Anchor-10" 401.346 1104.25 basechar 0
AnchorPoint: "Anchor-7" 408.389 -212.648 basechar 0
LayerCount: 2
Fore
SplineSet
526.355319525 -13.5939604069 m 0,0,1
 330 -14 330 -14 241.741210938 67.5615234375 c 1,2,3
 167.928576889 -1.06640625 167.928576889 -1.06640625 47.23046875 -1.06640625 c 2,4,-1
 -15.9033203125 -1.06640625 l 1,5,-1
 -15.9033203125 268.228515625 l 1,6,-1
 64.8525390625 268.228515625 l 6,7,8
 125 268 125 268 125 330 c 0,9,10
 125 339 125 339 124.910651572 348.729050595 c 0,11,12
 125 547 125 547 166.955325786 649.85359815 c 0,13,14
 209 753 209 753 295 809 c 0,15,16
 371 859 371 859 478.8984375 863.880859375 c 0,17,18
 632 871 632 871 711 830 c 0,19,20
 831 768 831 768 867.934570312 585.206054688 c 0,21,22
 886 495 886 495 885.510742188 419.895507812 c 0,23,24
 886 263 886 263 838.032226562 164.98828125 c 128,-1,25
 790 67 790 67 711.894591366 26.7030197965 c 0,26,27
 634 -14 634 -14 526.355319525 -13.5939604069 c 0,0,1
604.219726562 574.530273438 m 0,28,29
 580 608 580 608 527.252558339 610.307618243 c 0,30,31
 479 613 479 613 449.9609375 596.819335938 c 0,32,33
 390.269599477 560.966964429 390.269599477 560.966964429 381.717323353 446.916130407 c 0,34,35
 374 344 374 344 409.5546875 287.7265625 c 0,36,37
 438.481934753 244.005476667 438.481934753 244.005476667 511.847493045 243.916545071 c 0,38,39
 579.547646714 244.004615075 579.547646714 244.004615075 603.721071597 287.50841121 c 0,40,41
 634 342 634 342 634.726562517 430.675020615 c 0,42,43
 636.810017423 529.63912867 636.810017423 529.63912867 604.219726562 574.530273438 c 0,28,29
EndSplineSet
EndChar

StartChar: uniFEE4
Encoding: 65252 65252 241
Width: 1033
VWidth: 2553
GlyphClass: 2
Flags: W
AnchorPoint: "Anchor-10" 516.487 1200.49 basechar 0
AnchorPoint: "Anchor-7" 495.36 -234.948 basechar 0
LayerCount: 2
Fore
SplineSet
604.219726562 574.530273438 m 0,0,1
 580 608 580 608 527.252558339 610.307618243 c 0,2,3
 479 613 479 613 449.9609375 596.819335938 c 0,4,5
 390.269599477 560.966964429 390.269599477 560.966964429 381.717323353 446.916130407 c 0,6,7
 374 344 374 344 409.5546875 287.7265625 c 0,8,9
 438.481934753 244.005476667 438.481934753 244.005476667 511.847493045 243.916545071 c 0,10,11
 579.547646714 244.004615075 579.547646714 244.004615075 603.721071597 287.50841121 c 0,12,13
 634 342 634 342 634.726562517 430.675020615 c 0,14,15
 636.810017423 529.63912867 636.810017423 529.63912867 604.219726562 574.530273438 c 0,0,1
773.479492188 72 m 1,16,17
 745 44 745 44 711.894591366 26.7030197965 c 0,18,19
 634 -14 634 -14 526.355319525 -13.5939604069 c 0,20,21
 329 -13 329 -13 241.741210938 67.5615234375 c 1,22,23
 167.928576889 -1.06640625 167.928576889 -1.06640625 47.23046875 -1.06640625 c 2,24,-1
 -15.9033203125 -1.06640625 l 1,25,-1
 -15.9033203125 268.228515625 l 1,26,-1
 64.8525390625 268.228515625 l 2,27,28
 125 268.228515625 125 268.228515625 125 330 c 4,29,30
 125 339 125 339 124.910651572 348.729050595 c 0,31,32
 123 542 123 542 166.955325786 649.85359815 c 0,33,34
 209 753 209 753 295 809 c 0,35,36
 371 859 371 859 478.8984375 863.880859375 c 0,37,38
 629 871 629 871 711 830 c 0,39,40
 831 770 831 770 867.934570312 585.206054688 c 0,41,42
 885 501 885 501 885.510742188 419.895507812 c 0,43,44
 886 364 886 364 881.614257812 315.013671875 c 0,45,46
 880 294 880 294 897.315429688 281.174804688 c 128,-1,47
 914.51761012 268.359375 914.51761012 268.359375 979.973632812 268.359375 c 2,48,-1
 1042.24023438 268.359375 l 1,49,-1
 1042.24023438 -0.8203125 l 1,50,-1
 955.501953125 -0.8203125 l 2,51,52
 844 -1 844 -1 773.479492188 72 c 1,16,17
EndSplineSet
EndChar

StartChar: uniFEEA
Encoding: 65258 65258 247
Width: 1145
VWidth: 2553
GlyphClass: 2
Flags: W
AnchorPoint: "Anchor-10" 643.183 1274.91 basechar 0
AnchorPoint: "Anchor-7" 323.281 -234.565 basechar 0
LayerCount: 2
Fore
SplineSet
699.737304688 452.71484375 m 1,0,-1
 661.545898438 668.577148438 l 1,1,2
 322.147460938 619.001953125 322.147460938 619.001953125 332.508789062 493.70703125 c 0,3,4
 338.673828125 419.151367188 338.673828125 419.151367188 699.737304688 452.71484375 c 1,0,-1
776.823242188 191.075195312 m 5,5,6
 117 129 117 129 91.408203125 443.255859375 c 0,7,8
 77 627 77 627 209.93359375 743.333984375 c 0,9,10
 343 860 343 860 606.961914062 908.637695312 c 1,11,-1
 588.580078125 1001.1953125 l 1,12,-1
 847.51171875 1050.984375 l 1,13,-1
 953.609375 433.650390625 l 2,14,15
 981.449496196 269.485900945 981.449496196 269.485900945 1125.09472656 269.223632812 c 2,16,-1
 1153.97753906 269.170898438 l 1,17,-1
 1155.6484375 -0.0966796875 l 1,18,-1
 1104.00390625 -0.0966796875 l 2,19,20
 847.352395765 0.110088480349 847.352395765 0.110088480349 776.823242188 191.075195312 c 5,5,6
EndSplineSet
EndChar

StartChar: uniFEEB
Encoding: 65259 65259 248
Width: 1295
VWidth: 2553
GlyphClass: 2
Flags: W
AnchorPoint: "Anchor-10" 572.837 1482.83 basechar 0
AnchorPoint: "Anchor-7" 518.543 -239.197 basechar 0
LayerCount: 2
Fore
SplineSet
459.579101562 319.956054688 m 1,0,1
 516 336 516 336 555 401 c 0,2,3
 586 452 586 452 593.973632812 497.830078125 c 0,4,5
 604 551 604 551 589.5 582 c 0,6,7
 577 610 577 610 537.5 629 c 128,-1,8
 498 648 498 648 452.668945312 629.524414062 c 0,9,10
 369 595 369 595 346.5 515.5 c 128,-1,11
 324 436 324 436 363.924132758 379.127585911 c 0,12,13
 404 323 404 323 459.579101562 319.956054688 c 1,0,1
682.1953125 237.516601562 m 1,14,15
 760 201 760 201 825 192.5 c 128,-1,16
 890 184 890 184 912.819335938 203.241210938 c 0,17,18
 955 240 955 240 960.391601562 284.778320312 c 0,19,20
 971 378 971 378 806.866210938 554.374023438 c 1,21,22
 807 357 807 357 682.1953125 237.516601562 c 1,14,15
601.798828125 845.921875 m 1,23,-1
 713.287109375 1007.92480469 l 1,24,-1
 747.2265625 976.0546875 l 2,25,26
 970 767 970 767 1090.5 584 c 0,27,28
 1194 428 1194 428 1196.5 272.5 c 4,29,30
 1199 103 1199 103 1041.50195312 -10.3681640625 c 0,31,32
 952 -75 952 -75 784.5 -48.5 c 128,-1,33
 617 -22 617 -22 466.537109375 66.966796875 c 1,34,35
 235.667174529 -0.0966796875 235.667174529 -0.0966796875 50.302734375 -0.0966796875 c 2,36,-1
 -10.951171875 -0.0966796875 l 1,37,-1
 -10.951171875 269.380859375 l 1,38,-1
 161.619140625 269.09765625 l 1,39,40
 99 359 99 359 99.5 481.5 c 0,41,42
 100 658 100 658 218.979572117 769.822911595 c 0,43,44
 338 882 338 882 497.038085938 870.177734375 c 0,45,46
 550 866 550 866 601.798828125 845.921875 c 1,23,-1
EndSplineSet
EndChar

StartChar: uniFEEC
Encoding: 65260 65260 249
Width: 961
VWidth: 2553
GlyphClass: 2
Flags: W
AnchorPoint: "Anchor-7" 142.183 -682.715 basechar 0
AnchorPoint: "Anchor-10" 415.514 1216.02 basechar 0
LayerCount: 2
Fore
SplineSet
584.287109375 555.098632812 m 0,0,1
 559.287109375 606.098632812 559.287109375 606.098632812 499.37109375 598.62890625 c 0,2,3
 408.287109375 588.098632812 408.287109375 588.098632812 382.755859375 383.999023438 c 0,4,5
 374.287109375 319.098632812 374.287109375 319.098632812 376.32421875 268.564453125 c 1,6,-1
 416.844726562 269.087890625 l 2,7,8
 497.311523438 270.126953125 497.311523438 270.126953125 547.989257812 329.966796875 c 0,9,10
 599.287109375 390.098632812 599.287109375 390.098632812 599.787109375 462.598632812 c 0,11,12
 600.287109375 523.098632812 600.287109375 523.098632812 584.287109375 555.098632812 c 0,0,1
135.721679688 1.1640625 m 1,13,-1
 -10.1865234375 -1.6884765625 l 1,14,-1
 -10.1865234375 268.219726562 l 1,15,-1
 141.134765625 268.28515625 l 1,16,17
 138 477 138 477 195 604 c 0,18,19
 309.280824563 858.625696833 309.280824563 858.625696833 550.392578125 835.784179688 c 0,20,21
 676 824 676 824 752.548828125 738.299804688 c 0,22,23
 852 626 852 626 840.86328125 474.799804688 c 0,24,25
 833 360 833 360 774.374023438 269.388671875 c 1,26,-1
 971.715820312 268.657226562 l 1,27,-1
 971.715820312 -0.638671875 l 1,28,-1
 769.405273438 0.1767578125 l 1,29,30
 828 -91 828 -91 835.389648438 -204.8515625 c 0,31,32
 845 -357 845 -357 747.087890625 -468.173828125 c 0,33,34
 672 -554 672 -554 529.320589794 -567.178973648 c 128,-1,35
 386.641179589 -580.357947296 386.641179589 -580.357947296 280.185546875 -472.505859375 c 0,36,37
 133.066580861 -324.483883876 133.066580861 -324.483883876 135.721679688 1.1640625 c 1,13,-1
579 -285 m 0,38,39
 595 -253 595 -253 594.5 -192.5 c 0,40,41
 594 -120 594 -120 542.702148438 -59.8681640625 c 0,42,43
 492.024317707 -0.0287139009588 492.024317707 -0.0287139009588 411.557617188 1.0107421875 c 2,44,-1
 371.037109375 1.5341796875 l 1,45,46
 369 -49 369 -49 377.46875 -113.900390625 c 0,47,48
 403 -318 403 -318 494.083984375 -328.530273438 c 0,49,50
 554 -336 554 -336 579 -285 c 0,38,39
EndSplineSet
EndChar

StartChar: uniFEEE
Encoding: 65262 65262 251
Width: 951
VWidth: 2593
GlyphClass: 2
Flags: W
AnchorPoint: "Anchor-10" 388.37 1277.36 basechar 0
AnchorPoint: "Anchor-7" 430.055 -634.957 basechar 0
LayerCount: 2
Fore
SplineSet
845.65234375 331.205078125 m 1,0,-1
 844.091796875 266.879882812 l 1,1,-1
 961.352539062 269.20703125 l 1,2,-1
 961.352539062 -0.48046875 l 1,3,-1
 842.66015625 -0.48046875 l 1,4,5
 817.016134997 -509.679616291 817.016134997 -509.679616291 262.734375 -509.412109375 c 6,6,-1
 117.044921875 -509.341796875 l 5,7,-1
 116.899414062 -241.166992188 l 5,8,-1
 256.940429688 -241.265625 l 6,9,10
 555 -241 555 -241 577.565429688 0.0361328125 c 1,11,12
 572 0 572 0 533.810058594 0 c 2,13,-1
 425.240234375 0 l 2,14,15
 255 0 255 0 163 102.5 c 0,16,17
 70 206 70 206 91.205078125 456.94140625 c 0,18,19
 105 622 105 622 180.25390625 703.740234375 c 0,20,21
 285 817 285 817 478.291015625 813.583007812 c 0,22,23
 629 811 629 811 721 731 c 128,-1,24
 813 651 813 651 836.854492188 501.227539062 c 0,25,26
 847 437 847 437 845.65234375 331.205078125 c 1,0,-1
532.729492188 545.201171875 m 0,27,28
 501.79306609 560.622817965 501.79306609 560.622817965 454.606445313 559.122070312 c 0,29,30
 334.594305719 553.364345809 334.594305719 553.364345809 329.799804688 428.043945312 c 0,31,32
 327.059054789 356.405234054 327.059054789 356.405234054 336.0078125 331.852539062 c 0,33,34
 357 277 357 277 437.676757812 268.53125 c 0,35,36
 494.473632812 263.0703125 494.473632812 263.0703125 590.73828125 270.234375 c 1,37,38
 595.07073478 468.970008688 595.07073478 468.970008688 567.786132812 513.65625 c 0,39,40
 555.436523438 533.880859375 555.436523438 533.880859375 532.729492188 545.201171875 c 0,27,28
EndSplineSet
EndChar

StartChar: uniFEF0
Encoding: 65264 65264 253
Width: 1507
VWidth: 2593
GlyphClass: 2
Flags: W
AnchorPoint: "Anchor-10" 285.973 741.354 basechar 0
AnchorPoint: "Anchor-7" 251.008 -633.278 basechar 0
LayerCount: 2
Fore
SplineSet
788.252929688 -512.177734375 m 2,0,1
 91.5525120032 -512.177734375 91.5525120032 -512.177734375 91.2431640625 0.6455078125 c 2,2,-1
 90.9755859375 444.224609375 l 1,3,-1
 350.000976562 442.77734375 l 1,4,-1
 350.000976562 1.841796875 l 2,5,6
 350.000000475 -242.880859375 350.000000475 -242.880859375 790.427734375 -242.880859375 c 2,7,-1
 831.775390625 -242.880859375 l 1,8,-1
 865.01953125 -242.298828125 l 2,9,10
 1200.30566406 -235.994252425 1200.30566406 -235.994252425 1200.30566406 -50.384765625 c 2,11,-1
 1200.30566406 -0.1943359375 l 1,12,-1
 988.477539062 -0.2578125 l 2,13,14
 892 -0 892 -0 863 174.947265625 c 0,15,16
 850 251 850 251 914.270507812 268.2265625 c 1,17,-1
 1518.68261719 268.724609375 l 5,18,-1
 1518.68261719 -0.5830078125 l 1,19,-1
 1456.71484375 -0.2900390625 l 1,20,-1
 1456.71484375 -46.8369140625 l 2,21,22
 1456.99972981 -497.572516786 1456.99972981 -497.572516786 857.815429688 -511.583007812 c 2,23,-1
 832.380859375 -512.177734375 l 1,24,-1
 788.252929688 -512.177734375 l 2,0,1
EndSplineSet
EndChar

StartChar: uniFEFB
Encoding: 65275 65275 264
Width: 1217
VWidth: 2593
GlyphClass: 3
Flags: W
AnchorPoint: "Anchor-9" 946.412 1530.27 baselig 0
AnchorPoint: "Anchor-6" 834.517 -224.566 baselig 0
AnchorPoint: "Anchor-6" 174.087 -276.797 baselig 1
AnchorPoint: "Anchor-9" 204.411 1533.19 baselig 1
LayerCount: 2
Fore
SplineSet
151.5859375 360 m 1,0,-1
 151.5859375 1388.69726562 l 1,1,-1
 406.681640625 1388.69726562 l 1,2,-1
 406.681640625 360 l 1,3,-1
 151.5859375 360 l 1,0,-1
150.650390625 269.200195312 m 1,4,-1
 670.358398438 269.200195312 l 2,5,6
 725.38671875 269.200195312 725.38671875 269.200195312 760 287.120117188 c 0,7,8
 794 305 794 305 811.06640625 345.063476562 c 128,-1,9
 828 385 828 385 827.951171875 451.596679688 c 2,10,-1
 827.951171875 1388.15820312 l 1,11,-1
 1086.70898438 1388.15820312 l 1,12,-1
 1086.70898438 433.971679688 l 2,13,14
 1086.70898438 222.702148438 1086.70898438 222.702148438 978.061523438 111.5390625 c 0,15,16
 869 0 869 0 663.16796875 -0.0966796875 c 2,17,-1
 150.650390625 -0.0966796875 l 1,18,-1
 150.650390625 269.200195312 l 1,4,-1
EndSplineSet
LCarets2: 1 0
Ligature2: "'rlig' Required Ligatures in Arabic lookup 16 subtable" uniFEDF uniFE8E
EndChar

StartChar: arabic_dot
Encoding: 65536 -1 265
Width: 204
VWidth: 2629
GlyphClass: 2
Flags: W
LayerCount: 2
Fore
SplineSet
-35.5 89 m 0,0,1
 -35.5 117.410441763 -35.5 117.410441763 -25.4675955869 141.879760918 c 128,-1,2
 -15.4351911737 166.349080074 -15.4351911737 166.349080074 4.35786437625 186.142135624 c 0,3,4
 17.5451676595 199.329438907 17.5451676595 199.329438907 32.8539754747 208.205877973 c 128,-1,5
 48.1627832899 217.082317039 48.1627832899 217.082317039 65.3710503066 221.54115852 c 128,-1,6
 82.5793173233 226 82.5793173233 226 101.5 226 c 128,-1,7
 120.42064783 226 120.42064783 226 137.628863662 221.541192775 c 128,-1,8
 154.837079495 217.08238555 154.837079495 217.08238555 170.145929025 208.205939121 c 128,-1,9
 185.454778555 199.329492693 185.454778555 199.329492693 198.642135624 186.142135624 c 0,10,11
 238.5 146.284271248 238.5 146.284271248 238.5 89.0000000001 c 128,-1,12
 238.5 31.7157287526 238.5 31.7157287526 198.642135624 -8.14213562372 c 128,-1,13
 158.784271248 -48 158.784271248 -48 101.5 -48 c 128,-1,14
 44.2157287526 -48 44.2157287526 -48 4.35786437623 -8.14213562373 c 128,-1,15
 -35.5 31.7157287526 -35.5 31.7157287526 -35.5 89 c 0,0,1
EndSplineSet
EndChar

StartChar: arabic_2dots
Encoding: 65537 -1 266
Width: 527
VWidth: 2629
GlyphClass: 2
Flags: W
LayerCount: 2
Fore
SplineSet
288.5 89 m 0,0,1
 288.5 146.284713749 288.5 146.284713749 328.357643126 186.142356874 c 128,-1,2
 368.215286251 226 368.215286251 226 425.5 226 c 128,-1,3
 482.784713749 226 482.784713749 226 522.642356874 186.142356874 c 128,-1,4
 562.5 146.284713749 562.5 146.284713749 562.5 89 c 128,-1,5
 562.5 31.7152862513 562.5 31.7152862513 522.642356874 -8.14235687437 c 128,-1,6
 482.784713749 -48 482.784713749 -48 425.5 -48 c 0,7,8
 397.089352762 -48 397.089352762 -48 372.619976309 -37.9676568023 c 128,-1,9
 348.150599856 -27.9353136045 348.150599856 -27.9353136045 328.357643126 -8.14235687437 c 128,-1,10
 308.564750264 11.6505359871 308.564750264 11.6505359871 298.532375132 36.11992726 c 128,-1,11
 288.5 60.5893185328 288.5 60.5893185328 288.5 89 c 0,0,1
-35.5 89 m 0,12,13
 -35.5 117.410441763 -35.5 117.410441763 -25.4675955869 141.879760918 c 128,-1,14
 -15.4351911737 166.349080074 -15.4351911737 166.349080074 4.35786437625 186.142135624 c 0,15,16
 17.5451676595 199.329438907 17.5451676595 199.329438907 32.8539754747 208.205877973 c 128,-1,17
 48.1627832899 217.082317039 48.1627832899 217.082317039 65.3710503066 221.54115852 c 128,-1,18
 82.5793173233 226 82.5793173233 226 101.5 226 c 128,-1,19
 120.42064783 226 120.42064783 226 137.628863662 221.541192775 c 128,-1,20
 154.837079495 217.08238555 154.837079495 217.08238555 170.145929025 208.205939121 c 128,-1,21
 185.454778555 199.329492693 185.454778555 199.329492693 198.642135624 186.142135624 c 0,22,23
 238.5 146.284271248 238.5 146.284271248 238.5 89.0000000001 c 128,-1,24
 238.5 31.7157287526 238.5 31.7157287526 198.642135624 -8.14213562372 c 128,-1,25
 158.784271248 -48 158.784271248 -48 101.5 -48 c 128,-1,26
 44.2157287526 -48 44.2157287526 -48 4.35786437623 -8.14213562373 c 128,-1,27
 -35.5 31.7157287526 -35.5 31.7157287526 -35.5 89 c 0,12,13
EndSplineSet
EndChar

StartChar: arabic_3dots
Encoding: 65538 -1 267
Width: 527
VWidth: 2629
GlyphClass: 2
Flags: W
LayerCount: 2
Fore
SplineSet
288.5 89 m 0,0,1
 288.5 146.284713749 288.5 146.284713749 328.357643126 186.142356874 c 128,-1,2
 368.215286251 226 368.215286251 226 425.5 226 c 128,-1,3
 482.784713749 226 482.784713749 226 522.642356874 186.142356874 c 128,-1,4
 562.5 146.284713749 562.5 146.284713749 562.5 89 c 128,-1,5
 562.5 31.7152862513 562.5 31.7152862513 522.642356874 -8.14235687437 c 128,-1,6
 482.784713749 -48 482.784713749 -48 425.5 -48 c 0,7,8
 397.089352762 -48 397.089352762 -48 372.619976309 -37.9676568023 c 128,-1,9
 348.150599856 -27.9353136045 348.150599856 -27.9353136045 328.357643126 -8.14235687437 c 128,-1,10
 308.564750264 11.6505359871 308.564750264 11.6505359871 298.532375132 36.11992726 c 128,-1,11
 288.5 60.5893185328 288.5 60.5893185328 288.5 89 c 0,0,1
167.857864376 301.857864376 m 0,12,13
 128 341.715728752 128 341.715728752 128 398.999999999 c 0,14,15
 128 427.410441761 128 427.410441761 138.032404413 451.879760917 c 128,-1,16
 148.064808826 476.349080073 148.064808826 476.349080073 167.857864376 496.142135624 c 0,17,18
 207.715728752 536 207.715728752 536 264.999999998 536 c 0,19,20
 279.187534125 536 279.187534125 536 292.436206119 533.483722783 c 128,-1,21
 305.684878113 530.967445566 305.684878113 530.967445566 317.863838576 525.975918025 c 128,-1,22
 330.042799039 520.984390484 330.042799039 520.984390484 341.147181557 513.508548827 c 128,-1,23
 352.251564075 506.032707171 352.251564075 506.032707171 362.142135622 496.142135625 c 0,24,25
 402 456.284271249 402 456.284271249 402 399.000000001 c 0,26,27
 402 384.812465873 402 384.812465873 399.483722783 371.563793879 c 128,-1,28
 396.967445566 358.315121884 396.967445566 358.315121884 391.975918025 346.136161421 c 128,-1,29
 386.984390483 333.957200958 386.984390483 333.957200958 379.508548827 322.85281844 c 128,-1,30
 372.03270717 311.748435923 372.03270717 311.748435923 362.142135624 301.857864376 c 0,31,32
 342.349143927 282.064872679 342.349143927 282.064872679 317.879809971 272.032436339 c 128,-1,33
 293.410476016 262 293.410476016 262 265 262 c 128,-1,34
 236.589558237 262 236.589558237 262 212.120239082 272.032404413 c 128,-1,35
 187.650919926 282.064808826 187.650919926 282.064808826 167.857864376 301.857864376 c 0,12,13
-35.5 89 m 0,36,37
 -35.5 117.410441763 -35.5 117.410441763 -25.4675955869 141.879760918 c 128,-1,38
 -15.4351911737 166.349080074 -15.4351911737 166.349080074 4.35786437625 186.142135624 c 0,39,40
 17.5451676595 199.329438907 17.5451676595 199.329438907 32.8539754747 208.205877973 c 128,-1,41
 48.1627832899 217.082317039 48.1627832899 217.082317039 65.3710503066 221.54115852 c 128,-1,42
 82.5793173233 226 82.5793173233 226 101.5 226 c 128,-1,43
 120.42064783 226 120.42064783 226 137.628863662 221.541192775 c 128,-1,44
 154.837079495 217.08238555 154.837079495 217.08238555 170.145929025 208.205939121 c 128,-1,45
 185.454778555 199.329492693 185.454778555 199.329492693 198.642135624 186.142135624 c 0,46,47
 238.5 146.284271248 238.5 146.284271248 238.5 89.0000000001 c 128,-1,48
 238.5 31.7157287526 238.5 31.7157287526 198.642135624 -8.14213562372 c 128,-1,49
 158.784271248 -48 158.784271248 -48 101.5 -48 c 128,-1,50
 44.2157287526 -48 44.2157287526 -48 4.35786437623 -8.14213562373 c 128,-1,51
 -35.5 31.7157287526 -35.5 31.7157287526 -35.5 89 c 0,36,37
EndSplineSet
EndChar

StartChar: arabic_3dots_a
Encoding: 65539 -1 268
Width: 527
VWidth: 2629
GlyphClass: 2
Flags: W
LayerCount: 2
Fore
SplineSet
288.5 107 m 0,0,1
 288.5 164.284713749 288.5 164.284713749 328.357643126 204.142356874 c 128,-1,2
 368.215286251 244 368.215286251 244 425.5 244 c 128,-1,3
 482.784713749 244 482.784713749 244 522.642356874 204.142356874 c 128,-1,4
 562.5 164.284713749 562.5 164.284713749 562.5 107 c 128,-1,5
 562.5 49.7152862513 562.5 49.7152862513 522.642356874 9.85764312563 c 128,-1,6
 482.784713749 -30 482.784713749 -30 425.5 -30 c 0,7,8
 397.089352762 -30 397.089352762 -30 372.619976309 -19.9676568023 c 128,-1,9
 348.150599856 -9.9353136045 348.150599856 -9.9353136045 328.357643126 9.85764312563 c 128,-1,10
 308.564750264 29.6505359871 308.564750264 29.6505359871 298.532375132 54.11992726 c 128,-1,11
 288.5 78.5893185328 288.5 78.5893185328 288.5 107 c 0,0,1
128 -203 m 0,12,13
 128 -174.589558237 128 -174.589558237 138.032404413 -150.120239082 c 128,-1,14
 148.064808826 -125.650919926 148.064808826 -125.650919926 167.857864376 -105.857864376 c 0,15,16
 207.715728752 -66 207.715728752 -66 264.999999999 -66 c 128,-1,17
 322.284271246 -66 322.284271246 -66 362.142135624 -105.857864376 c 128,-1,18
 402 -145.715728752 402 -145.715728752 402 -203 c 0,19,20
 402 -231.410441763 402 -231.410441763 391.967595587 -255.879760918 c 128,-1,21
 381.935191174 -280.349080074 381.935191174 -280.349080074 362.142135624 -300.142135624 c 0,22,23
 348.954832341 -313.329438907 348.954832341 -313.329438907 333.646024526 -322.205877973 c 128,-1,24
 318.33721671 -331.082317039 318.33721671 -331.082317039 301.128949694 -335.54115852 c 128,-1,25
 283.920682677 -340 283.920682677 -340 265 -340 c 0,26,27
 236.589558237 -340 236.589558237 -340 212.120239082 -329.967595587 c 128,-1,28
 187.650919926 -319.935191174 187.650919926 -319.935191174 167.857864376 -300.142135624 c 0,29,30
 128 -260.284271248 128 -260.284271248 128 -203 c 0,12,13
-35.5 107 m 0,31,32
 -35.5 135.410441763 -35.5 135.410441763 -25.4675955869 159.879760918 c 128,-1,33
 -15.4351911737 184.349080074 -15.4351911737 184.349080074 4.35786437625 204.142135624 c 128,-1,34
 24.1508560736 223.935127321 24.1508560736 223.935127321 48.6201900289 233.967563661 c 128,-1,35
 73.0895239843 244 73.0895239843 244 101.5 244 c 0,36,37
 120.42064783 244 120.42064783 244 137.628863662 239.541192775 c 128,-1,38
 154.837079495 235.08238555 154.837079495 235.08238555 170.145929025 226.205939121 c 128,-1,39
 185.454778555 217.329492693 185.454778555 217.329492693 198.642135624 204.142135624 c 0,40,41
 238.5 164.284271248 238.5 164.284271248 238.5 107 c 128,-1,42
 238.5 49.7157287526 238.5 49.7157287526 198.642135624 9.85786437624 c 128,-1,43
 158.784271248 -30 158.784271248 -30 101.5 -30 c 128,-1,44
 44.2157287526 -30 44.2157287526 -30 4.35786437622 9.85786437624 c 128,-1,45
 -35.5 49.7157287526 -35.5 49.7157287526 -35.5 107 c 0,31,32
EndSplineSet
EndChar

StartChar: uni066E.fina
Encoding: 65540 -1 269
Width: 2111
VWidth: 2593
GlyphClass: 2
Flags: W
AnchorPoint: "Anchor-10" 713.312 1279.13 basechar 0
AnchorPoint: "Anchor-7" 713.312 -175.677 basechar 0
LayerCount: 2
Fore
SplineSet
350.904296875 491.571289062 m 2,0,1
 350.904296875 332.058386529 350.904296875 332.058386529 421.008789062 289.2890625 c 0,2,3
 454.632021753 268.23046875 454.632021753 268.23046875 508.470703125 268.23046875 c 2,4,-1
 1172.78515625 268.23046875 l 1,5,-1
 1443.02050781 271.442382812 l 2,6,7
 1561 273 1561 273 1612.81347656 318.802734375 c 0,8,9
 1664.48291937 365.435848206 1664.48291937 365.435848206 1664.41796875 464.260742188 c 2,10,-1
 1664.2421875 731.71875 l 5,11,-1
 1926.97363281 731.71875 l 5,12,-1
 1927.18847656 461.975585938 l 2,13,14
 1927 358 1927 358 1965.91113281 313.19921875 c 0,15,16
 2005.26514101 268.700195312 2005.26514101 268.700195312 2089.51269531 268.700195312 c 2,17,-1
 2121.89453125 268.700195312 l 1,18,-1
 2121.89453125 -0.48046875 l 1,19,-1
 2087.66503906 -0.48046875 l 2,20,21
 1874 -0 1874 -0 1785.29882812 142.880859375 c 1,22,23
 1669.9467854 -1.06640625 1669.9467854 -1.06640625 1384.95996094 -1.06640625 c 2,24,-1
 502.766601562 -1.06640625 l 2,25,26
 301 -1 301 -1 196.314453125 126.8984375 c 0,27,28
 92.1503798372 254.815328641 92.1503798372 254.815328641 92.1494140625 493.916992188 c 2,29,-1
 92.1484375 735.689453125 l 1,30,-1
 350.904296875 735.689453125 l 1,31,-1
 350.904296875 491.571289062 l 2,0,1
EndSplineSet
EndChar

StartChar: uni06A1.fina
Encoding: 65543 -1 272
Width: 2094
VWidth: 2553
GlyphClass: 2
Flags: W
AnchorPoint: "Anchor-10" 545.606 1404.71 basechar 0
AnchorPoint: "Anchor-7" 671.192 -227.906 basechar 0
LayerCount: 2
Fore
SplineSet
1441.73730469 540.15625 m 0,0,1
 1441.96679688 460.412109375 1441.96679688 460.412109375 1513.42382812 419.017578125 c 0,2,3
 1544.40136719 401.071289062 1544.40136719 401.071289062 1594.56835938 401.072265625 c 128,-1,4
 1644.73535156 401.073242188 1644.73535156 401.073242188 1686.82519531 441.96484375 c 128,-1,5
 1728.91601562 482.856445312 1728.91601562 482.856445312 1728.91601562 540.0625 c 128,-1,6
 1728.91601562 597.26953125 1728.91601562 597.26953125 1686.82519531 638.189453125 c 128,-1,7
 1644.73535156 679.109375 1644.73535156 679.109375 1585.26855469 679.239257812 c 0,8,9
 1494.42089844 679.041015625 1494.42089844 679.041015625 1455.05175781 600.073242188 c 0,10,11
 1441.83398438 573.557617188 1441.83398438 573.557617188 1441.73730469 540.15625 c 0,0,1
1308.61230469 269.076171875 m 1,12,13
 1195 382 1195 382 1195.83390085 538.794309466 c 128,-1,14
 1196.66780171 695.588618931 1196.66780171 695.588618931 1310.65625 809.6953125 c 0,15,16
 1427.17123885 922.067193435 1427.17123885 922.067193435 1588.58561942 921.533596717 c 128,-1,17
 1750 921 1750 921 1865 809 c 128,-1,18
 1980 697 1980 697 1979.5 537.5 c 128,-1,19
 1979 378 1979 378 1866.52636719 268.692382812 c 1,20,-1
 2104.54882812 268.649414062 l 1,21,-1
 2104.54882812 0.6962890625 l 1,22,-1
 1942.75683594 0 l 2,23,24
 1728 -1 1728 -1 1584.51855469 100.083984375 c 1,25,26
 1417.04101562 0.0244140625 1417.04101562 0.0244140625 1231.43359375 0 c 2,27,-1
 502.965820312 -0.0966796875 l 2,28,29
 301 0 301 0 196.095214844 124.387207031 c 128,-1,30
 91.1904296875 248.774414062 91.1904296875 248.774414062 91.189453125 481.977539062 c 2,31,-1
 91.1884765625 796.799804688 l 1,32,-1
 349.944335938 796.799804688 l 1,33,-1
 349.944335938 492.549804688 l 2,34,35
 350.105220825 372.45911474 350.105220825 372.45911474 389.692382812 318.793945312 c 0,36,37
 408 293 408 293 415 291.5 c 128,-1,38
 422 290 422 290 446.759277344 279.603027344 c 128,-1,39
 471.518554688 269.206054688 471.518554688 269.206054688 507.516601562 269.200195312 c 2,40,-1
 1308.61230469 269.076171875 l 1,12,13
EndSplineSet
EndChar

StartChar: uni06A1.init
Encoding: 65544 -1 273
Width: 869
VWidth: 2553
GlyphClass: 2
Flags: W
AnchorPoint: "Anchor-10" 568.999 1368.33 basechar 0
AnchorPoint: "Anchor-7" 451.628 -165.113 basechar 0
LayerCount: 2
Fore
SplineSet
510.484375 367.271484375 m 1,0,1
 483 367 483 367 442.279296875 367 c 0,2,3
 402 367 402 367 364.34765625 367.544921875 c 0,4,5
 102 368 102 368 42.083984375 580.876953125 c 0,6,7
 22 653 22 653 21.9619140625 748.30859375 c 0,8,9
 22 926 22 926 118.6640625 1019.89941406 c 0,10,11
 215 1114 215 1114 396.337890625 1114.38964844 c 0,12,13
 714 1114 714 1114 766.373046875 857.825195312 c 0,14,15
 778 801 778 801 779.229492188 710.76953125 c 1,16,-1
 778.727539062 529.97265625 l 1,17,-1
 778.727539062 397.430664062 l 2,18,19
 779 198 779 198 634.86328125 97.9150390625 c 128,-1,20
 490.729265933 -2.18802855522 490.729265933 -2.18802855522 222.407226562 -1.06640625 c 2,21,-1
 -13.548828125 -0.080078125 l 5,22,-1
 -14.1455078125 269.25390625 l 5,23,-1
 235.040039062 269.426757812 l 2,24,25
 488 270 488 270 510.484375 367.271484375 c 1,0,1
524.450195312 638.25 m 1,26,27
 525 657.348632812 525 657.348632812 525 685.842773438 c 128,-1,28
 525 714.3359375 525 714.3359375 518.57421875 765.087890625 c 128,-1,29
 512.147460938 815.83984375 512.147460938 815.83984375 499.767578125 829.155273438 c 0,30,31
 467.889648438 859.078125 467.889648438 859.078125 395.729492188 859.154296875 c 128,-1,32
 323.569335938 859.23046875 323.569335938 859.23046875 293.234375 831.427734375 c 128,-1,33
 262.900390625 803.625976562 262.900390625 803.625976562 262.899414062 743.10546875 c 128,-1,34
 262.897460938 682.584960938 262.897460938 682.584960938 292.444335938 657.79296875 c 128,-1,35
 321.991210938 633 321.991210938 633 390.65234375 633 c 128,-1,36
 459.3125 633 459.3125 633 524.450195312 638.25 c 1,26,27
EndSplineSet
EndChar

StartChar: uni06A1.medi
Encoding: 65545 -1 274
Width: 1022
VWidth: 2553
GlyphClass: 2
Flags: W
AnchorPoint: "Anchor-10" 529.997 1216.33 basechar 0
AnchorPoint: "Anchor-7" 529.997 -165.113 basechar 0
LayerCount: 2
Fore
SplineSet
363.787109375 539.08203125 m 4,0,1
 364.017030688 459.33742904 364.017030688 459.33742904 435.473632812 417.943359375 c 4,2,3
 466.452084217 399.997048347 466.452084217 399.997048347 516.618620234 399.998035892 c 132,-1,4
 566.78515625 399.999023438 566.78515625 399.999023438 608.875716366 440.890499106 c 132,-1,5
 650.966276481 481.781974774 650.966276481 481.781974774 650.966048397 538.988643637 c 132,-1,6
 650.965820312 596.1953125 650.965820312 596.1953125 608.875488281 637.115234375 c 132,-1,7
 566.78515625 678.03515625 566.78515625 678.03515625 507.318359375 678.165039062 c 4,8,9
 416.470873637 677.96687023 416.470873637 677.96687023 377.1015625 598.999023438 c 4,10,11
 363.884047956 572.483188583 363.884047956 572.483188583 363.787109375 539.08203125 c 4,0,1
504.114257812 99.546875 m 1,12,13
 336.889629278 -1.06640625 336.889629278 -1.06640625 149.987304688 -1.06640625 c 2,14,-1
 -10.5087890625 -1.06640625 l 1,15,-1
 -10.5087890625 268.23828125 l 1,16,-1
 231.08203125 268.1953125 l 1,17,18
 117 381 117 381 117.039557136 539.286542801 c 0,19,20
 117 698 117 698 231.659179688 810.263671875 c 0,21,22
 347 922 347 922 509.029002168 921.944398957 c 128,-1,23
 671 922 671 922 786.187011719 809.879882812 c 0,24,25
 901 698 901 698 901.037597656 538.458007812 c 128,-1,26
 901 379 901 379 786.619140625 268.388671875 c 1,27,-1
 1032.109375 268.622070312 l 1,28,-1
 1032.109375 -0.376953125 l 1,29,-1
 861.313476562 -1.06640625 l 2,30,31
 658 -2 658 -2 504.114257812 99.546875 c 1,12,13
EndSplineSet
EndChar

StartChar: uni066F.fina
Encoding: 65546 -1 275
Width: 1627
VWidth: 2593
GlyphClass: 2
Flags: W
AnchorPoint: "Anchor-10" 429.276 1091.72 basechar 0
AnchorPoint: "Anchor-7" 546.229 -658.06 basechar 0
LayerCount: 2
Fore
SplineSet
1238.09960938 0.3662109375 m 1,0,1
 1088.37890625 -0.0927734375 l 2,2,3
 917 -1 917 -1 824.49609375 101.484375 c 128,-1,4
 732 204 732 204 750.651367188 429.740234375 c 0,5,6
 763 583 763 583 844.483398438 671.620117188 c 0,7,8
 952 790 952 790 1137.8359375 786.3828125 c 0,9,10
 1288 783 1288 783 1379.91503906 703.348632812 c 0,11,12
 1511.49593675 588.567382187 1511.49593675 588.567382187 1505.09277344 330.767578125 c 2,13,-1
 1503.58300781 269.982421875 l 1,14,-1
 1647.67773438 270.3671875 l 5,15,-1
 1647.67773438 0.017578125 l 1,16,-1
 1494.828125 -0.6689453125 l 1,17,-1
 1495.14648438 -23.93359375 l 2,18,19
 1499 -313 1499 -313 1338.59082031 -455.551757812 c 0,20,21
 1177.84280176 -598.139438934 1177.84280176 -598.139438934 880.043945312 -595.59375 c 2,22,-1
 811.614257812 -595.008789062 l 1,23,-1
 742.18359375 -595.008789062 l 2,24,25
 295 -595 295 -595 154.178710938 -317.140625 c 0,26,27
 92.1719552498 -195.337779947 92.1719552498 -195.337779947 92.12109375 -26.0927734375 c 2,28,-1
 91.98828125 415.849609375 l 1,29,-1
 350.877929688 416.826171875 l 1,30,-1
 350.877929688 -24.892578125 l 2,31,32
 351 -178 351 -178 444.954101562 -251.75390625 c 0,33,34
 538.635087862 -325.711914062 538.635087862 -325.711914062 744.356445312 -325.711914062 c 2,35,-1
 811.712890625 -325.711914062 l 1,36,-1
 888.44140625 -325.125976562 l 2,37,38
 1066 -324 1066 -324 1149.75878906 -249.459960938 c 0,39,40
 1234 -175 1234 -175 1238.09960938 0.3662109375 c 1,0,1
1250.2265625 270.037109375 m 1,41,42
 1254.20410156 451.317382812 1254.20410156 451.317382812 1228.1015625 485.033203125 c 0,43,44
 1183 541 1183 541 1082.44042969 527.2109375 c 0,45,46
 998.07421875 514.056640625 998.07421875 514.056640625 990.869140625 411.84765625 c 0,47,48
 984 313 984 313 1025.55566406 285.044921875 c 0,49,50
 1071 256 1071 256 1250.2265625 270.037109375 c 1,41,42
EndSplineSet
EndChar

StartChar: arabic_ring
Encoding: 65549 -1 278
Width: 524
VWidth: 2391
GlyphClass: 2
Flags: W
LayerCount: 2
Fore
SplineSet
316.577148438 134.233398438 m 0,0,1
 386.274414062 167.527775565 386.274414062 167.527775565 386.274414062 236.784667969 c 0,2,3
 386.274414062 282.827053844 386.274414062 282.827053844 376.698242188 298.102003485 c 128,-1,4
 367.122070312 313.376953125 367.122070312 313.376953125 364.889648438 316.687988281 c 0,5,6
 328.273123116 370.99609375 328.273123116 370.99609375 252.967539185 370.99609375 c 0,7,8
 177.661955254 370.99609375 177.661955254 370.99609375 146.803710938 295.033203125 c 0,9,10
 137.805664062 272.876026953 137.805664062 272.876026953 137.805664062 233.019556445 c 128,-1,11
 137.805664062 193.163085938 137.805664062 193.163085938 173.766601562 157.844726562 c 128,-1,12
 209.727539062 122.526367188 209.727539062 122.526367188 250.898802205 122.526367188 c 0,13,14
 292.070065347 122.526367188 292.070065347 122.526367188 316.577148438 134.233398438 c 0,0,1
508.694335938 246.760742188 m 128,-1,16
 508.694335938 143.036730895 508.694335938 143.036730895 437.205084824 70.9851623226 c 0,17,18
 365.71583371 -1.06640625 365.71583371 -1.06640625 262.041015625 -1.06640625 c 128,-1,19
 158.409179688 -1.06640625 158.409179688 -1.06640625 86.8974609375 71.0083007812 c 128,-1,20
 15.3857421875 143.083007812 15.3857421875 143.083007812 15.3857421875 246.760742188 c 128,-1,21
 15.3857421875 350.438476562 15.3857421875 350.438476562 86.8745117188 421.927246094 c 0,22,23
 158.36328125 493.416015625 158.36328125 493.416015625 262.041015625 493.416015625 c 128,-1,24
 365.765625 493.416015625 365.765625 493.416015625 437.793945312 422.513671875 c 0,25,15
 508.694335938 350.487304688 508.694335938 350.487304688 508.694335938 246.760742188 c 128,-1,16
EndSplineSet
EndChar

StartChar: arabic_gaf_bar
Encoding: 65550 -1 279
Width: 657
VWidth: 2391
GlyphClass: 2
Flags: W
LayerCount: 2
Fore
SplineSet
627.461914062 1796.35058594 m 1,0,-1
 15.3857421875 1570.20507812 l 1,1,-1
 15.3857421875 1674.74902344 l 1,2,-1
 627.461914062 1900.89257812 l 1,3,-1
 627.461914062 1796.35058594 l 1,0,-1
EndSplineSet
EndChar

StartChar: uni066E.init.math
Encoding: 65560 -1 289
Width: 1039
VWidth: 2593
GlyphClass: 2
Flags: W
LayerCount: 2
Fore
SplineSet
705.489257812 122.073242188 m 0,0,1
 610.743164062 8.9091796875 610.743164062 8.9091796875 406.875 8.9091796875 c 2,2,-1
 -34.4736328125 8.9091796875 l 1,3,-1
 -34.4736328125 268.700195312 l 1,4,-1
 337.802734375 268.700195312 l 2,5,6
 355.654296875 268.700195312 355.654296875 268.700195312 372.040039062 269.9375 c 128,-1,7
 388.424804688 271.173828125 388.424804688 271.173828125 402.860351562 273.537109375 c 128,-1,8
 417.295898438 275.899414062 417.295898438 275.899414062 430.369140625 279.412109375 c 128,-1,9
 443.442382812 282.924804688 443.442382812 282.924804688 454.75 287.39453125 c 128,-1,10
 466.057617188 291.86328125 466.057617188 291.86328125 476.103515625 297.400390625 c 128,-1,11
 486.1484375 302.9375 486.1484375 302.9375 494.611328125 309.262695312 c 128,-1,12
 503.07421875 315.586914062 503.07421875 315.586914062 510.37890625 322.892578125 c 0,13,14
 564.571289062 377.083984375 564.571289062 377.083984375 564.571289062 504.258789062 c 2,15,-1
 564.571289062 791.13671875 l 1,16,-1
 824.362304688 791.13671875 l 1,17,-1
 824.362304688 504.258789062 l 2,18,19
 824.362304688 264.205078125 824.362304688 264.205078125 705.489257812 122.073242188 c 0,0,1
EndSplineSet
EndChar

StartChar: guillemotleft
Encoding: 171 171 290
Width: 995
VWidth: 2088
Flags: W
LayerCount: 2
Fore
SplineSet
505.621760414 1021.09765625 m 1,0,-1
 446.134658287 916.492573161 l 2,1,2
 436.6137627 899.752168767 436.6137627 899.752168767 427.896767517 883.105155725 c 128,-1,3
 419.179772335 866.458142682 419.179772335 866.458142682 411.259399804 849.888402998 c 128,-1,4
 403.339027274 833.318663314 403.339027274 833.318663314 396.223732812 816.84145101 c 0,5,6
 390.914804072 804.547596451 390.914804072 804.547596451 386.053037079 792.305354072 c 128,-1,7
 381.191270085 780.063111693 381.191270085 780.063111693 376.774759428 767.867216872 c 128,-1,8
 372.358248772 755.671322051 372.358248772 755.671322051 368.388004683 743.521898136 c 128,-1,9
 364.417760594 731.372474221 364.417760594 731.372474221 360.895741498 719.274932226 c 0,10,11
 351.27021655 686.21472389 351.27021655 686.21472389 344.859825236 652.898314167 c 128,-1,12
 338.45452132 619.609948724 338.45452132 619.609948724 335.255121168 586.046953437 c 128,-1,13
 332.0546875 552.485488406 332.0546875 552.485488406 332.0546875 518.6171875 c 0,14,15
 332.0546875 416.962877868 332.0546875 416.962877868 360.926902226 317.130873904 c 0,16,17
 389.145761182 219.561034129 389.145761182 219.561034129 446.058129859 119.886184146 c 2,18,-1
 505.845997575 15.177734375 l 1,19,-1
 280.932944701 15.177734375 l 1,20,-1
 260.311374137 47.65972011 l 2,21,22
 184.975869347 166.31829455 184.975869347 166.31829455 147.063132321 281.807052945 c 0,23,24
 108.0546875 400.694340365 108.0546875 400.694340365 108.0546875 518.6171875 c 0,25,26
 108.0546875 577.373356373 108.0546875 577.373356373 117.807676723 636.341431077 c 128,-1,27
 127.560665947 695.309505782 127.560665947 695.309505782 147.09184137 754.551353814 c 0,28,29
 153.42184217 773.750232078 153.42184217 773.750232078 160.792622489 793.059180377 c 128,-1,30
 168.163402808 812.368128675 168.163402808 812.368128675 176.583807129 831.806130875 c 128,-1,31
 185.00421145 851.244133076 185.00421145 851.244133076 194.467536785 870.792043172 c 0,32,33
 208.607965234 900.001013883 208.607965234 900.001013883 225.047585486 929.415358273 c 128,-1,34
 241.498417487 958.850731896 241.498417487 958.850731896 260.248053477 988.505353094 c 2,35,-1
 280.856007313 1021.09765625 l 1,36,-1
 505.621760414 1021.09765625 l 1,0,-1
881.621760414 1021.09765625 m 1,37,-1
 822.134619745 916.492505393 l 2,38,39
 793.579795932 866.284206616 793.579795932 866.284206616 772.297221179 817.010966353 c 128,-1,40
 750.985839054 767.668744065 750.985839054 767.668744065 736.895762318 719.274027172 c 0,41,42
 731.118804608 699.432810526 731.118804608 699.432810526 726.500172634 679.502893774 c 128,-1,43
 721.886126462 659.585264419 721.886126462 659.585264419 718.426399763 639.571447247 c 0,44,45
 716.697126565 629.567215536 716.697126565 629.567215536 715.255860635 619.539768793 c 128,-1,46
 713.815714097 609.512228521 713.815714097 609.512228521 712.662699283 599.459009154 c 0,47,48
 710.358629182 579.356344222 710.358629182 579.356344222 709.207638805 559.149628473 c 128,-1,49
 708.054636422 538.938408005 708.054636422 538.938408005 708.0546875 518.6171875 c 0,50,51
 708.0546875 493.200760625 708.0546875 493.200760625 709.856354738 467.919971971 c 128,-1,52
 711.658073515 442.639450607 711.658073515 442.639450607 715.262152398 417.469884761 c 128,-1,53
 718.86869285 392.289459009 718.86869285 392.289459009 724.283782662 367.206176832 c 128,-1,54
 729.697319574 342.130087857 729.697319574 342.130087857 736.926956564 317.130686029 c 0,55,56
 743.899078557 293.025566083 743.899078557 293.025566083 752.724161461 268.585505698 c 0,57,58
 757.133754745 256.372271536 757.133754745 256.372271536 762.007895989 244.079112152 c 128,-1,59
 766.882037232 231.785952768 766.882037232 231.785952768 772.220489245 219.412515158 c 0,60,61
 793.644764622 169.756029428 793.644764622 169.756029428 821.807107139 120.326694674 c 2,62,-1
 881.845205658 15.177734375 l 1,63,-1
 656.932861224 15.177734375 l 1,64,-1
 636.300806557 47.6752813836 l 2,65,66
 617.484314534 77.4345466428 617.484314534 77.4345466428 600.999884685 106.937475169 c 128,-1,67
 584.515454836 136.440403696 584.515454836 136.440403696 570.361461791 165.684730863 c 0,68,69
 542.08467784 224.106919441 542.08467784 224.106919441 523.071918166 281.780695562 c 0,70,71
 484.0546875 400.694345656 484.0546875 400.694345656 484.0546875 518.6171875 c 0,72,73
 484.0546875 531.670525585 484.0546875 531.670525585 484.53572882 544.732034771 c 128,-1,74
 485.01677014 557.793543956 485.01677014 557.793543956 485.979363737 570.869372581 c 128,-1,75
 486.941957334 583.945201206 486.941957334 583.945201206 488.386161796 597.030531591 c 128,-1,76
 489.830366259 610.115861976 489.830366259 610.115861976 491.756896223 623.216207987 c 128,-1,77
 493.683426187 636.316553997 493.683426187 636.316553997 496.092122985 649.427774725 c 128,-1,78
 498.500819782 662.538995454 498.500819782 662.538995454 501.392615305 675.665927994 c 128,-1,79
 504.284410829 688.792860533 504.284410829 688.792860533 507.658929153 701.932040749 c 128,-1,80
 511.033447477 715.071220965 511.033447477 715.071220965 514.891837752 728.226809178 c 128,-1,81
 518.750228026 741.38239739 518.750228026 741.38239739 523.091910648 754.551563939 c 0,82,83
 526.898534165 766.097903596 526.898534165 766.097903596 531.082540242 777.684307687 c 128,-1,84
 535.266140816 789.272263198 535.266140816 789.272263198 539.816412923 800.874120112 c 0,85,86
 542.091725084 806.675441502 542.091725084 806.675441502 544.461208702 812.48789008 c 128,-1,87
 546.830692321 818.300338658 546.830692321 818.300338658 549.293445872 824.121656057 c 0,88,89
 554.221978655 835.769157621 554.221978655 835.769157621 559.512039406 847.428370293 c 0,90,91
 561.275221792 851.315107625 561.275221792 851.315107625 563.080137556 855.206471203 c 128,-1,92
 564.88505332 859.097834781 564.88505332 859.097834781 566.731967915 862.994372185 c 128,-1,93
 568.578882511 866.890909589 568.578882511 866.890909589 570.467399937 870.791760506 c 128,-1,94
 572.353989582 874.688454981 572.353989582 874.688454981 574.281854084 878.58955295 c 128,-1,95
 576.209718586 882.49065092 576.209718586 882.49065092 578.179041229 886.396503154 c 128,-1,96
 580.148363872 890.302355389 580.148363872 890.302355389 582.158699108 894.21205742 c 0,97,98
 588.192417453 905.94552446 588.192417453 905.94552446 594.58281413 917.692392099 c 128,-1,99
 600.976282251 929.443125538 600.976282251 929.443125538 607.740099145 941.234286862 c 128,-1,100
 614.507341385 953.028761743 614.507341385 953.028761743 621.628495669 964.838251478 c 0,101,102
 625.190292298 970.74373064 625.190292298 970.74373064 628.845341189 976.660771596 c 128,-1,103
 632.50039008 982.577812553 632.50039008 982.577812553 636.248053477 988.505353094 c 2,104,-1
 656.856007313 1021.09765625 l 1,105,-1
 881.621760414 1021.09765625 l 1,37,-1
EndSplineSet
EndChar

StartChar: guillemotright
Encoding: 187 187 291
Width: 992
VWidth: 2088
Flags: W
LayerCount: 2
Fore
SplineSet
489.378256354 1021.09765625 m 1,0,-1
 714.144037569 1021.09765625 l 1,1,-1
 734.752708262 988.504716299 l 2,2,3
 886.9453125 747.78460434 886.9453125 747.78460434 886.9453125 517.861328125 c 128,-1,4
 886.9453125 287.920305334 886.9453125 287.920305334 735.006897007 48.1605576999 c 2,5,-1
 714.06709335 15.177734375 l 1,6,-1
 489.154002425 15.177734375 l 1,7,-1
 548.94190409 119.886243603 l 2,8,9
 662.9453125 319.547319031 662.9453125 319.547319031 662.9453125 517.71484375 c 0,10,11
 662.9453125 583.832096262 662.9453125 583.832096262 650.227216391 650.262638597 c 128,-1,12
 637.509120283 716.693180931 637.509120283 716.693180931 612.167225209 783.220879509 c 128,-1,13
 586.825330134 849.748578087 586.825330134 849.748578087 548.864565587 916.494173845 c 2,14,-1
 489.378256354 1021.09765625 l 1,0,-1
113.378256354 1021.09765625 m 1,15,-1
 338.144037569 1021.09765625 l 1,16,-1
 358.752708262 988.504716299 l 2,17,18
 434.962201054 867.965628811 434.962201054 867.965628811 472.953756777 750.288338889 c 128,-1,19
 510.9453125 632.611048967 510.9453125 632.611048967 510.9453125 517.64453125 c 0,20,21
 510.9453125 287.4737208 510.9453125 287.4737208 358.689355279 47.6612839405 c 2,22,-1
 338.067876871 15.177734375 l 1,23,-1
 113.154002425 15.177734375 l 1,24,-1
 172.94190409 119.886243603 l 2,25,26
 286.9453125 319.547319031 286.9453125 319.547319031 286.9453125 517.71484375 c 128,-1,27
 286.9453125 715.908450451 286.9453125 715.908450451 172.864565587 916.494173845 c 2,28,-1
 113.378256354 1021.09765625 l 1,15,-1
EndSplineSet
EndChar

StartChar: uniFEFC
Encoding: 65276 65276 298
Width: 1353
VWidth: 2593
Flags: W
AnchorPoint: "Anchor-9" 227.664 1521.56 baselig 1
AnchorPoint: "Anchor-6" 176.608 -248.627 baselig 1
AnchorPoint: "Anchor-6" 801.826 -235.129 baselig 0
AnchorPoint: "Anchor-9" 945.017 1536.22 baselig 0
LayerCount: 2
Fore
SplineSet
151.759765625 360 m 1,0,-1
 151.759765625 1388.69726562 l 1,1,-1
 406.853515625 1388.69726562 l 1,2,-1
 406.853515625 360 l 1,3,-1
 151.759765625 360 l 1,0,-1
150.88671875 269.200195312 m 1,4,-1
 659.970703125 269.200195312 l 2,5,6
 746.149414062 269.200195312 746.149414062 269.200195312 787.040039062 323.8671875 c 0,7,8
 828 379 828 379 828.081054688 506.403320312 c 2,9,-1
 828.081054688 1388.69726562 l 1,10,-1
 1083.17578125 1388.69726562 l 1,11,-1
 1083.17578125 505.228515625 l 2,12,13
 1083.17578125 379.80859375 1083.17578125 379.80859375 1133.77441406 324.681640625 c 0,14,15
 1184 269 1184 269 1294.83203125 269.200195312 c 2,16,-1
 1367.48730469 269.200195312 l 1,17,-1
 1367.48730469 -0.0966796875 l 1,18,-1
 1243.20605469 -0.0966796875 l 2,19,20
 1162.24316406 -0.0966796875 1162.24316406 -0.0966796875 1089.55371094 28.849609375 c 0,21,22
 1017 58 1017 58 955.686523438 113.793945312 c 1,23,24
 834 0 834 0 677.42578125 -0.0966796875 c 2,25,-1
 150.88671875 -0.0966796875 l 1,26,-1
 150.88671875 269.200195312 l 1,4,-1
EndSplineSet
LCarets2: 1 0
Ligature2: "'rlig' Required Ligatures in Arabic lookup 16 subtable" uniFEE0 uniFE8E
EndChar
